Annaheim.ufo
<glyph name="exclam" format="1">
  <advance width="446"/>
  <unicode hex="0021"/>
  <outline>
    <contour>
      <point x="161" y="1395" type="line"/>
      <point x="161" y="1194" type="line"/>
      <point x="161" y="369" type="line"/>
      <point x="268" y="369" type="line"/>
      <point x="278" y="1194" type="line"/>
      <point x="278" y="1395" type="line"/>
    </contour>
    <contour>
      <point x="147" y="182" type="line"/>
      <point x="147" y="-8" type="line"/>
      <point x="305" y="-8" type="line"/>
      <point x="305" y="182" type="line"/>
    </contour>
  </outline>
</glyph>
<glyph name="dollar" format="1">
  <advance width="1035"/>
  <unicode hex="0024"/>
  <outline>
    <contour>
      <point x="495" y="-188" type="line"/>
      <point x="574" y="-188" type="line"/>
      <point x="574" y="1465" type="line"/>
      <point x="494" y="1465" type="line"/>
    </contour>
    <contour>
      <point x="850" y="1145" type="curve"/>
      <point x="871" y="1239" type="line"/>
      <point x="770" y="1285"/>
      <point x="661" y="1308"/>
      <point x="543" y="1308" type="curve" smooth="yes"/>
      <point x="328" y="1308"/>
      <point x="140" y="1216"/>
      <point x="140" y="972" type="curve"/>
      <point x="148" y="757"/>
      <point x="246" y="686"/>
      <point x="512" y="609" type="curve" smooth="yes"/>
      <point x="684" y="559"/>
      <point x="774" y="512"/>
      <point x="782" y="336" type="curve"/>
      <point x="782" y="149"/>
      <point x="645" y="84"/>
      <point x="489" y="84" type="curve" smooth="yes"/>
      <point x="378" y="84"/>
      <point x="254" y="117"/>
      <point x="162" y="165" type="curve"/>
      <point x="137" y="68" type="line"/>
      <point x="243" y="11"/>
      <point x="360" y="-17"/>
      <point x="489" y="-17" type="curve" smooth="yes"/>
      <point x="710" y="-17"/>
      <point x="902" y="85"/>
      <point x="902" y="337" type="curve" smooth="yes"/>
      <point x="902" y="611"/>
      <point x="721" y="660"/>
      <point x="551" y="716" type="curve" smooth="yes"/>
      <point x="465" y="744"/>
      <point x="412" y="763"/>
      <point x="390" y="773" type="curve" smooth="yes"/>
      <point x="299" y="814"/>
      <point x="260" y="879"/>
      <point x="260" y="972" type="curve" smooth="yes"/>
      <point x="260" y="1152"/>
      <point x="394" y="1208"/>
      <point x="543" y="1208" type="curve" smooth="yes"/>
      <point x="645" y="1208"/>
      <point x="747" y="1187"/>
    </contour>
  </outline>
</glyph>
<glyph name="percent" format="1">
  <advance width="1259"/>
  <unicode hex="0025"/>
  <outline>
    <contour>
      <point x="905" y="585" type="curve"/>
      <point x="904" y="586" type="line"/>
      <point x="760" y="586"/>
      <point x="668" y="470"/>
      <point x="668" y="298" type="curve" smooth="yes"/>
      <point x="668" y="128"/>
      <point x="752" y="11"/>
      <point x="904" y="11" type="curve" smooth="yes"/>
      <point x="1044" y="11"/>
      <point x="1139" y="126"/>
      <point x="1139" y="298" type="curve" smooth="yes"/>
      <point x="1139" y="464"/>
      <point x="1048" y="585"/>
    </contour>
    <contour>
      <point x="903" y="108" type="curve" smooth="yes"/>
      <point x="812" y="108"/>
      <point x="766" y="187"/>
      <point x="766" y="302" type="curve" smooth="yes"/>
      <point x="766" y="410"/>
      <point x="815" y="488"/>
      <point x="903" y="488" type="curve" smooth="yes"/>
      <point x="992" y="488"/>
      <point x="1042" y="407"/>
      <point x="1042" y="298" type="curve" smooth="yes"/>
      <point x="1042" y="189"/>
      <point x="992" y="108"/>
    </contour>
    <contour>
      <point x="352" y="1356" type="curve"/>
      <point x="352" y="1357" type="line"/>
      <point x="209" y="1357"/>
      <point x="116" y="1241"/>
      <point x="116" y="1069" type="curve" smooth="yes"/>
      <point x="116" y="898"/>
      <point x="203" y="782"/>
      <point x="352" y="782" type="curve" smooth="yes"/>
      <point x="491" y="782"/>
      <point x="586" y="895"/>
      <point x="586" y="1069" type="curve" smooth="yes"/>
      <point x="586" y="1237"/>
      <point x="499" y="1356"/>
    </contour>
    <contour>
      <point x="352" y="879" type="curve" smooth="yes"/>
      <point x="261" y="879"/>
      <point x="215" y="958"/>
      <point x="215" y="1071" type="curve" smooth="yes"/>
      <point x="215" y="1182"/>
      <point x="263" y="1260"/>
      <point x="352" y="1260" type="curve" smooth="yes"/>
      <point x="440" y="1260"/>
      <point x="488" y="1177"/>
      <point x="488" y="1069" type="curve" smooth="yes"/>
      <point x="488" y="961"/>
      <point x="441" y="879"/>
    </contour>
    <contour>
      <point x="829" y="1368" type="line"/>
      <point x="317" y="-10" type="line"/>
      <point x="416" y="-25" type="line"/>
      <point x="931" y="1356" type="line"/>
    </contour>
  </outline>
</glyph>
<glyph name="ampersand" format="1">
  <advance width="1100"/>
  <unicode hex="0026"/>
  <outline>
    <contour>
      <point x="1024" y="489" type="curve"/>
      <point x="915" y="522" type="line"/>
      <point x="846" y="264"/>
      <point x="733" y="96"/>
      <point x="519" y="96" type="curve" smooth="yes"/>
      <point x="332" y="96"/>
      <point x="252" y="169"/>
      <point x="252" y="297" type="curve" smooth="yes"/>
      <point x="252" y="423"/>
      <point x="335" y="501"/>
      <point x="441" y="588" type="curve" smooth="yes"/>
      <point x="590" y="709"/>
      <point x="768" y="845"/>
      <point x="768" y="1038" type="curve" smooth="yes"/>
      <point x="768" y="1220"/>
      <point x="645" y="1308"/>
      <point x="489" y="1308" type="curve" smooth="yes"/>
      <point x="349" y="1308"/>
      <point x="209" y="1222"/>
      <point x="209" y="1041" type="curve" smooth="yes"/>
      <point x="209" y="954"/>
      <point x="255" y="859"/>
      <point x="312" y="778" type="curve"/>
      <point x="908" y="-19" type="line"/>
      <point x="1002" y="54" type="line"/>
      <point x="437" y="799" type="line"/>
      <point x="381" y="878"/>
      <point x="337" y="945"/>
      <point x="337" y="1044" type="curve" smooth="yes"/>
      <point x="337" y="1145"/>
      <point x="397" y="1196"/>
      <point x="492" y="1196" type="curve" smooth="yes"/>
      <point x="589" y="1196"/>
      <point x="640" y="1145"/>
      <point x="640" y="1033" type="curve" smooth="yes"/>
      <point x="640" y="899"/>
      <point x="527" y="807"/>
      <point x="404" y="710" type="curve"/>
      <point x="268" y="601"/>
      <point x="124" y="484"/>
      <point x="124" y="291" type="curve" smooth="yes"/>
      <point x="124" y="96"/>
      <point x="261" y="-16"/>
      <point x="505" y="-16" type="curve" smooth="yes"/>
      <point x="811" y="-16"/>
      <point x="965" y="229"/>
    </contour>
  </outline>
</glyph>
<glyph name="parenleft" format="1">
  <advance width="583"/>
  <unicode hex="0028"/>
  <outline>
    <contour>
      <point x="436" y="-305" type="curve"/>
      <point x="436" y="-307" type="line"/>
      <point x="501" y="-231" type="line"/>
      <point x="338" y="13"/>
      <point x="251" y="278"/>
      <point x="251" y="648" type="curve" smooth="yes"/>
      <point x="251" y="1021"/>
      <point x="337" y="1279"/>
      <point x="501" y="1528" type="curve"/>
      <point x="436" y="1604" type="line"/>
      <point x="241" y="1345"/>
      <point x="133" y="1059"/>
      <point x="133" y="649" type="curve" smooth="yes"/>
      <point x="133" y="241"/>
      <point x="240" y="-44"/>
    </contour>
  </outline>
</glyph>
<glyph name="parenright" format="1">
  <advance width="592"/>
  <unicode hex="0029"/>
  <outline>
    <contour>
      <point x="88" y="-228" type="curve"/>
      <point x="88" y="-229" type="line"/>
      <point x="152" y="-305" type="line"/>
      <point x="347" y="-41"/>
      <point x="456" y="243"/>
      <point x="456" y="646" type="curve" smooth="yes"/>
      <point x="456" y="1054"/>
      <point x="348" y="1339"/>
      <point x="152" y="1598" type="curve"/>
      <point x="88" y="1525" type="line"/>
      <point x="253" y="1277"/>
      <point x="340" y="1016"/>
      <point x="340" y="646" type="curve" smooth="yes"/>
      <point x="340" y="278"/>
      <point x="252" y="17"/>
    </contour>
  </outline>
</glyph>
<glyph name="comma" format="1">
  <advance width="430"/>
  <unicode hex="002C"/>
  <outline>
    <contour>
      <point x="304" y="39" type="curve" smooth="yes"/>
      <point x="304" y="215" type="line"/>
      <point x="135" y="215" type="line"/>
      <point x="135" y="-4" type="line"/>
      <point x="207" y="-4" type="line"/>
      <point x="204" y="-65"/>
      <point x="175" y="-138"/>
      <point x="121" y="-221" type="curve"/>
      <point x="168" y="-274" type="line"/>
      <point x="251" y="-178"/>
      <point x="304" y="-89"/>
    </contour>
  </outline>
</glyph>
<glyph name="hyphen" format="1">
  <advance width="750"/>
  <unicode hex="002D"/>
  <outline>
    <contour>
      <point x="114" y="449" type="line"/>
      <point x="114" y="565" type="line"/>
      <point x="633" y="565" type="line"/>
      <point x="633" y="449" type="line"/>
    </contour>
  </outline>
</glyph>
<glyph name="period" format="1">
  <advance width="450"/>
  <unicode hex="002E"/>
  <outline>
    <contour>
      <point x="305" y="210" type="line"/>
      <point x="305" y="0" type="line"/>
      <point x="145" y="0" type="line"/>
      <point x="145" y="210" type="line"/>
    </contour>
  </outline>
</glyph>
<glyph name="zero" format="1">
  <advance width="1012"/>
  <unicode hex="0030"/>
  <outline>
    <contour>
      <point x="507" y="1208" type="line" smooth="yes"/>
      <point x="733" y="1199"/>
      <point x="763" y="986"/>
      <point x="763" y="650" type="curve" smooth="yes"/>
      <point x="763" y="406"/>
      <point x="764" y="92"/>
      <point x="507" y="92" type="curve"/>
      <point x="280" y="101"/>
      <point x="249" y="310"/>
      <point x="249" y="646" type="curve" smooth="yes"/>
      <point x="249" y="929"/>
      <point x="266" y="1208"/>
      <point x="497" y="1208" type="curve" smooth="yes"/>
    </contour>
    <contour>
      <point x="133" y="646" type="curve" smooth="yes"/>
      <point x="133" y="293"/>
      <point x="181" y="-16"/>
      <point x="507" y="-16" type="curve" smooth="yes"/>
      <point x="828" y="-16"/>
      <point x="879" y="289"/>
      <point x="879" y="646" type="curve" smooth="yes"/>
      <point x="879" y="1003"/>
      <point x="830" y="1308"/>
      <point x="507" y="1308" type="curve" smooth="yes"/>
      <point x="190" y="1308"/>
      <point x="133" y="1030"/>
    </contour>
  </outline>
</glyph>
<glyph name="one" format="1">
  <advance width="799"/>
  <unicode hex="0031"/>
  <outline>
    <contour>
      <point x="499" y="84" type="line"/>
      <point x="499" y="1285" type="line"/>
      <point x="400" y="1285" type="line"/>
      <point x="119" y="1155" type="line"/>
      <point x="120" y="1154" type="line"/>
      <point x="158" y="1061" type="line"/>
      <point x="385" y="1167" type="line"/>
      <point x="385" y="84" type="line"/>
      <point x="171" y="84" type="line"/>
      <point x="171" y="-16" type="line"/>
      <point x="685" y="-16" type="line"/>
      <point x="685" y="84" type="line"/>
    </contour>
  </outline>
</glyph>
<glyph name="two" format="1">
  <advance width="961"/>
  <unicode hex="0032"/>
  <outline>
    <contour>
      <point x="437" y="1208" type="curve" smooth="yes"/>
      <point x="633" y="1208"/>
      <point x="706" y="1109"/>
      <point x="706" y="970" type="curve" smooth="yes"/>
      <point x="706" y="814"/>
      <point x="601" y="693"/>
      <point x="482" y="584" type="curve" smooth="yes"/>
      <point x="316" y="432"/>
      <point x="133" y="269"/>
      <point x="131" y="0" type="curve"/>
      <point x="813" y="0" type="line"/>
      <point x="813" y="100" type="line"/>
      <point x="258" y="100" type="line"/>
      <point x="280" y="240"/>
      <point x="394" y="355"/>
      <point x="503" y="456" type="curve" smooth="yes"/>
      <point x="663" y="604"/>
      <point x="824" y="754"/>
      <point x="824" y="971" type="curve" smooth="yes"/>
      <point x="824" y="1148"/>
      <point x="704" y="1308"/>
      <point x="453" y="1308" type="curve" smooth="yes"/>
      <point x="304" y="1308"/>
      <point x="241" y="1286"/>
      <point x="145" y="1254" type="curve"/>
      <point x="172" y="1157" type="line"/>
      <point x="178" y="1160"/>
      <point x="299" y="1208"/>
    </contour>
  </outline>
</glyph>
<glyph name="three" format="1">
  <advance width="1002"/>
  <unicode hex="0033"/>
  <outline>
    <contour>
      <point x="569" y="691" type="curve"/>
      <point x="728" y="739"/>
      <point x="819" y="820"/>
      <point x="819" y="994" type="curve" smooth="yes"/>
      <point x="819" y="1197"/>
      <point x="672" y="1308"/>
      <point x="448" y="1308" type="curve" smooth="yes"/>
      <point x="351" y="1308"/>
      <point x="245" y="1289"/>
      <point x="132" y="1252" type="curve"/>
      <point x="159" y="1145" type="line"/>
      <point x="258" y="1179"/>
      <point x="356" y="1196"/>
      <point x="453" y="1196" type="curve" smooth="yes"/>
      <point x="610" y="1196"/>
      <point x="703" y="1129"/>
      <point x="703" y="985" type="curve" smooth="yes"/>
      <point x="703" y="786"/>
      <point x="551" y="747"/>
      <point x="289" y="713" type="curve"/>
      <point x="298" y="610" type="line"/>
      <point x="347" y="621"/>
      <point x="397" y="627"/>
      <point x="450" y="627" type="curve" smooth="yes"/>
      <point x="605" y="627"/>
      <point x="755" y="543"/>
      <point x="755" y="360" type="curve" smooth="yes"/>
      <point x="755" y="150"/>
      <point x="612" y="96"/>
      <point x="446" y="96" type="curve" smooth="yes"/>
      <point x="362" y="96"/>
      <point x="266" y="104"/>
      <point x="159" y="139" type="curve"/>
      <point x="132" y="40" type="line"/>
      <point x="231" y="3"/>
      <point x="334" y="-16"/>
      <point x="441" y="-16" type="curve" smooth="yes"/>
      <point x="664" y="-16"/>
      <point x="871" y="79"/>
      <point x="871" y="349" type="curve" smooth="yes"/>
      <point x="871" y="529"/>
      <point x="728" y="677"/>
    </contour>
  </outline>
</glyph>
<glyph name="four" format="1">
  <advance width="1002"/>
  <unicode hex="0034"/>
  <outline>
    <contour>
      <point x="617" y="0" type="line"/>
      <point x="719" y="0" type="line"/>
      <point x="719" y="260" type="line"/>
      <point x="885" y="260" type="line"/>
      <point x="885" y="367" type="line"/>
      <point x="719" y="367" type="line"/>
      <point x="719" y="797" type="line"/>
      <point x="617" y="797" type="line"/>
      <point x="617" y="367" type="line"/>
      <point x="232" y="367" type="line"/>
      <point x="526" y="1298" type="line"/>
      <point x="420" y="1298" type="line"/>
      <point x="118" y="356" type="line"/>
      <point x="118" y="260" type="line"/>
      <point x="617" y="260" type="line"/>
    </contour>
  </outline>
</glyph>
<glyph name="five" format="1">
  <advance width="999"/>
  <unicode hex="0035"/>
  <outline>
    <contour>
      <point x="736" y="371" type="curve" smooth="yes"/>
      <point x="736" y="196"/>
      <point x="634" y="96"/>
      <point x="450" y="96" type="curve"/>
      <point x="362" y="95"/>
      <point x="226" y="126"/>
      <point x="157" y="159" type="curve"/>
      <point x="131" y="50" type="line"/>
      <point x="198" y="17"/>
      <point x="347" y="-16"/>
      <point x="443" y="-16" type="curve" smooth="yes"/>
      <point x="692" y="-16"/>
      <point x="864" y="119"/>
      <point x="864" y="369" type="curve" smooth="yes"/>
      <point x="864" y="626"/>
      <point x="718" y="787"/>
      <point x="498" y="787" type="curve" smooth="yes"/>
      <point x="419" y="787"/>
      <point x="343" y="771"/>
      <point x="277" y="726" type="curve"/>
      <point x="292" y="1184" type="line"/>
      <point x="796" y="1184" type="line"/>
      <point x="796" y="1284" type="line"/>
      <point x="179" y="1284" type="line"/>
      <point x="179" y="637" type="line"/>
      <point x="250" y="608" type="line"/>
      <point x="329" y="667"/>
      <point x="412" y="683"/>
      <point x="497" y="683" type="curve" smooth="yes"/>
      <point x="640" y="683"/>
      <point x="736" y="580"/>
    </contour>
  </outline>
</glyph>
<glyph name="six" format="1">
  <advance width="998"/>
  <unicode hex="0036"/>
  <outline>
    <contour>
      <point x="224" y="529" type="curve" smooth="yes"/>
      <point x="224" y="613" type="line"/>
      <point x="343" y="690"/>
      <point x="412" y="715"/>
      <point x="499" y="715" type="curve" smooth="yes"/>
      <point x="642" y="715"/>
      <point x="720" y="628"/>
      <point x="720" y="422" type="curve" smooth="yes"/>
      <point x="720" y="197"/>
      <point x="642" y="96"/>
      <point x="474" y="96" type="curve" smooth="yes"/>
      <point x="294" y="96"/>
      <point x="224" y="241"/>
    </contour>
    <contour>
      <point x="231" y="727" type="curve"/>
      <point x="242" y="996"/>
      <point x="376" y="1188"/>
      <point x="720" y="1196" type="curve"/>
      <point x="699" y="1308" type="line"/>
      <point x="311" y="1269"/>
      <point x="96" y="1106"/>
      <point x="96" y="551" type="curve" smooth="yes"/>
      <point x="96" y="190"/>
      <point x="207" y="-16"/>
      <point x="479" y="-16" type="curve" smooth="yes"/>
      <point x="711" y="-16"/>
      <point x="848" y="148"/>
      <point x="848" y="421" type="curve" smooth="yes"/>
      <point x="848" y="698"/>
      <point x="702" y="825"/>
      <point x="514" y="825" type="curve" smooth="yes"/>
      <point x="416" y="825"/>
      <point x="335" y="800"/>
    </contour>
  </outline>
</glyph>
<glyph name="seven" format="1">
  <advance width="875"/>
  <unicode hex="0037"/>
  <outline>
    <contour>
      <point x="769" y="1181" type="curve" smooth="yes"/>
      <point x="769" y="1301" type="line"/>
      <point x="106" y="1301" type="line"/>
      <point x="106" y="1300"/>
      <point x="106" y="1261"/>
      <point x="105" y="1184" type="curve"/>
      <point x="655" y="1184" type="line"/>
      <point x="642" y="1139"/>
      <point x="626" y="1090"/>
      <point x="601" y="1035" type="curve" smooth="yes"/>
      <point x="520" y="856" type="line" smooth="yes"/>
      <point x="344" y="468"/>
      <point x="260" y="230"/>
      <point x="257" y="3" type="curve"/>
      <point x="379" y="3" type="line"/>
      <point x="379" y="146"/>
      <point x="430" y="343"/>
      <point x="487" y="500" type="curve" smooth="yes"/>
      <point x="548" y="667"/>
      <point x="741" y="1086"/>
      <point x="758" y="1129" type="curve" smooth="yes"/>
      <point x="765" y="1148"/>
      <point x="769" y="1166"/>
    </contour>
  </outline>
</glyph>
<glyph name="eight" format="1">
  <advance width="1034"/>
  <unicode hex="0038"/>
  <outline>
    <contour>
      <point x="160" y="994" type="curve" smooth="yes"/>
      <point x="160" y="825"/>
      <point x="266" y="736"/>
      <point x="383" y="675" type="curve"/>
      <point x="213" y="597"/>
      <point x="128" y="445"/>
      <point x="128" y="304" type="curve" smooth="yes"/>
      <point x="128" y="93"/>
      <point x="303" y="-16"/>
      <point x="512" y="-16" type="curve" smooth="yes"/>
      <point x="707" y="-16"/>
      <point x="896" y="89"/>
      <point x="896" y="306" type="curve" smooth="yes"/>
      <point x="896" y="496"/>
      <point x="783" y="597"/>
      <point x="654" y="665" type="curve"/>
      <point x="800" y="727"/>
      <point x="896" y="863"/>
      <point x="896" y="998" type="curve" smooth="yes"/>
      <point x="896" y="1197"/>
      <point x="723" y="1308"/>
      <point x="528" y="1308" type="curve" smooth="yes"/>
      <point x="334" y="1308"/>
      <point x="160" y="1211"/>
    </contour>
    <contour>
      <point x="545" y="716" type="curve"/>
      <point x="408" y="776"/>
      <point x="288" y="840"/>
      <point x="288" y="989" type="curve" smooth="yes"/>
      <point x="288" y="1149"/>
      <point x="404" y="1196"/>
      <point x="530" y="1196" type="curve" smooth="yes"/>
      <point x="696" y="1196"/>
      <point x="768" y="1107"/>
      <point x="768" y="987" type="curve" smooth="yes"/>
      <point x="768" y="875"/>
      <point x="676" y="761"/>
    </contour>
    <contour>
      <point x="512" y="96" type="curve" smooth="yes"/>
      <point x="372" y="96"/>
      <point x="262" y="154"/>
      <point x="256" y="305" type="curve" smooth="yes"/>
      <point x="251" y="433"/>
      <point x="328" y="543"/>
      <point x="492" y="626" type="curve"/>
      <point x="625" y="568"/>
      <point x="768" y="487"/>
      <point x="768" y="321" type="curve" smooth="yes"/>
      <point x="768" y="152"/>
      <point x="646" y="96"/>
    </contour>
  </outline>
</glyph>
<glyph name="nine" format="1">
  <advance width="1002"/>
  <unicode hex="0039"/>
  <outline>
    <contour>
      <point x="713" y="565" type="curve"/>
      <point x="713" y="310"/>
      <point x="568" y="104"/>
      <point x="224" y="96" type="curve"/>
      <point x="245" y="-16" type="line"/>
      <point x="624" y="7"/>
      <point x="848" y="186"/>
      <point x="848" y="741" type="curve" smooth="yes"/>
      <point x="848" y="1105"/>
      <point x="737" y="1308"/>
      <point x="465" y="1308" type="curve" smooth="yes"/>
      <point x="233" y="1308"/>
      <point x="96" y="1144"/>
      <point x="96" y="871" type="curve" smooth="yes"/>
      <point x="96" y="594"/>
      <point x="242" y="467"/>
      <point x="430" y="467" type="curve" smooth="yes"/>
      <point x="528" y="467"/>
      <point x="609" y="492"/>
    </contour>
    <contour>
      <point x="720" y="763" type="curve" smooth="yes"/>
      <point x="720" y="679" type="line"/>
      <point x="601" y="602"/>
      <point x="532" y="577"/>
      <point x="445" y="577" type="curve" smooth="yes"/>
      <point x="302" y="577"/>
      <point x="224" y="664"/>
      <point x="224" y="870" type="curve" smooth="yes"/>
      <point x="224" y="1095"/>
      <point x="302" y="1196"/>
      <point x="470" y="1196" type="curve" smooth="yes"/>
      <point x="650" y="1196"/>
      <point x="720" y="1051"/>
    </contour>
  </outline>
</glyph>
<glyph name="colon" format="1">
  <advance width="481"/>
  <unicode hex="003A"/>
  <outline>
    <contour>
      <point x="340" y="287" type="line"/>
      <point x="340" y="47" type="line"/>
      <point x="141" y="47" type="line"/>
      <point x="141" y="287" type="line"/>
    </contour>
    <contour>
      <point x="340" y="841" type="line"/>
      <point x="340" y="601" type="line"/>
      <point x="141" y="601" type="line"/>
      <point x="141" y="841" type="line"/>
    </contour>
  </outline>
</glyph>
<glyph name="semicolon" format="1">
  <advance width="462"/>
  <unicode hex="003B"/>
  <outline>
    <contour>
      <point x="145" y="862" type="line"/>
      <point x="145" y="649" type="line"/>
      <point x="320" y="649" type="line"/>
      <point x="320" y="862" type="line"/>
    </contour>
    <contour>
      <point x="321" y="129" type="curve" smooth="yes"/>
      <point x="321" y="305" type="line"/>
      <point x="150" y="305" type="line"/>
      <point x="150" y="86" type="line"/>
      <point x="224" y="86" type="line"/>
      <point x="219" y="22"/>
      <point x="190" y="-51"/>
      <point x="138" y="-133" type="curve"/>
      <point x="184" y="-186" type="line"/>
      <point x="268" y="-90"/>
      <point x="321" y="-2"/>
    </contour>
  </outline>
</glyph>
<glyph name="greater" format="1">
  <advance width="1009"/>
  <unicode hex="003E"/>
  <outline>
    <contour>
      <point x="774" y="596" type="line"/>
      <point x="130" y="1030" type="line"/>
      <point x="186" y="1116" type="line"/>
      <point x="899" y="629" type="line"/>
      <point x="899" y="563" type="line"/>
      <point x="186" y="61" type="line"/>
      <point x="130" y="150" type="line"/>
    </contour>
  </outline>
</glyph>
<glyph name="question" format="1">
  <advance width="881"/>
  <unicode hex="003F"/>
  <outline>
    <contour>
      <point x="361" y="315" type="curve"/>
      <point x="361" y="315"/>
      <point x="455" y="315"/>
      <point x="455" y="315" type="curve"/>
      <point x="452" y="357"/>
      <point x="448" y="411"/>
      <point x="448" y="434" type="curve" smooth="yes"/>
      <point x="448" y="567"/>
      <point x="482" y="589"/>
      <point x="603" y="701" type="curve" smooth="yes"/>
      <point x="671" y="764"/>
      <point x="766" y="864"/>
      <point x="766" y="1005" type="curve" smooth="yes"/>
      <point x="766" y="1184"/>
      <point x="635" y="1301"/>
      <point x="449" y="1301" type="curve" smooth="yes"/>
      <point x="303" y="1301"/>
      <point x="170" y="1229"/>
      <point x="102" y="1151" type="curve"/>
      <point x="158" y="1071" type="line"/>
      <point x="245" y="1153"/>
      <point x="330" y="1195"/>
      <point x="458" y="1195" type="curve" smooth="yes"/>
      <point x="584" y="1195"/>
      <point x="647" y="1107"/>
      <point x="647" y="998" type="curve" smooth="yes"/>
      <point x="647" y="908"/>
      <point x="584" y="821"/>
      <point x="490" y="738" type="curve" smooth="yes"/>
      <point x="398" y="656"/>
      <point x="340" y="587"/>
      <point x="340" y="477" type="curve" smooth="yes"/>
      <point x="340" y="477"/>
      <point x="353" y="343"/>
    </contour>
    <contour>
      <point x="323" y="148" type="line"/>
      <point x="323" y="-6" type="line"/>
      <point x="491" y="-6" type="line"/>
      <point x="491" y="148" type="line"/>
    </contour>
  </outline>
</glyph>
<glyph name="at" format="1">
  <advance width="1212"/>
  <unicode hex="0040"/>
  <outline>
    <contour>
      <point x="512" y="437" type="curve"/>
      <point x="511" y="436" type="line"/>
      <point x="511" y="617"/>
      <point x="546" y="760"/>
      <point x="688" y="760" type="curve" smooth="yes"/>
      <point x="752" y="760"/>
      <point x="806" y="749"/>
      <point x="850" y="727" type="curve"/>
      <point x="836" y="452"/>
      <point x="840" y="288"/>
      <point x="799" y="247" type="curve"/>
      <point x="750" y="214"/>
      <point x="705" y="198"/>
      <point x="664" y="198" type="curve" smooth="yes"/>
      <point x="550" y="198"/>
      <point x="512" y="307"/>
    </contour>
    <contour>
      <point x="767" y="864" type="curve"/>
      <point x="766" y="860" type="line"/>
      <point x="759" y="860"/>
      <point x="753" y="853"/>
      <point x="747" y="840" type="curve"/>
      <point x="714" y="854"/>
      <point x="682" y="861"/>
      <point x="651" y="861" type="curve" smooth="yes"/>
      <point x="498" y="861"/>
      <point x="394" y="687"/>
      <point x="394" y="470" type="curve" smooth="yes"/>
      <point x="394" y="297"/>
      <point x="443" y="172"/>
      <point x="543" y="128" type="curve" smooth="yes"/>
      <point x="563" y="119"/>
      <point x="581" y="114"/>
      <point x="601" y="114" type="curve" smooth="yes"/>
      <point x="655" y="114"/>
      <point x="693" y="138"/>
      <point x="731" y="174" type="curve"/>
      <point x="779" y="135"/>
      <point x="831" y="116"/>
      <point x="887" y="116" type="curve" smooth="yes"/>
      <point x="914" y="116"/>
      <point x="941" y="120"/>
      <point x="970" y="129" type="curve"/>
      <point x="1043" y="370"/>
      <point x="1079" y="630"/>
      <point x="1079" y="911" type="curve"/>
      <point x="1070" y="1071"/>
      <point x="872" y="1173"/>
      <point x="672" y="1173" type="curve" smooth="yes"/>
      <point x="333" y="1173"/>
      <point x="127" y="887"/>
      <point x="127" y="462" type="curve" smooth="yes"/>
      <point x="127" y="60"/>
      <point x="313" y="-203"/>
      <point x="632" y="-203" type="curve" smooth="yes"/>
      <point x="737" y="-203"/>
      <point x="844" y="-182"/>
      <point x="950" y="-139" type="curve"/>
      <point x="916" y="-33" type="line"/>
      <point x="810" y="-72"/>
      <point x="713" y="-92"/>
      <point x="625" y="-92" type="curve" smooth="yes"/>
      <point x="369" y="-92"/>
      <point x="236" y="136"/>
      <point x="236" y="469" type="curve" smooth="yes"/>
      <point x="236" y="813"/>
      <point x="414" y="1062"/>
      <point x="661" y="1062" type="curve" smooth="yes"/>
      <point x="810" y="1062"/>
      <point x="943" y="972"/>
      <point x="943" y="836" type="curve" smooth="yes"/>
      <point x="943" y="774"/>
      <point x="932" y="738"/>
      <point x="908" y="735" type="curve"/>
      <point x="875" y="676"/>
      <point x="877" y="687"/>
      <point x="877" y="672" type="curve"/>
      <point x="854" y="684"/>
      <point x="834" y="693"/>
      <point x="819" y="698" type="curve"/>
      <point x="812" y="731"/>
      <point x="802" y="786"/>
      <point x="789" y="862" type="curve"/>
      <point x="780" y="862"/>
      <point x="775" y="864"/>
    </contour>
  </outline>
</glyph>
<glyph name="A" format="1">
  <advance width="1163"/>
  <unicode hex="0041"/>
  <outline>
    <contour>
      <point x="936" y="0" type="line"/>
      <point x="1055" y="0" type="line"/>
      <point x="673" y="1284" type="line"/>
      <point x="510" y="1284" type="line"/>
      <point x="110" y="0" type="line"/>
      <point x="239" y="0" type="line"/>
      <point x="339" y="328" type="line"/>
      <point x="839" y="328" type="line"/>
    </contour>
    <contour>
      <point x="808" y="420" type="line"/>
      <point x="369" y="420" type="line"/>
      <point x="592" y="1171" type="line"/>
    </contour>
  </outline>
</glyph>
<glyph name="B" format="1">
  <advance width="1082"/>
  <unicode hex="0042"/>
  <outline>
    <contour>
      <point x="510" y="723" type="curve" smooth="yes"/>
      <point x="277" y="723" type="line"/>
      <point x="277" y="1180" type="line"/>
      <point x="494" y="1180" type="line" smooth="yes"/>
      <point x="701" y="1180"/>
      <point x="791" y="1132"/>
      <point x="791" y="971" type="curve" smooth="yes"/>
      <point x="791" y="781"/>
      <point x="700" y="723"/>
    </contour>
    <contour>
      <point x="821" y="375" type="curve" smooth="yes"/>
      <point x="821" y="142"/>
      <point x="694" y="104"/>
      <point x="474" y="104" type="curve" smooth="yes"/>
      <point x="277" y="104" type="line"/>
      <point x="277" y="625" type="line"/>
      <point x="511" y="625" type="line" smooth="yes"/>
      <point x="712" y="625"/>
      <point x="821" y="555"/>
    </contour>
    <contour>
      <point x="709" y="687" type="curve"/>
      <point x="853" y="722"/>
      <point x="903" y="810"/>
      <point x="903" y="971" type="curve" smooth="yes"/>
      <point x="903" y="1222"/>
      <point x="764" y="1284"/>
      <point x="470" y="1284" type="curve" smooth="yes"/>
      <point x="149" y="1284" type="line"/>
      <point x="149" y="0" type="line"/>
      <point x="467" y="0" type="line" smooth="yes"/>
      <point x="780" y="0"/>
      <point x="949" y="65"/>
      <point x="949" y="377" type="curve" smooth="yes"/>
      <point x="949" y="556"/>
      <point x="852" y="654"/>
    </contour>
  </outline>
</glyph>
<glyph name="C" format="1">
  <advance width="1031"/>
  <unicode hex="0043"/>
  <outline>
    <contour>
      <point x="246" y="638" type="curve" smooth="yes"/>
      <point x="246" y="1092"/>
      <point x="371" y="1195"/>
      <point x="597" y="1195" type="curve" smooth="yes"/>
      <point x="668" y="1195"/>
      <point x="739" y="1180"/>
      <point x="791" y="1157" type="curve"/>
      <point x="791" y="961" type="line"/>
      <point x="900" y="961" type="line"/>
      <point x="900" y="1226" type="line"/>
      <point x="790" y="1280"/>
      <point x="685" y="1301"/>
      <point x="586" y="1301" type="curve" smooth="yes"/>
      <point x="270" y="1301"/>
      <point x="122" y="1114"/>
      <point x="122" y="641" type="curve" smooth="yes"/>
      <point x="122" y="141"/>
      <point x="311" y="-8"/>
      <point x="609" y="-8" type="curve" smooth="yes"/>
      <point x="740" y="-8"/>
      <point x="817" y="17"/>
      <point x="927" y="78" type="curve"/>
      <point x="885" y="180" type="line"/>
      <point x="774" y="123"/>
      <point x="704" y="102"/>
      <point x="622" y="102" type="curve" smooth="yes"/>
      <point x="386" y="102"/>
      <point x="246" y="212"/>
    </contour>
    <contour>
      <point x="524" y="1284" type="move" name="top"/>
    </contour>
    <contour>
      <point x="524" y="-4" type="move" name="bottom"/>
    </contour>
  </outline>
</glyph>
<glyph name="D" format="1">
  <advance width="1115"/>
  <unicode hex="0044"/>
  <outline>
    <contour>
      <point x="433" y="1184" type="curve" smooth="yes"/>
      <point x="277" y="1184" type="line"/>
      <point x="277" y="104" type="line"/>
      <point x="433" y="104" type="line" smooth="yes"/>
      <point x="817" y="104"/>
      <point x="853" y="270"/>
      <point x="853" y="637" type="curve" smooth="yes"/>
      <point x="853" y="1031"/>
      <point x="808" y="1184"/>
    </contour>
    <contour>
      <point x="433" y="0" type="curve" smooth="yes"/>
      <point x="149" y="0" type="line"/>
      <point x="149" y="1284" type="line"/>
      <point x="433" y="1284" type="line" smooth="yes"/>
      <point x="887" y="1284"/>
      <point x="981" y="1102"/>
      <point x="981" y="637" type="curve" smooth="yes"/>
      <point x="981" y="230"/>
      <point x="905" y="0"/>
    </contour>
  </outline>
</glyph>
<glyph name="E" format="1">
  <advance width="929"/>
  <unicode hex="0045"/>
  <outline>
    <contour>
      <point x="277" y="649" type="line"/>
      <point x="277" y="104" type="line"/>
      <point x="822" y="104" type="line"/>
      <point x="838" y="0" type="line"/>
      <point x="149" y="0" type="line"/>
      <point x="149" y="1284" type="line"/>
      <point x="834" y="1284" type="line"/>
      <point x="812" y="1180" type="line"/>
      <point x="277" y="1180" type="line"/>
      <point x="277" y="745" type="line"/>
      <point x="778" y="745" type="line"/>
      <point x="778" y="649" type="line"/>
    </contour>
    <contour>
      <point x="486" y="1284" type="move" name="top"/>
    </contour>
    <contour>
      <point x="486" y="0" type="move" name="bottom"/>
    </contour>
    <contour>
      <point x="874" y="10" type="move" name="ogonek"/>
    </contour>
  </outline>
</glyph>
<glyph name="F" format="1">
  <advance width="927"/>
  <unicode hex="0046"/>
  <outline>
    <contour>
      <point x="277" y="697" type="line"/>
      <point x="733" y="697" type="line"/>
      <point x="733" y="603" type="line"/>
      <point x="277" y="603" type="line"/>
      <point x="277" y="0" type="line"/>
      <point x="149" y="0" type="line"/>
      <point x="149" y="1284" type="line"/>
      <point x="816" y="1284" type="line"/>
      <point x="797" y="1180" type="line"/>
      <point x="277" y="1180" type="line"/>
    </contour>
  </outline>
</glyph>
<glyph name="G" format="1">
  <advance width="1133"/>
  <unicode hex="0047"/>
  <outline>
    <contour>
      <point x="994" y="88" type="curve"/>
      <point x="994" y="666" type="line"/>
      <point x="603" y="666" type="line"/>
      <point x="603" y="551" type="line"/>
      <point x="866" y="551" type="line"/>
      <point x="866" y="152" type="line"/>
      <point x="795" y="119"/>
      <point x="704" y="96"/>
      <point x="613" y="96" type="curve" smooth="yes"/>
      <point x="331" y="96"/>
      <point x="258" y="251"/>
      <point x="258" y="652" type="curve" smooth="yes"/>
      <point x="258" y="1064"/>
      <point x="341" y="1196"/>
      <point x="609" y="1196" type="curve" smooth="yes"/>
      <point x="696" y="1196"/>
      <point x="814" y="1180"/>
      <point x="902" y="1131" type="curve"/>
      <point x="929" y="1235" type="line"/>
      <point x="844" y="1275"/>
      <point x="718" y="1308"/>
      <point x="610" y="1308" type="curve" smooth="yes"/>
      <point x="281" y="1308"/>
      <point x="130" y="1159"/>
      <point x="130" y="649" type="curve" smooth="yes"/>
      <point x="130" y="194"/>
      <point x="239" y="-16"/>
      <point x="606" y="-16" type="curve" smooth="yes"/>
      <point x="808" y="-16"/>
      <point x="928" y="54"/>
    </contour>
  </outline>
</glyph>
<glyph name="H" format="1">
  <advance width="1130"/>
  <unicode hex="0048"/>
  <outline>
    <contour>
      <point x="853" y="1284" type="line"/>
      <point x="981" y="1284" type="line"/>
      <point x="981" y="0" type="line"/>
      <point x="853" y="0" type="line"/>
      <point x="853" y="615" type="line"/>
      <point x="277" y="615" type="line"/>
      <point x="277" y="0" type="line"/>
      <point x="149" y="0" type="line"/>
      <point x="149" y="1284" type="line"/>
      <point x="277" y="1284" type="line"/>
      <point x="277" y="720" type="line"/>
      <point x="853" y="720" type="line"/>
    </contour>
    <contour>
      <point x="565" y="1284" type="move" name="top"/>
    </contour>
    <contour>
      <point x="565" y="642" type="move" name="center"/>
    </contour>
  </outline>
</glyph>
<glyph name="I" format="1">
  <advance width="773"/>
  <unicode hex="0049"/>
  <outline>
    <contour>
      <point x="456" y="1180" type="line"/>
      <point x="456" y="104" type="line"/>
      <point x="644" y="104" type="line"/>
      <point x="644" y="0" type="line"/>
      <point x="134" y="0" type="line"/>
      <point x="134" y="104" type="line"/>
      <point x="328" y="104" type="line"/>
      <point x="328" y="1180" type="line"/>
      <point x="134" y="1180" type="line"/>
      <point x="134" y="1284" type="line"/>
      <point x="640" y="1284" type="line"/>
      <point x="640" y="1180" type="line"/>
    </contour>
  </outline>
</glyph>
<glyph name="J" format="1">
  <advance width="643"/>
  <unicode hex="004A"/>
  <outline>
    <contour>
      <point x="494" y="1284" type="line"/>
      <point x="105" y="1284" type="line"/>
      <point x="105" y="1180" type="line"/>
      <point x="366" y="1180" type="line"/>
      <point x="366" y="91" type="line" smooth="yes"/>
      <point x="366" y="-62"/>
      <point x="327" y="-127"/>
      <point x="214" y="-127" type="curve" smooth="yes"/>
      <point x="167" y="-127"/>
      <point x="110" y="-116"/>
      <point x="62" y="-99" type="curve"/>
      <point x="47" y="-200" type="line"/>
      <point x="102" y="-221"/>
      <point x="166" y="-232"/>
      <point x="223" y="-232" type="curve" smooth="yes"/>
      <point x="395" y="-232"/>
      <point x="494" y="-155"/>
      <point x="494" y="91" type="curve" smooth="yes"/>
    </contour>
    <contour>
      <point x="295" y="1284" type="move" name="top"/>
    </contour>
  </outline>
</glyph>
<glyph name="K" format="1">
  <advance width="1090"/>
  <unicode hex="004B"/>
  <outline>
    <contour>
      <point x="277" y="0" type="line"/>
      <point x="277" y="480" type="line"/>
      <point x="437" y="658" type="line"/>
      <point x="832" y="0" type="line"/>
      <point x="973" y="0" type="line"/>
      <point x="536" y="721" type="line"/>
      <point x="961" y="1284" type="line"/>
      <point x="811" y="1284" type="line"/>
      <point x="418" y="778" type="line"/>
      <point x="277" y="609" type="line"/>
      <point x="277" y="1284" type="line"/>
      <point x="149" y="1284" type="line"/>
      <point x="149" y="0" type="line"/>
    </contour>
  </outline>
</glyph>
<glyph name="L" format="1">
  <advance width="890"/>
  <unicode hex="004C"/>
  <outline>
    <contour>
      <point x="277" y="1284" type="line"/>
      <point x="277" y="104" type="line"/>
      <point x="766" y="104" type="line"/>
      <point x="786" y="0" type="line"/>
      <point x="149" y="0" type="line"/>
      <point x="149" y="1284" type="line"/>
    </contour>
  </outline>
</glyph>
<glyph name="M" format="1">
  <advance width="1356"/>
  <unicode hex="004D"/>
  <outline>
    <contour>
      <point x="1010" y="1089" type="line"/>
      <point x="1105" y="0" type="line"/>
      <point x="1223" y="0" type="line"/>
      <point x="1114" y="1284" type="line"/>
      <point x="973" y="1284" type="line"/>
      <point x="679" y="582" type="line"/>
      <point x="377" y="1284" type="line"/>
      <point x="235" y="1284" type="line"/>
      <point x="135" y="0" type="line"/>
      <point x="253" y="0" type="line"/>
      <point x="339" y="1091" type="line"/>
      <point x="622" y="438" type="line"/>
      <point x="737" y="438" type="line"/>
    </contour>
  </outline>
</glyph>
<glyph name="N" format="1">
  <advance width="1130"/>
  <unicode hex="004E"/>
  <outline>
    <contour>
      <point x="869" y="1284" type="line"/>
      <point x="981" y="1284" type="line"/>
      <point x="981" y="0" type="line"/>
      <point x="854" y="0" type="line"/>
      <point x="262" y="1095" type="line"/>
      <point x="262" y="0" type="line"/>
      <point x="149" y="0" type="line"/>
      <point x="149" y="1284" type="line"/>
      <point x="281" y="1284" type="line"/>
      <point x="869" y="211" type="line"/>
    </contour>
  </outline>
</glyph>
<glyph name="O" format="1">
  <advance width="1160"/>
  <unicode hex="004F"/>
  <outline>
    <contour>
      <point x="580" y="96" type="curve" smooth="yes"/>
      <point x="830" y="96"/>
      <point x="900" y="264"/>
      <point x="900" y="645" type="curve" smooth="yes"/>
      <point x="900" y="1030"/>
      <point x="827" y="1196"/>
      <point x="580" y="1196" type="curve" smooth="yes"/>
      <point x="333" y="1196"/>
      <point x="260" y="1030"/>
      <point x="260" y="645" type="curve" smooth="yes"/>
      <point x="260" y="264"/>
      <point x="330" y="96"/>
    </contour>
    <contour>
      <point x="580" y="1308" type="curve" smooth="yes"/>
      <point x="929" y="1308"/>
      <point x="1028" y="1065"/>
      <point x="1028" y="648" type="curve" smooth="yes"/>
      <point x="1028" y="232"/>
      <point x="941" y="-16"/>
      <point x="580" y="-16" type="curve" smooth="yes"/>
      <point x="219" y="-16"/>
      <point x="132" y="232"/>
      <point x="132" y="648" type="curve" smooth="yes"/>
      <point x="132" y="1065"/>
      <point x="231" y="1308"/>
    </contour>
    <contour>
      <point x="580" y="1284" type="move" name="top"/>
    </contour>
  </outline>
</glyph>
<glyph name="P" format="1">
  <advance width="1044"/>
  <unicode hex="0050"/>
  <outline>
    <contour>
      <point x="917" y="1197"/>
      <point x="757" y="1289"/>
      <point x="498" y="1289" type="curve" smooth="yes"/>
      <point x="461" y="1289"/>
      <point x="421" y="1288"/>
      <point x="380" y="1284" type="curve" smooth="yes"/>
      <point x="149" y="1264" type="line"/>
      <point x="149" y="0" type="line"/>
      <point x="277" y="0" type="line"/>
      <point x="277" y="522" type="line"/>
      <point x="399" y="522" type="line" smooth="yes"/>
      <point x="744" y="522"/>
      <point x="917" y="594"/>
      <point x="917" y="902" type="curve" smooth="yes"/>
    </contour>
    <contour>
      <point x="277" y="622" type="line"/>
      <point x="277" y="1173" type="line"/>
      <point x="402" y="1184" type="line" smooth="yes"/>
      <point x="439" y="1187"/>
      <point x="474" y="1187"/>
      <point x="506" y="1187" type="curve" smooth="yes"/>
      <point x="694" y="1187"/>
      <point x="789" y="1124"/>
      <point x="789" y="900" type="curve" smooth="yes"/>
      <point x="789" y="644"/>
      <point x="666" y="622"/>
      <point x="376" y="622" type="curve" smooth="yes"/>
    </contour>
  </outline>
</glyph>
<glyph name="Q" format="1">
  <advance width="1160"/>
  <unicode hex="0051"/>
  <outline>
    <contour>
      <point x="936" y="-159" type="line"/>
      <point x="1007" y="-104" type="line"/>
      <point x="875" y="80" type="line"/>
      <point x="993" y="188"/>
      <point x="1028" y="384"/>
      <point x="1028" y="648" type="curve" smooth="yes"/>
      <point x="1028" y="1065"/>
      <point x="929" y="1308"/>
      <point x="580" y="1308" type="curve" smooth="yes"/>
      <point x="231" y="1308"/>
      <point x="132" y="1065"/>
      <point x="132" y="648" type="curve" smooth="yes"/>
      <point x="132" y="232"/>
      <point x="219" y="-16"/>
      <point x="580" y="-16" type="curve" smooth="yes"/>
      <point x="670" y="-16"/>
      <point x="742" y="-1"/>
      <point x="801" y="29" type="curve"/>
    </contour>
    <contour>
      <point x="692" y="102"/>
      <point x="641" y="96"/>
      <point x="580" y="96" type="curve" smooth="yes"/>
      <point x="330" y="96"/>
      <point x="260" y="264"/>
      <point x="260" y="645" type="curve" smooth="yes"/>
      <point x="260" y="1030"/>
      <point x="333" y="1196"/>
      <point x="580" y="1196" type="curve" smooth="yes"/>
      <point x="827" y="1196"/>
      <point x="900" y="1030"/>
      <point x="900" y="645" type="curve" smooth="yes"/>
      <point x="900" y="419"/>
      <point x="875" y="267"/>
      <point x="803" y="180" type="curve"/>
      <point x="681" y="351" type="line"/>
      <point x="610" y="295" type="line"/>
      <point x="733" y="124" type="line"/>
    </contour>
  </outline>
</glyph>
<glyph name="R" format="1">
  <advance width="1102"/>
  <unicode hex="0052"/>
  <outline>
    <contour>
      <point x="975" y="41" type="line"/>
      <point x="797" y="293"/>
      <point x="730" y="444"/>
      <point x="669" y="591" type="curve"/>
      <point x="834" y="629"/>
      <point x="917" y="722"/>
      <point x="917" y="922" type="curve" smooth="yes"/>
      <point x="917" y="1238"/>
      <point x="743" y="1284"/>
      <point x="402" y="1284" type="curve" smooth="yes"/>
      <point x="149" y="1284" type="line"/>
      <point x="149" y="0" type="line"/>
      <point x="277" y="0" type="line"/>
      <point x="277" y="567" type="line"/>
      <point x="387" y="567" type="line" smooth="yes"/>
      <point x="444" y="567"/>
      <point x="497" y="569"/>
      <point x="545" y="573" type="curve"/>
      <point x="651" y="321"/>
      <point x="731" y="167"/>
      <point x="868" y="-33" type="curve"/>
    </contour>
    <contour>
      <point x="789" y="920" type="curve" smooth="yes"/>
      <point x="789" y="697"/>
      <point x="689" y="662"/>
      <point x="364" y="662" type="curve" smooth="yes"/>
      <point x="277" y="662" type="line"/>
      <point x="277" y="1180" type="line"/>
      <point x="396" y="1180" type="line" smooth="yes"/>
      <point x="656" y="1180"/>
      <point x="789" y="1166"/>
    </contour>
  </outline>
</glyph>
<glyph name="S" format="1">
  <advance width="1039"/>
  <unicode hex="0053"/>
  <outline>
    <contour>
      <point x="851" y="1132" type="curve"/>
      <point x="874" y="1239" type="line"/>
      <point x="765" y="1284"/>
      <point x="647" y="1308"/>
      <point x="529" y="1308" type="curve" smooth="yes"/>
      <point x="314" y="1308"/>
      <point x="137" y="1213"/>
      <point x="137" y="969" type="curve" smooth="yes"/>
      <point x="137" y="786"/>
      <point x="241" y="701"/>
      <point x="408" y="644" type="curve" smooth="yes"/>
      <point x="526" y="604" type="line" smooth="yes"/>
      <point x="693" y="547"/>
      <point x="777" y="509"/>
      <point x="777" y="336" type="curve" smooth="yes"/>
      <point x="777" y="149"/>
      <point x="649" y="96"/>
      <point x="493" y="96" type="curve" smooth="yes"/>
      <point x="382" y="96"/>
      <point x="257" y="125"/>
      <point x="165" y="173" type="curve"/>
      <point x="137" y="68" type="line"/>
      <point x="243" y="11"/>
      <point x="384" y="-16"/>
      <point x="513" y="-16" type="curve" smooth="yes"/>
      <point x="745" y="-16"/>
      <point x="905" y="97"/>
      <point x="905" y="342" type="curve" smooth="yes"/>
      <point x="905" y="616"/>
      <point x="729" y="665"/>
      <point x="563" y="722" type="curve" smooth="yes"/>
      <point x="449" y="761" type="line" smooth="yes"/>
      <point x="296" y="813"/>
      <point x="265" y="867"/>
      <point x="265" y="972" type="curve" smooth="yes"/>
      <point x="265" y="1143"/>
      <point x="391" y="1196"/>
      <point x="546" y="1196" type="curve" smooth="yes"/>
      <point x="673" y="1196"/>
      <point x="766" y="1164"/>
    </contour>
  </outline>
</glyph>
<glyph name="T" format="1">
  <advance width="969"/>
  <unicode hex="0054"/>
  <outline>
    <contour>
      <point x="74" y="1180" type="line"/>
      <point x="74" y="1284" type="line"/>
      <point x="895" y="1284" type="line"/>
      <point x="895" y="1180" type="line"/>
      <point x="546" y="1180" type="line"/>
      <point x="546" y="0" type="line"/>
      <point x="418" y="0" type="line"/>
      <point x="418" y="1180" type="line"/>
    </contour>
    <contour>
      <point x="484" y="1284" type="move" name="top"/>
    </contour>
    <contour>
      <point x="484" y="0" type="move" name="bottom"/>
    </contour>
    <contour>
      <point x="484" y="642" type="move" name="center"/>
    </contour>
  </outline>
</glyph>
<glyph name="U" format="1">
  <advance width="1114"/>
  <unicode hex="0055"/>
  <outline>
    <contour>
      <point x="557" y="96" type="curve" smooth="yes"/>
      <point x="864" y="96"/>
      <point x="845" y="290"/>
      <point x="845" y="635" type="curve" smooth="yes"/>
      <point x="845" y="1284" type="line"/>
      <point x="973" y="1284" type="line"/>
      <point x="973" y="635" type="line" smooth="yes"/>
      <point x="973" y="224"/>
      <point x="943" y="-16"/>
      <point x="557" y="-16" type="curve" smooth="yes"/>
      <point x="171" y="-16"/>
      <point x="141" y="224"/>
      <point x="141" y="635" type="curve" smooth="yes"/>
      <point x="141" y="1284" type="line"/>
      <point x="269" y="1284" type="line"/>
      <point x="269" y="635" type="line" smooth="yes"/>
      <point x="269" y="290"/>
      <point x="250" y="96"/>
    </contour>
  </outline>
</glyph>
<glyph name="V" format="1">
  <advance width="1072"/>
  <unicode hex="0056"/>
  <outline>
    <contour>
      <point x="220" y="1285" type="curve"/>
      <point x="88" y="1285" type="line"/>
      <point x="457" y="0" type="line"/>
      <point x="615" y="0" type="line"/>
      <point x="984" y="1285" type="line"/>
      <point x="849" y="1285" type="line"/>
      <point x="734" y="838"/>
      <point x="625" y="468"/>
      <point x="536" y="134" type="curve"/>
      <point x="447" y="468"/>
      <point x="335" y="838"/>
    </contour>
  </outline>
</glyph>
<glyph name="W" format="1">
  <advance width="1372"/>
  <unicode hex="0057"/>
  <outline>
    <contour>
      <point x="394" y="178" type="line"/>
      <point x="236" y="1284" type="line"/>
      <point x="110" y="1284" type="line"/>
      <point x="302" y="0" type="line"/>
      <point x="443" y="0" type="line"/>
      <point x="686" y="756" type="line"/>
      <point x="928" y="0" type="line"/>
      <point x="1070" y="0" type="line"/>
      <point x="1262" y="1284" type="line"/>
      <point x="1136" y="1284" type="line"/>
      <point x="986" y="176" type="line"/>
      <point x="743" y="924" type="line"/>
      <point x="628" y="924" type="line"/>
    </contour>
    <contour>
      <point x="687" y="1284" type="move" name="top"/>
    </contour>
  </outline>
</glyph>
<glyph name="X" format="1">
  <advance width="1029"/>
  <unicode hex="0058"/>
  <outline>
    <contour>
      <point x="140" y="1284" type="line"/>
      <point x="444" y="658" type="line"/>
      <point x="125" y="-1" type="line"/>
      <point x="246" y="-1" type="line"/>
      <point x="516" y="566" type="line"/>
      <point x="785" y="-1" type="line"/>
      <point x="912" y="-1" type="line"/>
      <point x="582" y="657" type="line"/>
      <point x="884" y="1284" type="line"/>
      <point x="766" y="1284" type="line"/>
      <point x="516" y="745" type="line"/>
      <point x="264" y="1284" type="line"/>
    </contour>
  </outline>
</glyph>
<glyph name="Y" format="1">
  <advance width="1075"/>
  <unicode hex="0059"/>
  <outline>
    <contour>
      <point x="474" y="586" type="line"/>
      <point x="474" y="0" type="line"/>
      <point x="602" y="0" type="line"/>
      <point x="602" y="588" type="line"/>
      <point x="986" y="1284" type="line"/>
      <point x="840" y="1284" type="line"/>
      <point x="538" y="711" type="line"/>
      <point x="232" y="1284" type="line"/>
      <point x="90" y="1284" type="line"/>
    </contour>
  </outline>
</glyph>
<glyph name="Z" format="1">
  <advance width="1022"/>
  <unicode hex="005A"/>
  <outline>
    <contour>
      <point x="897" y="104" type="line"/>
      <point x="288" y="104" type="line"/>
      <point x="866" y="1176" type="line"/>
      <point x="850" y="1284" type="line"/>
      <point x="160" y="1284" type="line"/>
      <point x="160" y="1180" type="line"/>
      <point x="719" y="1180" type="line"/>
      <point x="129" y="98" type="line"/>
      <point x="150" y="0" type="line"/>
      <point x="897" y="0" type="line"/>
    </contour>
  </outline>
</glyph>
<glyph name="bracketright" format="1">
  <advance width="610"/>
  <unicode hex="005D"/>
  <outline>
    <contour>
      <point x="88" y="1487" type="line"/>
      <point x="88" y="1591" type="line"/>
      <point x="459" y="1591" type="line"/>
      <point x="459" y="-287" type="line"/>
      <point x="88" y="-287" type="line"/>
      <point x="88" y="-184" type="line"/>
      <point x="346" y="-184" type="line"/>
      <point x="346" y="137" type="line"/>
      <point x="346" y="1178" type="line"/>
      <point x="346" y="1487" type="line"/>
    </contour>
  </outline>
</glyph>
<glyph name="underscore" format="1">
  <advance width="1066"/>
  <unicode hex="005F"/>
  <outline>
    <contour>
      <point x="100" y="-219" type="line"/>
      <point x="100" y="-125" type="line"/>
      <point x="968" y="-125" type="line"/>
      <point x="968" y="-219" type="line"/>
    </contour>
  </outline>
</glyph>
<glyph name="a" format="1">
  <advance width="981"/>
  <unicode hex="0061"/>
  <outline>
    <contour>
      <point x="202" y="951" type="curve"/>
      <point x="224" y="845" type="line"/>
      <point x="325" y="876"/>
      <point x="419" y="893"/>
      <point x="484" y="893" type="curve" smooth="yes"/>
      <point x="646" y="893"/>
      <point x="698" y="828"/>
      <point x="698" y="567" type="curve"/>
      <point x="652" y="567"/>
      <point x="635" y="567"/>
      <point x="610" y="567" type="curve" smooth="yes"/>
      <point x="236" y="567"/>
      <point x="122" y="429"/>
      <point x="122" y="284" type="curve" smooth="yes"/>
      <point x="122" y="85"/>
      <point x="254" y="-16"/>
      <point x="438" y="-16" type="curve" smooth="yes"/>
      <point x="545" y="-16"/>
      <point x="666" y="25"/>
      <point x="711" y="61" type="curve"/>
      <point x="731" y="-5" type="line"/>
      <point x="826" y="2" type="line"/>
      <point x="825" y="2"/>
      <point x="826" y="172"/>
      <point x="826" y="209" type="curve" smooth="yes"/>
      <point x="826" y="623" type="line" smooth="yes"/>
      <point x="826" y="917"/>
      <point x="684" y="1000"/>
      <point x="509" y="1000" type="curve" smooth="yes"/>
      <point x="441" y="1000"/>
      <point x="309" y="985"/>
    </contour>
    <contour>
      <point x="242" y="278" type="curve" smooth="yes"/>
      <point x="242" y="455"/>
      <point x="475" y="473"/>
      <point x="642" y="473" type="curve" smooth="yes"/>
      <point x="662" y="473"/>
      <point x="676" y="473"/>
      <point x="698" y="473" type="curve"/>
      <point x="698" y="151" type="line"/>
      <point x="643" y="115"/>
      <point x="546" y="91"/>
      <point x="458" y="91" type="curve" smooth="yes"/>
      <point x="318" y="91"/>
      <point x="242" y="153"/>
    </contour>
  </outline>
</glyph>
<glyph name="b" format="1">
  <advance width="984"/>
  <unicode hex="0062"/>
  <outline>
    <contour>
      <point x="268" y="137" type="curve"/>
      <point x="268" y="809" type="line"/>
      <point x="377" y="872"/>
      <point x="456" y="893"/>
      <point x="524" y="893" type="curve" smooth="yes"/>
      <point x="681" y="893"/>
      <point x="748" y="767"/>
      <point x="748" y="491" type="curve" smooth="yes"/>
      <point x="748" y="206"/>
      <point x="672" y="91"/>
      <point x="492" y="91" type="curve" smooth="yes"/>
      <point x="429" y="91"/>
      <point x="364" y="92"/>
    </contour>
    <contour>
      <point x="268" y="1358" type="line"/>
      <point x="140" y="1358" type="line"/>
      <point x="140" y="-2" type="line"/>
      <point x="244" y="-10" type="line"/>
      <point x="254" y="50" type="line"/>
      <point x="336" y="6"/>
      <point x="435" y="-16"/>
      <point x="510" y="-16" type="curve" smooth="yes"/>
      <point x="747" y="-16"/>
      <point x="876" y="126"/>
      <point x="876" y="493" type="curve" smooth="yes"/>
      <point x="876" y="852"/>
      <point x="740" y="1000"/>
      <point x="540" y="1000" type="curve" smooth="yes"/>
      <point x="456" y="1000"/>
      <point x="370" y="986"/>
      <point x="268" y="923" type="curve"/>
    </contour>
  </outline>
</glyph>
<glyph name="c" format="1">
  <advance width="864"/>
  <unicode hex="0063"/>
  <outline>
    <contour>
      <point x="489" y="91" type="curve" smooth="yes"/>
      <point x="491" y="91" type="line" smooth="yes"/>
      <point x="286" y="91"/>
      <point x="236" y="254"/>
      <point x="236" y="494" type="curve" smooth="yes"/>
      <point x="236" y="733"/>
      <point x="290" y="893"/>
      <point x="492" y="893" type="curve" smooth="yes"/>
      <point x="549" y="893"/>
      <point x="603" y="882"/>
      <point x="654" y="862" type="curve"/>
      <point x="654" y="672" type="line"/>
      <point x="759" y="682" type="line"/>
      <point x="759" y="940" type="line"/>
      <point x="674" y="980"/>
      <point x="587" y="1000"/>
      <point x="496" y="1000" type="curve" smooth="yes"/>
      <point x="237" y="1000"/>
      <point x="108" y="832"/>
      <point x="108" y="496" type="curve" smooth="yes"/>
      <point x="108" y="151"/>
      <point x="232" y="-16"/>
      <point x="492" y="-16" type="curve" smooth="yes"/>
      <point x="621" y="-16"/>
      <point x="747" y="42"/>
      <point x="792" y="102" type="curve"/>
      <point x="738" y="191" type="line"/>
      <point x="702" y="160"/>
      <point x="598" y="91"/>
    </contour>
    <contour>
      <point x="452" y="985" type="move" name="top"/>
    </contour>
    <contour>
      <point x="452" y="0" type="move" name="bottom"/>
    </contour>
  </outline>
</glyph>
<glyph name="d" format="1">
  <advance width="1010"/>
  <unicode hex="0064"/>
  <outline>
    <contour>
      <point x="742" y="137" type="curve"/>
      <point x="742" y="809" type="line"/>
      <point x="633" y="872"/>
      <point x="568" y="893"/>
      <point x="500" y="893" type="curve" smooth="yes"/>
      <point x="343" y="893"/>
      <point x="236" y="767"/>
      <point x="236" y="491" type="curve" smooth="yes"/>
      <point x="236" y="206"/>
      <point x="352" y="91"/>
      <point x="532" y="91" type="curve" smooth="yes"/>
      <point x="595" y="91"/>
      <point x="646" y="92"/>
    </contour>
    <contour>
      <point x="742" y="1358" type="line"/>
      <point x="870" y="1358" type="line"/>
      <point x="870" y="-2" type="line"/>
      <point x="766" y="-10" type="line"/>
      <point x="756" y="50" type="line"/>
      <point x="674" y="6"/>
      <point x="589" y="-16"/>
      <point x="514" y="-16" type="curve" smooth="yes"/>
      <point x="277" y="-16"/>
      <point x="108" y="126"/>
      <point x="108" y="493" type="curve" smooth="yes"/>
      <point x="108" y="852"/>
      <point x="284" y="1000"/>
      <point x="484" y="1000" type="curve" smooth="yes"/>
      <point x="568" y="1000"/>
      <point x="640" y="986"/>
      <point x="742" y="923" type="curve"/>
    </contour>
    <contour>
      <point x="515" y="493" type="move" name="center"/>
    </contour>
  </outline>
</glyph>
<glyph name="e" format="1">
  <advance width="996"/>
  <unicode hex="0065"/>
  <outline>
    <contour>
      <point x="821" y="170" type="curve"/>
      <point x="860" y="69" type="line"/>
      <point x="764" y="10"/>
      <point x="639" y="-16"/>
      <point x="544" y="-16" type="curve" smooth="yes"/>
      <point x="267" y="-16"/>
      <point x="124" y="134"/>
      <point x="124" y="496" type="curve" smooth="yes"/>
      <point x="124" y="857"/>
      <point x="295" y="1000"/>
      <point x="528" y="1000" type="curve" smooth="yes"/>
      <point x="750" y="1000"/>
      <point x="878" y="841"/>
      <point x="878" y="604" type="curve" smooth="yes"/>
      <point x="878" y="574"/>
      <point x="875" y="525"/>
      <point x="870" y="466" type="curve"/>
      <point x="252" y="466" type="line"/>
      <point x="256" y="138"/>
      <point x="403" y="82"/>
      <point x="561" y="91" type="curve" smooth="yes"/>
      <point x="640" y="95"/>
      <point x="738" y="117"/>
    </contour>
    <contour>
      <point x="524" y="893" type="curve" smooth="yes"/>
      <point x="351" y="893"/>
      <point x="267" y="765"/>
      <point x="252" y="558" type="curve"/>
      <point x="759" y="558" type="line"/>
      <point x="759" y="609" type="line" smooth="yes"/>
      <point x="759" y="783"/>
      <point x="669" y="893"/>
    </contour>
  </outline>
</glyph>
<glyph name="f" format="1">
  <advance width="848"/>
  <unicode hex="0066"/>
  <outline>
    <contour>
      <point x="305" y="0" type="line"/>
      <point x="305" y="889" type="line"/>
      <point x="113" y="889" type="line"/>
      <point x="113" y="985" type="line"/>
      <point x="305" y="985" type="line"/>
      <point x="305" y="1271"/>
      <point x="351" y="1387"/>
      <point x="564" y="1394" type="curve"/>
      <point x="620" y="1394"/>
      <point x="682" y="1382"/>
      <point x="749" y="1359" type="curve"/>
      <point x="729" y="1261" type="line"/>
      <point x="668" y="1280"/>
      <point x="617" y="1289"/>
      <point x="579" y="1289" type="curve" smooth="yes"/>
      <point x="463" y="1289"/>
      <point x="433" y="1250"/>
      <point x="433" y="985" type="curve"/>
      <point x="657" y="985" type="line"/>
      <point x="657" y="889" type="line"/>
      <point x="433" y="889" type="line"/>
      <point x="433" y="0" type="line"/>
    </contour>
  </outline>
</glyph>
<glyph name="g" format="1">
  <advance width="1184"/>
  <unicode hex="0067"/>
  <outline>
    <contour>
      <point x="611" y="905" type="curve" smooth="yes"/>
      <point x="786" y="905"/>
      <point x="839" y="810"/>
      <point x="839" y="688" type="curve" smooth="yes"/>
      <point x="839" y="543"/>
      <point x="770" y="461"/>
      <point x="601" y="461" type="curve" smooth="yes"/>
      <point x="442" y="461"/>
      <point x="344" y="539"/>
      <point x="344" y="689" type="curve" smooth="yes"/>
      <point x="344" y="811"/>
      <point x="417" y="905"/>
    </contour>
    <contour>
      <point x="1031" y="-10" type="curve" smooth="yes"/>
      <point x="1031" y="128"/>
      <point x="966" y="197"/>
      <point x="748" y="197" type="curve" smooth="yes"/>
      <point x="369" y="197" type="line"/>
      <point x="369" y="197"/>
      <point x="338" y="221"/>
      <point x="338" y="275" type="curve" smooth="yes"/>
      <point x="338" y="317"/>
      <point x="372" y="353"/>
      <point x="404" y="400" type="curve"/>
      <point x="464" y="376"/>
      <point x="545" y="367"/>
      <point x="612" y="367" type="curve" smooth="yes"/>
      <point x="838" y="367"/>
      <point x="976" y="490"/>
      <point x="967" y="693" type="curve" smooth="yes"/>
      <point x="964" y="750"/>
      <point x="937" y="834"/>
      <point x="872" y="883" type="curve"/>
      <point x="1095" y="883" type="line"/>
      <point x="1095" y="977" type="line"/>
      <point x="808" y="977" type="line" smooth="yes"/>
      <point x="772" y="977"/>
      <point x="744" y="982"/>
      <point x="708" y="988" type="curve" smooth="yes"/>
      <point x="672" y="994"/>
      <point x="663" y="1000"/>
      <point x="605" y="1000" type="curve" smooth="yes"/>
      <point x="391" y="1000"/>
      <point x="216" y="909"/>
      <point x="216" y="688" type="curve" smooth="yes"/>
      <point x="216" y="583"/>
      <point x="266" y="505"/>
      <point x="327" y="451" type="curve"/>
      <point x="255" y="356"/>
      <point x="220" y="325"/>
      <point x="224" y="246" type="curve" smooth="yes"/>
      <point x="226" y="206"/>
      <point x="254" y="155"/>
      <point x="295" y="128" type="curve"/>
      <point x="255" y="105"/>
      <point x="184" y="21"/>
      <point x="184" y="-62" type="curve" smooth="yes"/>
      <point x="184" y="-153"/>
      <point x="248" y="-309"/>
      <point x="581" y="-309" type="curve" smooth="yes"/>
      <point x="935" y="-309"/>
      <point x="1031" y="-137"/>
    </contour>
    <contour>
      <point x="587" y="-204" type="curve" smooth="yes"/>
      <point x="324" y="-204"/>
      <point x="312" y="-114"/>
      <point x="312" y="-48" type="curve" smooth="yes"/>
      <point x="312" y="13"/>
      <point x="346" y="57"/>
      <point x="385" y="94" type="curve"/>
      <point x="756" y="94" type="line" smooth="yes"/>
      <point x="883" y="94"/>
      <point x="903" y="49"/>
      <point x="903" y="-18" type="curve" smooth="yes"/>
      <point x="903" y="-108"/>
      <point x="819" y="-204"/>
    </contour>
  </outline>
</glyph>
<glyph name="h" format="1">
  <advance width="998"/>
  <unicode hex="0068"/>
  <outline>
    <contour>
      <point x="279" y="800" type="curve"/>
      <point x="279" y="0" type="line"/>
      <point x="151" y="0" type="line"/>
      <point x="151" y="1308" type="line"/>
      <point x="279" y="1308" type="line"/>
      <point x="279" y="911" type="line"/>
      <point x="386" y="970"/>
      <point x="483" y="1000"/>
      <point x="578" y="1000" type="curve" smooth="yes"/>
      <point x="764" y="1000"/>
      <point x="855" y="900"/>
      <point x="855" y="663" type="curve" smooth="yes"/>
      <point x="855" y="0" type="line"/>
      <point x="727" y="0" type="line"/>
      <point x="727" y="669" type="line" smooth="yes"/>
      <point x="727" y="826"/>
      <point x="689" y="893"/>
      <point x="570" y="893" type="curve" smooth="yes"/>
      <point x="499" y="893"/>
      <point x="409" y="870"/>
    </contour>
  </outline>
</glyph>
<glyph name="i" format="1">
  <advance width="673"/>
  <unicode hex="0069"/>
  <outline>
    <contour>
      <point x="111" y="889" type="line"/>
      <point x="303" y="889" type="line"/>
      <point x="303" y="96" type="line"/>
      <point x="111" y="96" type="line"/>
      <point x="111" y="0" type="line"/>
      <point x="623" y="0" type="line"/>
      <point x="623" y="96" type="line"/>
      <point x="431" y="96" type="line"/>
      <point x="431" y="985" type="line"/>
      <point x="111" y="985" type="line"/>
    </contour>
    <contour>
      <point x="276" y="1264" type="curve" smooth="yes"/>
      <point x="276" y="1208"/>
      <point x="316" y="1176"/>
      <point x="367" y="1176" type="curve" smooth="yes"/>
      <point x="420" y="1176"/>
      <point x="457" y="1206"/>
      <point x="457" y="1266" type="curve" smooth="yes"/>
      <point x="457" y="1326"/>
      <point x="420" y="1356"/>
      <point x="367" y="1356" type="curve" smooth="yes"/>
      <point x="316" y="1356"/>
      <point x="276" y="1321"/>
    </contour>
  </outline>
</glyph>
<glyph name="j" format="1">
  <advance width="668"/>
  <unicode hex="006A"/>
  <outline>
    <contour>
      <point x="350" y="1264" type="curve" smooth="yes"/>
      <point x="350" y="1208"/>
      <point x="390" y="1176"/>
      <point x="441" y="1176" type="curve" smooth="yes"/>
      <point x="494" y="1176"/>
      <point x="531" y="1206"/>
      <point x="531" y="1266" type="curve" smooth="yes"/>
      <point x="531" y="1326"/>
      <point x="494" y="1356"/>
      <point x="441" y="1356" type="curve" smooth="yes"/>
      <point x="390" y="1356"/>
      <point x="350" y="1321"/>
    </contour>
    <contour>
      <point x="242" y="-182" type="curve" smooth="yes"/>
      <point x="179" y="-182"/>
      <point x="139" y="-177"/>
      <point x="94" y="-166" type="curve"/>
      <point x="78" y="-275" type="line"/>
      <point x="133" y="-291"/>
      <point x="189" y="-295"/>
      <point x="246" y="-295" type="curve" smooth="yes"/>
      <point x="418" y="-295"/>
      <point x="507" y="-203"/>
      <point x="507" y="18" type="curve" smooth="yes"/>
      <point x="507" y="985" type="line"/>
      <point x="155" y="985" type="line"/>
      <point x="155" y="889" type="line"/>
      <point x="379" y="889" type="line"/>
      <point x="379" y="28" type="line" smooth="yes"/>
      <point x="379" y="-123"/>
      <point x="355" y="-182"/>
    </contour>
  </outline>
</glyph>
<glyph name="k" format="1">
  <advance width="937"/>
  <unicode hex="006B"/>
  <outline>
    <contour>
      <point x="140" y="0" type="line"/>
      <point x="268" y="0" type="line"/>
      <point x="268" y="377" type="line"/>
      <point x="359" y="458" type="line"/>
      <point x="385" y="429" type="line"/>
      <point x="385" y="429"/>
      <point x="567" y="216"/>
      <point x="760" y="0" type="curve"/>
      <point x="921" y="0" type="line"/>
      <point x="457" y="517" type="line"/>
      <point x="885" y="985" type="line"/>
      <point x="719" y="985" type="line"/>
      <point x="520" y="760"/>
      <point x="370" y="603"/>
      <point x="268" y="494" type="curve"/>
      <point x="268" y="1358" type="line"/>
      <point x="140" y="1358" type="line"/>
    </contour>
    <contour>
      <point x="507" y="0" type="move" name="bottom"/>
    </contour>
  </outline>
</glyph>
<glyph name="l" format="1">
  <advance width="682"/>
  <unicode hex="006C"/>
  <outline>
    <contour>
      <point x="101" y="1358" type="line"/>
      <point x="101" y="1260" type="line"/>
      <point x="293" y="1260" type="line"/>
      <point x="293" y="96" type="line"/>
      <point x="88" y="96" type="line"/>
      <point x="88" y="0" type="line"/>
      <point x="613" y="0" type="line"/>
      <point x="613" y="96" type="line"/>
      <point x="421" y="96" type="line"/>
      <point x="421" y="1358" type="line"/>
    </contour>
    <contour>
      <point x="355" y="985" type="move" name="top"/>
    </contour>
    <contour>
      <point x="355" y="0" type="move" name="bottom"/>
    </contour>
    <contour>
      <point x="685" y="985" type="move" name="topright"/>
    </contour>
  </outline>
</glyph>
<glyph name="m" format="1">
  <advance width="1484"/>
  <unicode hex="006D"/>
  <outline>
    <contour>
      <point x="1063" y="1000" type="curve" smooth="yes"/>
      <point x="1248" y="1000"/>
      <point x="1356" y="894"/>
      <point x="1356" y="671" type="curve" smooth="yes"/>
      <point x="1356" y="0" type="line"/>
      <point x="1228" y="0" type="line"/>
      <point x="1228" y="672" type="line" smooth="yes"/>
      <point x="1228" y="827"/>
      <point x="1160" y="893"/>
      <point x="1057" y="893" type="curve" smooth="yes"/>
      <point x="1008" y="893"/>
      <point x="897" y="891"/>
      <point x="800" y="830" type="curve"/>
      <point x="802" y="820"/>
      <point x="812" y="728"/>
      <point x="812" y="664" type="curve" smooth="yes"/>
      <point x="812" y="0" type="line"/>
      <point x="684" y="0" type="line"/>
      <point x="684" y="668" type="line" smooth="yes"/>
      <point x="684" y="826"/>
      <point x="645" y="893"/>
      <point x="546" y="893" type="curve" smooth="yes"/>
      <point x="491" y="893"/>
      <point x="365" y="880"/>
      <point x="268" y="823" type="curve"/>
      <point x="268" y="0" type="line"/>
      <point x="140" y="0" type="line"/>
      <point x="140" y="985" type="line"/>
      <point x="258" y="985" type="line"/>
      <point x="263" y="928" type="line"/>
      <point x="358" y="984"/>
      <point x="472" y="1000"/>
      <point x="553" y="1000" type="curve" smooth="yes"/>
      <point x="640" y="1000"/>
      <point x="713" y="978"/>
      <point x="753" y="918" type="curve"/>
      <point x="853" y="991"/>
      <point x="982" y="1000"/>
    </contour>
  </outline>
</glyph>
<glyph name="n" format="1">
  <advance width="1030"/>
  <unicode hex="006E"/>
  <outline>
    <contour>
      <point x="279" y="822" type="curve"/>
      <point x="279" y="0" type="line"/>
      <point x="151" y="0" type="line"/>
      <point x="151" y="985" type="line"/>
      <point x="256" y="985" type="line"/>
      <point x="265" y="921" type="line"/>
      <point x="400" y="985"/>
      <point x="488" y="1000"/>
      <point x="585" y="1000" type="curve" smooth="yes"/>
      <point x="788" y="1000"/>
      <point x="887" y="891"/>
      <point x="887" y="663" type="curve" smooth="yes"/>
      <point x="887" y="0" type="line"/>
      <point x="759" y="0" type="line"/>
      <point x="759" y="668" type="line" smooth="yes"/>
      <point x="759" y="825"/>
      <point x="708" y="893"/>
      <point x="572" y="893" type="curve" smooth="yes"/>
      <point x="498" y="893"/>
      <point x="399" y="888"/>
    </contour>
  </outline>
</glyph>
<glyph name="o" format="1">
  <advance width="984"/>
  <unicode hex="006F"/>
  <outline>
    <contour>
      <point x="492" y="893" type="curve" smooth="yes"/>
      <point x="295" y="893"/>
      <point x="236" y="727"/>
      <point x="236" y="492" type="curve" smooth="yes"/>
      <point x="236" y="254"/>
      <point x="292" y="91"/>
      <point x="492" y="91" type="curve" smooth="yes"/>
      <point x="692" y="91"/>
      <point x="748" y="254"/>
      <point x="748" y="492" type="curve" smooth="yes"/>
      <point x="748" y="727"/>
      <point x="689" y="893"/>
    </contour>
    <contour>
      <point x="492" y="-16" type="curve" smooth="yes"/>
      <point x="225" y="-16"/>
      <point x="108" y="179"/>
      <point x="108" y="492" type="curve" smooth="yes"/>
      <point x="108" y="823"/>
      <point x="223" y="1000"/>
      <point x="492" y="1000" type="curve" smooth="yes"/>
      <point x="761" y="1000"/>
      <point x="876" y="823"/>
      <point x="876" y="492" type="curve" smooth="yes"/>
      <point x="876" y="179"/>
      <point x="759" y="-16"/>
    </contour>
    <contour>
      <point x="492" y="985" type="move" name="top"/>
    </contour>
  </outline>
</glyph>
<glyph name="p" format="1">
  <advance width="982"/>
  <unicode hex="0070"/>
  <outline>
    <contour>
      <point x="268" y="809" type="curve"/>
      <point x="268" y="137" type="line"/>
      <point x="364" y="92"/>
      <point x="429" y="91"/>
      <point x="492" y="91" type="curve" smooth="yes"/>
      <point x="672" y="91"/>
      <point x="748" y="206"/>
      <point x="748" y="491" type="curve" smooth="yes"/>
      <point x="748" y="767"/>
      <point x="681" y="893"/>
      <point x="524" y="893" type="curve" smooth="yes"/>
      <point x="456" y="893"/>
      <point x="377" y="872"/>
    </contour>
    <contour>
      <point x="268" y="43" type="curve"/>
      <point x="268" y="-389" type="line"/>
      <point x="140" y="-389" type="line"/>
      <point x="140" y="986" type="line"/>
      <point x="244" y="994" type="line"/>
      <point x="257" y="916" type="line"/>
      <point x="363" y="985"/>
      <point x="457" y="1000"/>
      <point x="540" y="1000" type="curve" smooth="yes"/>
      <point x="740" y="1000"/>
      <point x="876" y="852"/>
      <point x="876" y="493" type="curve" smooth="yes"/>
      <point x="876" y="126"/>
      <point x="747" y="-16"/>
      <point x="510" y="-16" type="curve" smooth="yes"/>
      <point x="439" y="-16"/>
      <point x="347" y="4"/>
    </contour>
  </outline>
</glyph>
<glyph name="q" format="1">
  <advance width="1008"/>
  <unicode hex="0071"/>
  <outline>
    <contour>
      <point x="732" y="42" type="curve"/>
      <point x="732" y="-389" type="line"/>
      <point x="860" y="-389" type="line"/>
      <point x="860" y="986" type="line"/>
      <point x="756" y="994" type="line"/>
      <point x="732" y="921" type="line"/>
      <point x="732" y="923" type="line"/>
      <point x="630" y="986"/>
      <point x="562" y="1000"/>
      <point x="478" y="1000" type="curve" smooth="yes"/>
      <point x="273" y="1000"/>
      <point x="124" y="866"/>
      <point x="124" y="493" type="curve" smooth="yes"/>
      <point x="124" y="126"/>
      <point x="260" y="-16"/>
      <point x="497" y="-16" type="curve" smooth="yes"/>
      <point x="567" y="-16"/>
      <point x="658" y="0"/>
    </contour>
    <contour>
      <point x="503" y="91" type="curve" smooth="yes"/>
      <point x="323" y="91"/>
      <point x="252" y="206"/>
      <point x="252" y="491" type="curve" smooth="yes"/>
      <point x="252" y="767"/>
      <point x="333" y="893"/>
      <point x="490" y="893" type="curve" smooth="yes"/>
      <point x="558" y="893"/>
      <point x="623" y="884"/>
      <point x="732" y="821" type="curve"/>
      <point x="732" y="137" type="line"/>
      <point x="644" y="97"/>
      <point x="566" y="91"/>
    </contour>
  </outline>
</glyph>
<glyph name="r" format="1">
  <advance width="675"/>
  <unicode hex="0072"/>
  <outline>
    <contour>
      <point x="278" y="899" type="curve"/>
      <point x="273" y="985" type="line"/>
      <point x="151" y="985" type="line"/>
      <point x="151" y="0" type="line"/>
      <point x="279" y="0" type="line"/>
      <point x="279" y="804" type="line"/>
      <point x="334" y="849"/>
      <point x="449" y="893"/>
      <point x="557" y="893" type="curve"/>
      <point x="557" y="1000" type="line"/>
      <point x="467" y="996"/>
      <point x="347" y="952"/>
    </contour>
  </outline>
</glyph>
<glyph name="s" format="1">
  <advance width="886"/>
  <unicode hex="0073"/>
  <outline>
    <contour>
      <point x="454" y="91" type="curve" smooth="yes"/>
      <point x="344" y="91"/>
      <point x="257" y="114"/>
      <point x="192" y="142" type="curve"/>
      <point x="170" y="39" type="line"/>
      <point x="250" y="2"/>
      <point x="356" y="-16"/>
      <point x="448" y="-16" type="curve" smooth="yes"/>
      <point x="623" y="-16"/>
      <point x="762" y="72"/>
      <point x="762" y="273" type="curve" smooth="yes"/>
      <point x="762" y="434"/>
      <point x="700" y="491"/>
      <point x="547" y="540" type="curve" smooth="yes"/>
      <point x="400" y="587" type="line" smooth="yes"/>
      <point x="300" y="619"/>
      <point x="254" y="648"/>
      <point x="254" y="743" type="curve" smooth="yes"/>
      <point x="254" y="855"/>
      <point x="349" y="893"/>
      <point x="470" y="893" type="curve" smooth="yes"/>
      <point x="551" y="893"/>
      <point x="631" y="874"/>
      <point x="685" y="845" type="curve"/>
      <point x="709" y="947" type="line"/>
      <point x="628" y="984"/>
      <point x="542" y="1000"/>
      <point x="451" y="1000" type="curve" smooth="yes"/>
      <point x="284" y="1000"/>
      <point x="129" y="919"/>
      <point x="129" y="752" type="curve" smooth="yes"/>
      <point x="129" y="571"/>
      <point x="212" y="519"/>
      <point x="362" y="472" type="curve" smooth="yes"/>
      <point x="512" y="425" type="line" smooth="yes"/>
      <point x="593" y="400"/>
      <point x="640" y="360"/>
      <point x="640" y="261" type="curve" smooth="yes"/>
      <point x="640" y="151"/>
      <point x="575" y="91"/>
    </contour>
  </outline>
</glyph>
<glyph name="t" format="1">
  <advance width="742"/>
  <unicode hex="0074"/>
  <outline>
    <contour>
      <point x="472" y="-17" type="curve"/>
      <point x="258" y="-11"/>
      <point x="209" y="119"/>
      <point x="209" y="388" type="curve" smooth="yes"/>
      <point x="209" y="889" type="line"/>
      <point x="56" y="889" type="line"/>
      <point x="56" y="985" type="line"/>
      <point x="213" y="985" type="line"/>
      <point x="238" y="1267" type="line"/>
      <point x="337" y="1267" type="line"/>
      <point x="337" y="985" type="line"/>
      <point x="645" y="985" type="line"/>
      <point x="645" y="889" type="line"/>
      <point x="337" y="889" type="line"/>
      <point x="337" y="386" type="line" smooth="yes"/>
      <point x="337" y="123"/>
      <point x="400" y="92"/>
      <point x="506" y="92" type="curve" smooth="yes"/>
      <point x="568" y="92"/>
      <point x="629" y="99"/>
      <point x="656" y="103" type="curve"/>
      <point x="661" y="-3" type="line"/>
      <point x="593" y="-12"/>
      <point x="533" y="-17"/>
    </contour>
    <contour>
      <point x="375" y="493" type="move" name="center"/>
    </contour>
    <contour>
      <point x="375" y="0" type="move" name="bottom"/>
    </contour>
  </outline>
</glyph>
<glyph name="u" format="1">
  <advance width="986"/>
  <unicode hex="0075"/>
  <outline>
    <contour>
      <point x="717" y="163" type="curve"/>
      <point x="717" y="985" type="line"/>
      <point x="845" y="985" type="line"/>
      <point x="845" y="0" type="line"/>
      <point x="740" y="0" type="line"/>
      <point x="731" y="64" type="line"/>
      <point x="596" y="0"/>
      <point x="519" y="-16"/>
      <point x="422" y="-16" type="curve" smooth="yes"/>
      <point x="219" y="-16"/>
      <point x="128" y="93"/>
      <point x="128" y="321" type="curve" smooth="yes"/>
      <point x="128" y="985" type="line"/>
      <point x="256" y="985" type="line"/>
      <point x="256" y="316" type="line" smooth="yes"/>
      <point x="256" y="159"/>
      <point x="299" y="91"/>
      <point x="435" y="91" type="curve" smooth="yes"/>
      <point x="509" y="91"/>
      <point x="597" y="97"/>
    </contour>
    <contour>
      <point x="481" y="0" type="move" name="top"/>
    </contour>
    <contour>
      <point x="481" y="985" type="move" name="bottom"/>
    </contour>
  </outline>
</glyph>
<glyph name="v" format="1">
  <advance width="943"/>
  <unicode hex="0076"/>
  <outline>
    <contour>
      <point x="476" y="148" type="line"/>
      <point x="725" y="985" type="line"/>
      <point x="861" y="985" type="line"/>
      <point x="545" y="0" type="line"/>
      <point x="408" y="0" type="line"/>
      <point x="82" y="985" type="line"/>
      <point x="217" y="985" type="line"/>
    </contour>
  </outline>
</glyph>
<glyph name="w" format="1">
  <advance width="1298"/>
  <unicode hex="0077"/>
  <outline>
    <contour>
      <point x="716" y="763" type="line"/>
      <point x="930" y="85" type="line"/>
      <point x="1108" y="985" type="line"/>
      <point x="1233" y="985" type="line"/>
      <point x="1017" y="0" type="line"/>
      <point x="847" y="0" type="line"/>
      <point x="657" y="627" type="line"/>
      <point x="454" y="0" type="line"/>
      <point x="284" y="0" type="line"/>
      <point x="65" y="985" type="line"/>
      <point x="190" y="985" type="line"/>
      <point x="378" y="85" type="line"/>
      <point x="598" y="763" type="line"/>
    </contour>
    <contour>
      <point x="649" y="985" type="move" name="top"/>
    </contour>
  </outline>
</glyph>
<glyph name="x" format="1">
  <advance width="929"/>
  <unicode hex="0078"/>
  <outline>
    <contour>
      <point x="710" y="0" type="line"/>
      <point x="474" y="408" type="line"/>
      <point x="234" y="0" type="line"/>
      <point x="104" y="0" type="line"/>
      <point x="401" y="504" type="line"/>
      <point x="116" y="985" type="line"/>
      <point x="242" y="985" type="line"/>
      <point x="473" y="593" type="line"/>
      <point x="685" y="985" type="line"/>
      <point x="813" y="985" type="line"/>
      <point x="547" y="503" type="line"/>
      <point x="832" y="0" type="line"/>
    </contour>
  </outline>
</glyph>
<glyph name="y" format="1">
  <advance width="983"/>
  <unicode hex="0079"/>
  <outline>
    <contour>
      <point x="295" y="-390" type="curve" smooth="yes"/>
      <point x="442" y="-390"/>
      <point x="496" y="-254"/>
      <point x="578" y="-16" type="curve" smooth="yes"/>
      <point x="924" y="985" type="line"/>
      <point x="788" y="985" type="line"/>
      <point x="526" y="187" type="line"/>
      <point x="526" y="187"/>
      <point x="213" y="948"/>
      <point x="199" y="985" type="curve"/>
      <point x="62" y="985" type="line"/>
      <point x="467" y="26" type="line"/>
      <point x="440" y="-55" type="line" smooth="yes"/>
      <point x="402" y="-169"/>
      <point x="377" y="-279"/>
      <point x="286" y="-279" type="curve" smooth="yes"/>
      <point x="256" y="-279"/>
      <point x="211" y="-270"/>
      <point x="151" y="-252" type="curve"/>
      <point x="150" y="-253" type="line"/>
      <point x="130" y="-355" type="line"/>
      <point x="190" y="-378"/>
      <point x="244" y="-390"/>
    </contour>
    <contour>
      <point x="489" y="985" type="move" name="top"/>
    </contour>
  </outline>
</glyph>
<glyph name="z" format="1">
  <advance width="799"/>
  <unicode hex="007A"/>
  <outline>
    <contour>
      <point x="571" y="889" type="line"/>
      <point x="130" y="889" type="line"/>
      <point x="130" y="985" type="line"/>
      <point x="700" y="985" type="line"/>
      <point x="710" y="900" type="line"/>
      <point x="260" y="96" type="line"/>
      <point x="725" y="96" type="line"/>
      <point x="725" y="0" type="line"/>
      <point x="133" y="0" type="line"/>
      <point x="119" y="102" type="line"/>
    </contour>
    <contour>
      <point x="420" y="985" type="move" name="top"/>
    </contour>
  </outline>
</glyph>
<glyph name="braceleft" format="1">
  <advance width="691"/>
  <unicode hex="007B"/>
  <outline>
    <contour>
      <point x="272" y="1038" type="curve"/>
      <point x="272" y="1037" type="line" smooth="yes"/>
      <point x="272" y="938"/>
      <point x="270" y="860"/>
      <point x="266" y="801" type="curve"/>
      <point x="206" y="762"/>
      <point x="157" y="732"/>
      <point x="120" y="712" type="curve"/>
      <point x="120" y="603" type="line"/>
      <point x="187" y="564"/>
      <point x="236" y="535"/>
      <point x="266" y="514" type="curve"/>
      <point x="269" y="455"/>
      <point x="271" y="379"/>
      <point x="271" y="285" type="curve" smooth="yes"/>
      <point x="271" y="254"/>
      <point x="266" y="124"/>
      <point x="266" y="45" type="curve" smooth="yes"/>
      <point x="266" y="-265"/>
      <point x="317" y="-297"/>
      <point x="581" y="-297" type="curve" smooth="yes"/>
      <point x="599" y="-297" type="line"/>
      <point x="607" y="-195" type="line"/>
      <point x="449" y="-195"/>
      <point x="388" y="-184"/>
      <point x="379" y="-20" type="curve"/>
      <point x="379" y="24" type="line" smooth="yes"/>
      <point x="379" y="37"/>
      <point x="378" y="52"/>
      <point x="378" y="70" type="curve" smooth="yes"/>
      <point x="378" y="149"/>
      <point x="384" y="352"/>
      <point x="384" y="463" type="curve" smooth="yes"/>
      <point x="384" y="504"/>
      <point x="384" y="539"/>
      <point x="383" y="567" type="curve"/>
      <point x="377" y="571"/>
      <point x="340" y="595"/>
      <point x="271" y="631" type="curve" smooth="yes"/>
      <point x="257" y="638"/>
      <point x="242" y="654"/>
      <point x="236" y="664" type="curve"/>
      <point x="297" y="697"/>
      <point x="346" y="725"/>
      <point x="383" y="749" type="curve"/>
      <point x="383" y="795" type="line" smooth="yes"/>
      <point x="383" y="869"/>
      <point x="376" y="1083"/>
      <point x="376" y="1215" type="curve" smooth="yes"/>
      <point x="376" y="1414"/>
      <point x="383" y="1459"/>
      <point x="478" y="1481" type="curve" smooth="yes"/>
      <point x="522" y="1491"/>
      <point x="551" y="1492"/>
      <point x="608" y="1492" type="curve"/>
      <point x="600" y="1594" type="line"/>
      <point x="503" y="1594"/>
      <point x="438" y="1589"/>
      <point x="404" y="1581" type="curve" smooth="yes"/>
      <point x="283" y="1552"/>
      <point x="271" y="1472"/>
      <point x="271" y="1266" type="curve" smooth="yes"/>
      <point x="271" y="1153" type="line" smooth="yes"/>
      <point x="271" y="1102"/>
      <point x="273" y="1063"/>
    </contour>
  </outline>
</glyph>
<glyph name="bar" format="1">
  <advance width="418"/>
  <unicode hex="007C"/>
  <outline>
    <contour>
      <point x="151" y="-436" type="line"/>
      <point x="151" y="1526" type="line"/>
      <point x="267" y="1526" type="line"/>
      <point x="267" y="-436" type="line"/>
    </contour>
  </outline>
</glyph>
<glyph name="braceright" format="1">
  <advance width="698"/>
  <unicode hex="007D"/>
  <outline>
    <contour>
      <point x="462" y="659" type="curve"/>
      <point x="461" y="664" type="line"/>
      <point x="452" y="648"/>
      <point x="431" y="635"/>
      <point x="374" y="602" type="curve" smooth="yes"/>
      <point x="345" y="585"/>
      <point x="324" y="574"/>
      <point x="313" y="567" type="curve"/>
      <point x="313" y="553"/>
      <point x="313" y="537"/>
      <point x="313" y="519" type="curve" smooth="yes"/>
      <point x="313" y="438"/>
      <point x="320" y="202"/>
      <point x="320" y="72" type="curve" smooth="yes"/>
      <point x="320" y="-173"/>
      <point x="297" y="-195"/>
      <point x="89" y="-195" type="curve"/>
      <point x="97" y="-297" type="line"/>
      <point x="299" y="-297"/>
      <point x="408" y="-291"/>
      <point x="419" y="-119" type="curve"/>
      <point x="424" y="-81"/>
      <point x="426" y="-9"/>
      <point x="426" y="96" type="curve" smooth="yes"/>
      <point x="426" y="116"/>
      <point x="426" y="138"/>
      <point x="426" y="161" type="curve" smooth="yes"/>
      <point x="425" y="284" type="line" smooth="yes"/>
      <point x="425" y="304"/>
      <point x="425" y="324"/>
      <point x="425" y="342" type="curve" smooth="yes"/>
      <point x="425" y="407"/>
      <point x="426" y="464"/>
      <point x="430" y="513" type="curve"/>
      <point x="463" y="536"/>
      <point x="512" y="566"/>
      <point x="576" y="603" type="curve"/>
      <point x="576" y="710" type="line"/>
      <point x="521" y="739"/>
      <point x="472" y="769"/>
      <point x="430" y="799" type="curve"/>
      <point x="428" y="841"/>
      <point x="426" y="918"/>
      <point x="426" y="1031" type="curve" smooth="yes"/>
      <point x="426" y="1092"/>
      <point x="428" y="1159"/>
      <point x="428" y="1246" type="curve" smooth="yes"/>
      <point x="428" y="1499"/>
      <point x="397" y="1545"/>
      <point x="308" y="1574" type="curve" smooth="yes"/>
      <point x="281" y="1583"/>
      <point x="215" y="1589"/>
      <point x="188" y="1589" type="curve" smooth="yes"/>
      <point x="173" y="1589"/>
      <point x="150" y="1590"/>
      <point x="118" y="1590" type="curve" smooth="yes"/>
      <point x="97" y="1590" type="line"/>
      <point x="90" y="1488" type="line"/>
      <point x="294" y="1488"/>
      <point x="319" y="1460"/>
      <point x="319" y="1232" type="curve" smooth="yes"/>
      <point x="319" y="1147"/>
      <point x="313" y="928"/>
      <point x="313" y="823" type="curve" smooth="yes"/>
      <point x="313" y="793"/>
      <point x="314" y="766"/>
      <point x="314" y="744" type="curve"/>
      <point x="348" y="721"/>
      <point x="397" y="693"/>
    </contour>
  </outline>
</glyph>
<glyph name="exclamdown" format="1">
  <advance width="439"/>
  <unicode hex="00A1"/>
  <outline>
    <contour>
      <point x="293" y="1137" type="line"/>
      <point x="138" y="1137" type="line"/>
      <point x="138" y="946" type="line"/>
      <point x="293" y="946" type="line"/>
    </contour>
    <contour>
      <point x="270" y="758" type="curve"/>
      <point x="174" y="758" type="line"/>
      <point x="174" y="-117" type="line"/>
      <point x="163" y="-268" type="line"/>
      <point x="281" y="-268" type="line"/>
      <point x="281" y="-31" type="line" smooth="yes"/>
      <point x="277" y="232"/>
      <point x="273" y="495"/>
    </contour>
  </outline>
</glyph>
<glyph name="sterling" format="1">
  <advance width="1039"/>
  <unicode hex="00A3"/>
  <outline>
    <contour>
      <point x="388" y="42" type="curve"/>
      <point x="387" y="41" type="line"/>
      <point x="425" y="41"/>
      <point x="648" y="-23"/>
      <point x="684" y="-23" type="curve" smooth="yes"/>
      <point x="775" y="-23"/>
      <point x="854" y="3"/>
      <point x="921" y="55" type="curve"/>
      <point x="880" y="162" type="line"/>
      <point x="824" y="116"/>
      <point x="762" y="91"/>
      <point x="695" y="91" type="curve"/>
      <point x="676" y="93"/>
      <point x="637" y="97"/>
      <point x="585" y="112" type="curve" smooth="yes"/>
      <point x="537" y="126" type="line"/>
      <point x="484" y="144"/>
      <point x="452" y="151"/>
      <point x="416" y="151" type="curve" smooth="yes"/>
      <point x="406" y="151" type="line" smooth="yes"/>
      <point x="385" y="150" type="line" smooth="yes"/>
      <point x="356" y="148"/>
      <point x="330" y="139"/>
      <point x="306" y="129" type="curve"/>
      <point x="306" y="130"/>
      <point x="305" y="131"/>
      <point x="304" y="132" type="curve"/>
      <point x="388" y="220"/>
      <point x="432" y="295"/>
      <point x="434" y="419" type="curve"/>
      <point x="432" y="461"/>
      <point x="406" y="601"/>
      <point x="405" y="615" type="curve"/>
      <point x="720" y="615" type="line"/>
      <point x="720" y="724" type="line"/>
      <point x="383" y="724" type="line"/>
      <point x="368" y="783"/>
      <point x="360" y="848"/>
      <point x="360" y="917" type="curve" smooth="yes"/>
      <point x="360" y="1117"/>
      <point x="409" y="1208"/>
      <point x="565" y="1217" type="curve"/>
      <point x="635" y="1217" type="line"/>
      <point x="702" y="1212"/>
      <point x="760" y="1183"/>
      <point x="810" y="1128" type="curve"/>
      <point x="852" y="1221" type="line"/>
      <point x="790" y="1301"/>
      <point x="719" y="1329"/>
      <point x="591" y="1329" type="curve" smooth="yes"/>
      <point x="362" y="1329"/>
      <point x="248" y="1203"/>
      <point x="248" y="934" type="curve" smooth="yes"/>
      <point x="248" y="862"/>
      <point x="256" y="793"/>
      <point x="273" y="726" type="curve"/>
      <point x="140" y="726" type="line"/>
      <point x="140" y="617" type="line"/>
      <point x="295" y="617" type="line"/>
      <point x="313" y="540"/>
      <point x="322" y="478"/>
      <point x="322" y="429" type="curve" smooth="yes"/>
      <point x="319" y="248"/>
      <point x="224" y="176"/>
      <point x="135" y="97" type="curve"/>
      <point x="185" y="-15" type="line"/>
      <point x="226" y="3" type="line"/>
      <point x="270" y="29"/>
      <point x="327" y="42"/>
    </contour>
  </outline>
</glyph>
<glyph name="yen" format="1">
  <advance width="1083"/>
  <unicode hex="00A5"/>
  <outline>
    <contour>
      <point x="205" y="379" type="line"/>
      <point x="489" y="379" type="line"/>
      <point x="489" y="2" type="line"/>
      <point x="599" y="2" type="line"/>
      <point x="599" y="377" type="line"/>
      <point x="879" y="377" type="line"/>
      <point x="879" y="481" type="line"/>
      <point x="599" y="481" type="line"/>
      <point x="599" y="582" type="line"/>
      <point x="610" y="645" type="line"/>
      <point x="879" y="645" type="line"/>
      <point x="879" y="750" type="line"/>
      <point x="657" y="750" type="line"/>
      <point x="974" y="1366" type="line"/>
      <point x="849" y="1366" type="line"/>
      <point x="849" y="1366"/>
      <point x="749" y="1162"/>
      <point x="548" y="755" type="curve"/>
      <point x="543" y="755" type="line"/>
      <point x="242" y="1368" type="line"/>
      <point x="109" y="1368" type="line"/>
      <point x="430" y="752" type="line"/>
      <point x="205" y="752" type="line"/>
      <point x="205" y="647" type="line"/>
      <point x="476" y="647" type="line"/>
      <point x="489" y="584" type="line"/>
      <point x="489" y="483" type="line"/>
      <point x="205" y="483" type="line"/>
    </contour>
  </outline>
</glyph>
<glyph name="dieresis" format="1">
  <advance width="450"/>
  <unicode hex="00A8"/>
  <outline>
    <contour>
      <point x="513.833" y="1198" type="line"/>
      <point x="513.833" y="1049" type="line"/>
      <point x="346.833" y="1049" type="line"/>
      <point x="346.833" y="1198" type="line"/>
    </contour>
    <contour>
      <point x="98.833" y="1198" type="line"/>
      <point x="98.833" y="1049" type="line"/>
      <point x="-70.167" y="1049" type="line"/>
      <point x="-70.167" y="1198" type="line"/>
    </contour>
  </outline>
</glyph>
<glyph name="copyright" format="1">
  <advance width="1056"/>
  <unicode hex="00A9"/>
  <outline>
    <contour>
      <point x="540" y="1097" type="curve"/>
      <point x="540" y="1098" type="line"/>
      <point x="278" y="1098"/>
      <point x="122" y="900"/>
      <point x="122" y="580" type="curve" smooth="yes"/>
      <point x="122" y="265"/>
      <point x="267" y="59"/>
      <point x="534" y="59" type="curve" smooth="yes"/>
      <point x="680" y="59"/>
      <point x="790" y="114"/>
      <point x="863" y="225" type="curve"/>
      <point x="870" y="247"/>
      <point x="875" y="271"/>
      <point x="878" y="297" type="curve"/>
      <point x="875" y="296"/>
      <point x="873" y="296"/>
      <point x="870" y="296" type="curve" smooth="yes"/>
      <point x="809" y="296"/>
      <point x="759" y="440"/>
      <point x="759" y="575" type="curve" smooth="yes"/>
      <point x="759" y="670"/>
      <point x="762" y="747"/>
      <point x="769" y="806" type="curve" smooth="yes"/>
      <point x="781" y="948" type="line"/>
      <point x="790" y="959"/>
      <point x="798" y="964"/>
      <point x="804" y="964" type="curve" smooth="yes"/>
      <point x="807" y="964"/>
      <point x="809" y="964"/>
      <point x="811" y="962" type="curve"/>
      <point x="768" y="1020"/>
      <point x="706" y="1052"/>
      <point x="623" y="1058" type="curve"/>
      <point x="600" y="1084"/>
      <point x="572" y="1097"/>
    </contour>
    <contour>
      <point x="807" y="719" type="curve"/>
      <point x="807" y="718" type="line"/>
      <point x="807" y="851"/>
      <point x="740" y="956"/>
      <point x="637" y="976" type="curve"/>
      <point x="600" y="989"/>
      <point x="566" y="996"/>
      <point x="535" y="996" type="curve" smooth="yes"/>
      <point x="315" y="996"/>
      <point x="204" y="836"/>
      <point x="204" y="577" type="curve" smooth="yes"/>
      <point x="204" y="321"/>
      <point x="321" y="175"/>
      <point x="544" y="175" type="curve" smooth="yes"/>
      <point x="581" y="175"/>
      <point x="612" y="181"/>
      <point x="637" y="194" type="curve"/>
      <point x="634" y="211"/>
      <point x="630" y="230"/>
      <point x="623" y="251" type="curve"/>
      <point x="599" y="242"/>
      <point x="572" y="237"/>
      <point x="541" y="237" type="curve" smooth="yes"/>
      <point x="518" y="237"/>
      <point x="510" y="248"/>
      <point x="510" y="278" type="curve" smooth="yes"/>
      <point x="510" y="302"/>
      <point x="515" y="341"/>
      <point x="524" y="395" type="curve"/>
      <point x="580" y="523"/>
      <point x="649" y="636"/>
      <point x="731" y="733" type="curve"/>
      <point x="756" y="733"/>
      <point x="782" y="728"/>
    </contour>
    <contour>
      <point x="929" y="579" type="curve"/>
      <point x="929" y="578" type="line"/>
      <point x="929" y="886"/>
      <point x="798" y="1083"/>
      <point x="537" y="1083" type="curve" smooth="yes"/>
      <point x="281" y="1083"/>
      <point x="141" y="890"/>
      <point x="141" y="579" type="curve" smooth="yes"/>
      <point x="141" y="271"/>
      <point x="273" y="79"/>
      <point x="537" y="79" type="curve" smooth="yes"/>
      <point x="789" y="79"/>
      <point x="929" y="273"/>
    </contour>
  </outline>
</glyph>
<glyph name="logicalnot" format="1">
  <advance width="1099"/>
  <unicode hex="00AC"/>
  <outline>
    <contour>
      <point x="115" y="725" type="line"/>
      <point x="115" y="831" type="line"/>
      <point x="966" y="831" type="line"/>
      <point x="966" y="322" type="line"/>
      <point x="848" y="322" type="line"/>
      <point x="848" y="725" type="line"/>
    </contour>
  </outline>
</glyph>
<glyph name="registered" format="1">
  <advance width="1218"/>
  <unicode hex="00AE"/>
  <outline>
    <contour>
      <point x="1090" y="873" type="curve"/>
      <point x="1089" y="874" type="line"/>
      <point x="1089" y="1180"/>
      <point x="892" y="1405"/>
      <point x="605" y="1405" type="curve" smooth="yes"/>
      <point x="328" y="1405"/>
      <point x="122" y="1193"/>
      <point x="122" y="874" type="curve" smooth="yes"/>
      <point x="122" y="570"/>
      <point x="311" y="340"/>
      <point x="605" y="340" type="curve" smooth="yes"/>
      <point x="886" y="340"/>
      <point x="1090" y="554"/>
    </contour>
    <contour>
      <point x="1002" y="871" type="curve"/>
      <point x="1000" y="871" type="line"/>
      <point x="1000" y="623"/>
      <point x="844" y="428"/>
      <point x="605" y="428" type="curve" smooth="yes"/>
      <point x="380" y="428"/>
      <point x="211" y="604"/>
      <point x="211" y="874" type="curve" smooth="yes"/>
      <point x="211" y="1136"/>
      <point x="374" y="1319"/>
      <point x="606" y="1319" type="curve" smooth="yes"/>
      <point x="835" y="1319"/>
      <point x="1002" y="1139"/>
    </contour>
    <contour>
      <point x="587" y="1187" type="curve" smooth="yes"/>
      <point x="430" y="1187" type="line"/>
      <point x="430" y="564" type="line"/>
      <point x="508" y="564" type="line"/>
      <point x="508" y="808" type="line"/>
      <point x="616" y="808" type="line"/>
      <point x="661" y="723"/>
      <point x="700" y="640"/>
      <point x="733" y="558" type="curve"/>
      <point x="812" y="572" type="line"/>
      <point x="791" y="622" type="line" smooth="yes"/>
      <point x="769" y="675"/>
      <point x="734" y="742"/>
      <point x="692" y="822" type="curve"/>
      <point x="771" y="839"/>
      <point x="817" y="901"/>
      <point x="817" y="1000" type="curve" smooth="yes"/>
      <point x="817" y="1144"/>
      <point x="737" y="1187"/>
    </contour>
    <contour>
      <point x="740" y="997" type="curve" smooth="yes"/>
      <point x="740" y="996" type="line" smooth="yes"/>
      <point x="740" y="905"/>
      <point x="705" y="887"/>
      <point x="579" y="887" type="curve" smooth="yes"/>
      <point x="508" y="887" type="line"/>
      <point x="508" y="1112" type="line"/>
      <point x="573" y="1112" type="line" smooth="yes"/>
      <point x="697" y="1112"/>
      <point x="740" y="1101"/>
    </contour>
  </outline>
</glyph>
<glyph name="plusminus" format="1">
  <advance width="1142"/>
  <unicode hex="00B1"/>
  <outline>
    <contour>
      <point x="135" y="82" type="line"/>
      <point x="135" y="188" type="line"/>
      <point x="1008" y="188" type="line"/>
      <point x="1008" y="82" type="line"/>
    </contour>
    <contour>
      <point x="625" y="1042" type="line"/>
      <point x="625" y="719" type="line"/>
      <point x="1008" y="719" type="line"/>
      <point x="1008" y="610" type="line"/>
      <point x="625" y="610" type="line"/>
      <point x="625" y="299" type="line"/>
      <point x="518" y="299" type="line"/>
      <point x="518" y="610" type="line"/>
      <point x="135" y="610" type="line"/>
      <point x="135" y="719" type="line"/>
      <point x="518" y="719" type="line"/>
      <point x="518" y="1042" type="line"/>
    </contour>
  </outline>
</glyph>
<glyph name="acute" format="1">
  <advance width="410"/>
  <unicode hex="00B4"/>
  <outline>
    <contour>
      <point x="112.66" y="1022.25" type="line"/>
      <point x="166.336" y="973.153" type="line"/>
      <point x="166.336" y="973.153"/>
      <point x="319.775" y="1116.97"/>
      <point x="366.849" y="1174.49" type="curve" smooth="yes"/>
      <point x="463.779" y="1282.94" type="line"/>
      <point x="358" y="1362.54" type="line"/>
    </contour>
    <contour>
      <point x="288.219" y="985" type="move" name="_top"/>
    </contour>
  </outline>
</glyph>
<glyph name="paragraph" format="1">
  <advance width="1039"/>
  <unicode hex="00B6"/>
  <outline>
    <contour>
      <point x="889" y="0" type="line"/>
      <point x="889" y="1434" type="line"/>
      <point x="824" y="1434" type="line"/>
      <point x="824" y="0" type="line"/>
    </contour>
    <contour>
      <point x="124" y="981" type="curve" smooth="yes"/>
      <point x="124" y="659"/>
      <point x="258" y="564"/>
      <point x="529" y="541" type="curve"/>
      <point x="529" y="0" type="line"/>
      <point x="594" y="0" type="line"/>
      <point x="594" y="1434" type="line"/>
      <point x="529" y="1434" type="line" smooth="yes"/>
      <point x="249" y="1434"/>
      <point x="124" y="1293"/>
    </contour>
    <contour>
      <point x="529" y="1367" type="curve"/>
      <point x="529" y="1368" type="line"/>
      <point x="529" y="606" type="line"/>
      <point x="284" y="626"/>
      <point x="189" y="706"/>
      <point x="189" y="972" type="curve" smooth="yes"/>
      <point x="189" y="1294"/>
      <point x="302" y="1362"/>
    </contour>
  </outline>
</glyph>
<glyph name="periodcentered" format="1">
  <advance width="397"/>
  <unicode hex="00B7"/>
  <outline>
    <contour>
      <point x="281" y="614" type="curve" smooth="yes"/>
      <point x="281" y="537"/>
      <point x="259" y="502"/>
      <point x="196" y="502" type="curve" smooth="yes"/>
      <point x="141" y="502"/>
      <point x="113" y="541"/>
      <point x="113" y="618" type="curve" smooth="yes"/>
      <point x="113" y="696"/>
      <point x="141" y="735"/>
      <point x="196" y="735" type="curve" smooth="yes"/>
      <point x="253" y="735"/>
      <point x="281" y="695"/>
    </contour>
  </outline>
</glyph>
<glyph name="cedilla" format="1">
  <advance width="936"/>
  <unicode hex="00B8"/>
  <outline>
    <contour>
      <point x="478" y="-117" type="curve"/>
      <point x="480" y="-119" type="line"/>
      <point x="491" y="-80" type="line"/>
      <point x="457" y="-80"/>
      <point x="422" y="-83"/>
      <point x="387" y="-90" type="curve"/>
      <point x="386" y="-186" type="line"/>
      <point x="415" y="-189"/>
      <point x="438" y="-193"/>
      <point x="453" y="-198" type="curve"/>
      <point x="520" y="-198"/>
      <point x="555" y="-221"/>
      <point x="555" y="-284" type="curve" smooth="yes"/>
      <point x="555" y="-341"/>
      <point x="526" y="-372"/>
      <point x="471" y="-372" type="curve" smooth="yes"/>
      <point x="452" y="-372" type="line"/>
      <point x="414" y="-369"/>
      <point x="385" y="-362"/>
      <point x="366" y="-351" type="curve"/>
      <point x="351" y="-431" type="line"/>
      <point x="395" y="-450"/>
      <point x="440" y="-461"/>
      <point x="478" y="-461" type="curve" smooth="yes"/>
      <point x="583" y="-461"/>
      <point x="648" y="-396"/>
      <point x="648" y="-279" type="curve" smooth="yes"/>
      <point x="648" y="-172"/>
      <point x="581" y="-117"/>
    </contour>
    <contour>
      <point x="499.5" y="0" type="move" name="_bottom"/>
    </contour>
  </outline>
</glyph>
<glyph name="questiondown" format="1">
  <advance width="858"/>
  <unicode hex="00BF"/>
  <outline>
    <contour>
      <point x="521" y="770" type="curve"/>
      <point x="524" y="768" type="line"/>
      <point x="471" y="768" type="line" smooth="yes"/>
      <point x="460" y="768"/>
      <point x="443" y="767"/>
      <point x="420" y="766" type="curve"/>
      <point x="420" y="745"/>
      <point x="422" y="678"/>
      <point x="422" y="659" type="curve" smooth="yes"/>
      <point x="422" y="515"/>
      <point x="399" y="499"/>
      <point x="270" y="373" type="curve" smooth="yes"/>
      <point x="177" y="277"/>
      <point x="106" y="193"/>
      <point x="106" y="20" type="curve" smooth="yes"/>
      <point x="106" y="-174"/>
      <point x="238" y="-286"/>
      <point x="425" y="-286" type="curve" smooth="yes"/>
      <point x="580" y="-286"/>
      <point x="699" y="-194"/>
      <point x="768" y="-105" type="curve"/>
      <point x="707" y="-15" type="line"/>
      <point x="663" y="-63"/>
      <point x="597" y="-109"/>
      <point x="573" y="-124" type="curve" smooth="yes"/>
      <point x="545" y="-141"/>
      <point x="484" y="-163"/>
      <point x="417" y="-163" type="curve" smooth="yes"/>
      <point x="289" y="-163"/>
      <point x="224" y="-80"/>
      <point x="224" y="31" type="curve" smooth="yes"/>
      <point x="224" y="166"/>
      <point x="353" y="274"/>
      <point x="445" y="396" type="curve" smooth="yes"/>
      <point x="499" y="467"/>
      <point x="532" y="512"/>
      <point x="532" y="613" type="curve" smooth="yes"/>
      <point x="532" y="676"/>
      <point x="529" y="728"/>
    </contour>
    <contour>
      <point x="548" y="911" type="line"/>
      <point x="548" y="1112" type="line"/>
      <point x="380" y="1112" type="line"/>
      <point x="380" y="911" type="line"/>
    </contour>
  </outline>
</glyph>
<glyph name="Agrave" format="1">
  <advance width="1175"/>
  <unicode hex="00C0"/>
  <outline>
    <contour>
      <point x="602" y="1268" type="line"/>
      <point x="818" y="440" type="line"/>
      <point x="357" y="440" type="line"/>
      <point x="566" y="1214" type="line"/>
    </contour>
    <contour>
      <point x="850" y="328" type="line"/>
      <point x="940" y="0" type="line"/>
      <point x="1066" y="0" type="line"/>
      <point x="682" y="1374" type="line"/>
      <point x="503" y="1374" type="line"/>
      <point x="111" y="0" type="line"/>
      <point x="234" y="0" type="line"/>
      <point x="365" y="328" type="line"/>
    </contour>
    <contour>
      <point x="776" y="1632" type="line"/>
      <point x="452" y="1876" type="line"/>
      <point x="376" y="1788" type="line"/>
      <point x="728" y="1565" type="line"/>
    </contour>
  </outline>
</glyph>
<glyph name="Acircumflex" format="1">
  <advance width="1175"/>
  <unicode hex="00C2"/>
  <outline>
    <contour>
      <point x="602" y="1268" type="line"/>
      <point x="818" y="440" type="line"/>
      <point x="357" y="440" type="line"/>
      <point x="566" y="1214" type="line"/>
    </contour>
    <contour>
      <point x="850" y="328" type="line"/>
      <point x="940" y="0" type="line"/>
      <point x="1066" y="0" type="line"/>
      <point x="682" y="1374" type="line"/>
      <point x="503" y="1374" type="line"/>
      <point x="111" y="0" type="line"/>
      <point x="234" y="0" type="line"/>
      <point x="313" y="328" type="line"/>
    </contour>
    <contour>
      <point x="637" y="1837" type="line"/>
      <point x="546" y="1837" type="line"/>
      <point x="338" y="1548" type="line"/>
      <point x="452" y="1548" type="line"/>
      <point x="593" y="1761" type="line"/>
      <point x="734" y="1548" type="line"/>
      <point x="848" y="1548" type="line"/>
    </contour>
  </outline>
</glyph>
<glyph name="Atilde" format="1">
  <advance width="1175"/>
  <unicode hex="00C3"/>
  <outline>
    <contour>
      <point x="602" y="1268" type="line"/>
      <point x="818" y="440" type="line"/>
      <point x="357" y="440" type="line"/>
      <point x="566" y="1214" type="line"/>
    </contour>
    <contour>
      <point x="850" y="328" type="line"/>
      <point x="940" y="0" type="line"/>
      <point x="1066" y="0" type="line"/>
      <point x="682" y="1374" type="line"/>
      <point x="503" y="1374" type="line"/>
      <point x="111" y="0" type="line"/>
      <point x="234" y="0" type="line"/>
      <point x="326" y="328" type="line"/>
    </contour>
    <contour>
      <point x="312" y="1675" type="curve"/>
      <point x="315" y="1679" type="line"/>
      <point x="384" y="1632" type="line"/>
      <point x="415" y="1674"/>
      <point x="452" y="1715"/>
      <point x="482" y="1715" type="curve" smooth="yes"/>
      <point x="494" y="1715"/>
      <point x="509" y="1710"/>
      <point x="526" y="1699" type="curve" smooth="yes"/>
      <point x="584" y="1663" type="line"/>
      <point x="584" y="1663"/>
      <point x="589" y="1660"/>
      <point x="598" y="1654" type="curve" smooth="yes"/>
      <point x="616" y="1643" type="line"/>
      <point x="640" y="1638"/>
      <point x="672" y="1612"/>
      <point x="712" y="1612" type="curve" smooth="yes"/>
      <point x="764" y="1612"/>
      <point x="824" y="1653"/>
      <point x="862" y="1746" type="curve"/>
      <point x="798" y="1791" type="line"/>
      <point x="770" y="1750"/>
      <point x="734" y="1709"/>
      <point x="704" y="1709" type="curve" smooth="yes"/>
      <point x="681" y="1709"/>
      <point x="620" y="1750"/>
      <point x="607" y="1758" type="curve" smooth="yes"/>
      <point x="550" y="1791"/>
      <point x="507" y="1808"/>
      <point x="480" y="1808" type="curve" smooth="yes"/>
      <point x="425" y="1808"/>
      <point x="363" y="1774"/>
    </contour>
  </outline>
</glyph>
<glyph name="Adieresis" format="1">
  <advance width="1175"/>
  <unicode hex="00C4"/>
  <outline>
    <contour>
      <point x="602" y="1268" type="line"/>
      <point x="818" y="440" type="line"/>
      <point x="357" y="440" type="line"/>
      <point x="566" y="1214" type="line"/>
    </contour>
    <contour>
      <point x="850" y="328" type="line"/>
      <point x="940" y="0" type="line"/>
      <point x="1066" y="0" type="line"/>
      <point x="682" y="1374" type="line"/>
      <point x="503" y="1374" type="line"/>
      <point x="111" y="0" type="line"/>
      <point x="234" y="0" type="line"/>
      <point x="326" y="328" type="line"/>
    </contour>
    <contour>
      <point x="336" y="1698" type="curve" smooth="yes"/>
      <point x="336" y="1647"/>
      <point x="361" y="1616"/>
      <point x="405" y="1616" type="curve" smooth="yes"/>
      <point x="454" y="1616"/>
      <point x="479" y="1643"/>
      <point x="479" y="1698" type="curve" smooth="yes"/>
      <point x="479" y="1749"/>
      <point x="452" y="1780"/>
      <point x="405" y="1780" type="curve" smooth="yes"/>
      <point x="362" y="1780"/>
      <point x="336" y="1747"/>
    </contour>
    <contour>
      <point x="715" y="1758" type="curve" smooth="yes"/>
      <point x="703" y="1743"/>
      <point x="697" y="1723"/>
      <point x="697" y="1698" type="curve" smooth="yes"/>
      <point x="697" y="1649"/>
      <point x="723" y="1616"/>
      <point x="769" y="1616" type="curve" smooth="yes"/>
      <point x="815" y="1616"/>
      <point x="843" y="1649"/>
      <point x="843" y="1698" type="curve" smooth="yes"/>
      <point x="843" y="1746"/>
      <point x="814" y="1780"/>
      <point x="769" y="1780" type="curve" smooth="yes"/>
      <point x="746" y="1780"/>
      <point x="728" y="1773"/>
    </contour>
  </outline>
</glyph>
<glyph name="Aring" format="1">
  <advance width="1175"/>
  <unicode hex="00C5"/>
  <outline>
    <contour>
      <point x="602" y="1268" type="line"/>
      <point x="818" y="440" type="line"/>
      <point x="357" y="440" type="line"/>
      <point x="566" y="1214" type="line"/>
    </contour>
    <contour>
      <point x="850" y="328" type="line"/>
      <point x="940" y="0" type="line"/>
      <point x="1066" y="0" type="line"/>
      <point x="682" y="1374" type="line"/>
      <point x="503" y="1374" type="line"/>
      <point x="111" y="0" type="line"/>
      <point x="234" y="0" type="line"/>
      <point x="326" y="328" type="line"/>
    </contour>
    <contour>
      <point x="586" y="1513" type="curve" smooth="yes"/>
      <point x="694" y="1513"/>
      <point x="765" y="1583"/>
      <point x="765" y="1698" type="curve" smooth="yes"/>
      <point x="765" y="1811"/>
      <point x="695" y="1880"/>
      <point x="588" y="1880" type="curve" smooth="yes"/>
      <point x="481" y="1880"/>
      <point x="411" y="1813"/>
      <point x="411" y="1698" type="curve" smooth="yes"/>
      <point x="411" y="1582"/>
      <point x="479" y="1513"/>
    </contour>
    <contour>
      <point x="588" y="1804" type="curve" smooth="yes"/>
      <point x="656" y="1804"/>
      <point x="690" y="1769"/>
      <point x="690" y="1698" type="curve" smooth="yes"/>
      <point x="690" y="1630"/>
      <point x="652" y="1591"/>
      <point x="588" y="1591" type="curve" smooth="yes"/>
      <point x="523" y="1591"/>
      <point x="484" y="1630"/>
      <point x="484" y="1698" type="curve" smooth="yes"/>
      <point x="484" y="1769"/>
      <point x="519" y="1804"/>
    </contour>
  </outline>
</glyph>
<glyph name="AE" format="1">
  <advance width="1341"/>
  <unicode hex="00C6"/>
  <outline>
    <contour>
      <point x="823" y="649" type="line"/>
      <point x="823" y="111" type="line"/>
      <point x="1203" y="111" type="line"/>
      <point x="1212" y="0" type="line"/>
      <point x="691" y="0" type="line"/>
      <point x="691" y="328" type="line"/>
      <point x="338" y="328" type="line"/>
      <point x="235" y="0" type="line"/>
      <point x="109" y="0" type="line"/>
      <point x="547" y="1374" type="line"/>
      <point x="1160" y="1374" type="line"/>
      <point x="1160" y="1262" type="line"/>
      <point x="790" y="1262" type="line"/>
      <point x="790" y="760" type="line"/>
      <point x="1136" y="760" type="line"/>
      <point x="1136" y="649" type="line"/>
    </contour>
    <contour>
      <point x="373" y="442" type="line"/>
      <point x="651" y="442" type="line"/>
      <point x="651" y="1262" type="line"/>
      <point x="628" y="1262" type="line"/>
    </contour>
  </outline>
</glyph>
<glyph name="Ccedilla" format="1">
  <advance width="1095"/>
  <unicode hex="00C7"/>
  <outline>
    <contour>
      <point x="963" y="131" type="curve"/>
      <point x="965" y="133" type="line"/>
      <point x="910" y="231" type="line"/>
      <point x="822" y="125"/>
      <point x="709" y="95"/>
      <point x="602" y="95" type="curve" smooth="yes"/>
      <point x="348" y="95"/>
      <point x="257" y="301"/>
      <point x="257" y="685" type="curve" smooth="yes"/>
      <point x="257" y="1109"/>
      <point x="360" y="1276"/>
      <point x="603" y="1276" type="curve" smooth="yes"/>
      <point x="674" y="1276"/>
      <point x="743" y="1260"/>
      <point x="810" y="1229" type="curve"/>
      <point x="826" y="1168"/>
      <point x="837" y="1102"/>
      <point x="843" y="1032" type="curve"/>
      <point x="956" y="1057" type="line"/>
      <point x="951" y="1115"/>
      <point x="925" y="1286"/>
      <point x="921" y="1317" type="curve"/>
      <point x="806" y="1369"/>
      <point x="699" y="1395"/>
      <point x="600" y="1395" type="curve" smooth="yes"/>
      <point x="231" y="1395"/>
      <point x="130" y="1098"/>
      <point x="130" y="676" type="curve" smooth="yes"/>
      <point x="130" y="192"/>
      <point x="277" y="-28"/>
      <point x="600" y="-28" type="curve" smooth="yes"/>
      <point x="721" y="-28"/>
      <point x="794" y="3"/>
      <point x="873" y="34" type="curve"/>
      <point x="911" y="53"/>
      <point x="941" y="86"/>
    </contour>
    <contour>
      <point x="565" y="-122" type="curve"/>
      <point x="565" y="-121" type="line"/>
      <point x="568" y="-111"/>
      <point x="572" y="-91"/>
      <point x="574" y="-82" type="curve"/>
      <point x="541" y="-82"/>
      <point x="508" y="-85"/>
      <point x="473" y="-92" type="curve"/>
      <point x="472" y="-188" type="line"/>
      <point x="498" y="-191"/>
      <point x="520" y="-196"/>
      <point x="539" y="-202" type="curve"/>
      <point x="604" y="-202"/>
      <point x="639" y="-224"/>
      <point x="639" y="-288" type="curve" smooth="yes"/>
      <point x="639" y="-345"/>
      <point x="609" y="-376"/>
      <point x="556" y="-376" type="curve" smooth="yes"/>
      <point x="537" y="-376" type="line"/>
      <point x="499" y="-373"/>
      <point x="470" y="-366"/>
      <point x="451" y="-355" type="curve"/>
      <point x="436" y="-435" type="line"/>
      <point x="479" y="-453"/>
      <point x="525" y="-465"/>
      <point x="566" y="-465" type="curve" smooth="yes"/>
      <point x="667" y="-465"/>
      <point x="734" y="-400"/>
      <point x="734" y="-284" type="curve" smooth="yes"/>
      <point x="734" y="-177"/>
      <point x="666" y="-122"/>
    </contour>
  </outline>
</glyph>
<glyph name="Egrave" format="1">
  <advance width="965"/>
  <unicode hex="00C8"/>
  <outline>
    <contour>
      <point x="269" y="762" type="line"/>
      <point x="269" y="1260" type="line"/>
      <point x="821" y="1260" type="line"/>
      <point x="821" y="1374" type="line"/>
      <point x="151" y="1374" type="line"/>
      <point x="151" y="0" type="line"/>
      <point x="830" y="0" type="line"/>
      <point x="830" y="115" type="line"/>
      <point x="269" y="115" type="line"/>
      <point x="269" y="649" type="line"/>
      <point x="770" y="649" type="line"/>
      <point x="770" y="762" type="line"/>
    </contour>
    <contour>
      <point x="673" y="1632" type="line"/>
      <point x="348" y="1876" type="line"/>
      <point x="273" y="1788" type="line"/>
      <point x="625" y="1565" type="line"/>
    </contour>
  </outline>
</glyph>
<glyph name="Eacute" format="1">
  <advance width="965"/>
  <unicode hex="00C9"/>
  <outline>
    <contour>
      <point x="269" y="762" type="line"/>
      <point x="269" y="1260" type="line"/>
      <point x="821" y="1260" type="line"/>
      <point x="821" y="1374" type="line"/>
      <point x="151" y="1374" type="line"/>
      <point x="151" y="0" type="line"/>
      <point x="830" y="0" type="line"/>
      <point x="830" y="115" type="line"/>
      <point x="269" y="115" type="line"/>
      <point x="269" y="649" type="line"/>
      <point x="770" y="649" type="line"/>
      <point x="770" y="762" type="line"/>
    </contour>
    <contour>
      <point x="288" y="1632" type="line"/>
      <point x="334" y="1563" type="line"/>
      <point x="684" y="1786" type="line"/>
      <point x="610" y="1874" type="line"/>
    </contour>
  </outline>
</glyph>
<glyph name="Ecircumflex" format="1">
  <advance width="965"/>
  <unicode hex="00CA"/>
  <outline>
    <contour>
      <point x="269" y="762" type="line"/>
      <point x="269" y="1260" type="line"/>
      <point x="821" y="1260" type="line"/>
      <point x="821" y="1374" type="line"/>
      <point x="151" y="1374" type="line"/>
      <point x="151" y="0" type="line"/>
      <point x="830" y="0" type="line"/>
      <point x="830" y="115" type="line"/>
      <point x="269" y="115" type="line"/>
      <point x="269" y="649" type="line"/>
      <point x="770" y="649" type="line"/>
      <point x="770" y="762" type="line"/>
    </contour>
    <contour>
      <point x="544" y="1837" type="line"/>
      <point x="452" y="1837" type="line"/>
      <point x="244" y="1548" type="line"/>
      <point x="358" y="1548" type="line"/>
      <point x="499" y="1761" type="line"/>
      <point x="640" y="1548" type="line"/>
      <point x="754" y="1548" type="line"/>
    </contour>
  </outline>
</glyph>
<glyph name="Igrave" format="1">
  <advance width="754"/>
  <unicode hex="00CC"/>
  <outline>
    <contour>
      <point x="443" y="102" type="line"/>
      <point x="443" y="1272" type="line"/>
      <point x="627" y="1272" type="line"/>
      <point x="627" y="1374" type="line"/>
      <point x="133" y="1374" type="line"/>
      <point x="133" y="1272" type="line"/>
      <point x="325" y="1272" type="line"/>
      <point x="325" y="102" type="line"/>
      <point x="133" y="102" type="line"/>
      <point x="133" y="0" type="line"/>
      <point x="625" y="0" type="line"/>
      <point x="625" y="102" type="line"/>
    </contour>
    <contour>
      <point x="571" y="1632" type="line"/>
      <point x="246" y="1876" type="line"/>
      <point x="172" y="1788" type="line"/>
      <point x="522" y="1565" type="line"/>
    </contour>
  </outline>
</glyph>
<glyph name="Icircumflex" format="1">
  <advance width="763"/>
  <unicode hex="00CE"/>
  <outline>
    <contour>
      <point x="446" y="102" type="line"/>
      <point x="446" y="1272" type="line"/>
      <point x="630" y="1272" type="line"/>
      <point x="630" y="1374" type="line"/>
      <point x="136" y="1374" type="line"/>
      <point x="136" y="1272" type="line"/>
      <point x="328" y="1272" type="line"/>
      <point x="328" y="102" type="line"/>
      <point x="136" y="102" type="line"/>
      <point x="136" y="0" type="line"/>
      <point x="628" y="0" type="line"/>
      <point x="628" y="102" type="line"/>
    </contour>
    <contour>
      <point x="433" y="1837" type="line"/>
      <point x="341" y="1837" type="line"/>
      <point x="131" y="1548" type="line"/>
      <point x="247" y="1548" type="line"/>
      <point x="387" y="1761" type="line"/>
      <point x="528" y="1548" type="line"/>
      <point x="642" y="1548" type="line"/>
    </contour>
  </outline>
</glyph>
<glyph name="Idieresis" format="1">
  <advance width="760"/>
  <unicode hex="00CF"/>
  <outline>
    <contour>
      <point x="444" y="102" type="line"/>
      <point x="444" y="1272" type="line"/>
      <point x="628" y="1272" type="line"/>
      <point x="628" y="1374" type="line"/>
      <point x="134" y="1374" type="line"/>
      <point x="134" y="1272" type="line"/>
      <point x="326" y="1272" type="line"/>
      <point x="326" y="102" type="line"/>
      <point x="134" y="102" type="line"/>
      <point x="134" y="0" type="line"/>
      <point x="626" y="0" type="line"/>
      <point x="626" y="102" type="line"/>
    </contour>
    <contour>
      <point x="131" y="1698" type="curve" smooth="yes"/>
      <point x="131" y="1647"/>
      <point x="158" y="1616"/>
      <point x="203" y="1616" type="curve" smooth="yes"/>
      <point x="248" y="1616"/>
      <point x="275" y="1646"/>
      <point x="275" y="1698" type="curve" smooth="yes"/>
      <point x="275" y="1747"/>
      <point x="247" y="1780"/>
      <point x="203" y="1780" type="curve" smooth="yes"/>
      <point x="158" y="1780"/>
      <point x="131" y="1747"/>
    </contour>
    <contour>
      <point x="492" y="1698" type="curve" smooth="yes"/>
      <point x="492" y="1649"/>
      <point x="518" y="1616"/>
      <point x="564" y="1616" type="curve" smooth="yes"/>
      <point x="610" y="1616"/>
      <point x="637" y="1649"/>
      <point x="637" y="1698" type="curve" smooth="yes"/>
      <point x="637" y="1747"/>
      <point x="611" y="1780"/>
      <point x="564" y="1780" type="curve" smooth="yes"/>
      <point x="519" y="1780"/>
      <point x="492" y="1747"/>
    </contour>
  </outline>
</glyph>
<glyph name="Ntilde" format="1">
  <advance width="1138"/>
  <unicode hex="00D1"/>
  <outline>
    <contour>
      <point x="537" y="930" type="curve" smooth="yes"/>
      <point x="280" y="1374" type="line"/>
      <point x="151" y="1374" type="line"/>
      <point x="151" y="0" type="line"/>
      <point x="266" y="0" type="line"/>
      <point x="266" y="1167" type="line"/>
      <point x="269" y="1167" type="line"/>
      <point x="382" y="971" type="line" smooth="yes"/>
      <point x="474" y="812"/>
      <point x="798" y="253"/>
      <point x="826" y="205" type="curve"/>
      <point x="863" y="0" type="line"/>
      <point x="988" y="0" type="line"/>
      <point x="988" y="1374" type="line"/>
      <point x="872" y="1374" type="line"/>
      <point x="872" y="352" type="line"/>
      <point x="869" y="352" type="line"/>
      <point x="793" y="487"/>
      <point x="682" y="679"/>
    </contour>
    <contour>
      <point x="298" y="1675" type="curve"/>
      <point x="297" y="1679" type="line"/>
      <point x="364" y="1632" type="line"/>
      <point x="402" y="1682"/>
      <point x="430" y="1715"/>
      <point x="461" y="1715" type="curve" smooth="yes"/>
      <point x="473" y="1715"/>
      <point x="488" y="1709"/>
      <point x="505" y="1699" type="curve" smooth="yes"/>
      <point x="564" y="1663" type="line"/>
      <point x="567" y="1662"/>
      <point x="584" y="1651"/>
      <point x="588" y="1648" type="curve"/>
      <point x="616" y="1633" type="line"/>
      <point x="642" y="1624"/>
      <point x="666" y="1612"/>
      <point x="692" y="1612" type="curve" smooth="yes"/>
      <point x="748" y="1612"/>
      <point x="802" y="1651"/>
      <point x="843" y="1746" type="curve"/>
      <point x="778" y="1791" type="line"/>
      <point x="740" y="1735"/>
      <point x="712" y="1709"/>
      <point x="686" y="1709" type="curve" smooth="yes"/>
      <point x="666" y="1709"/>
      <point x="648" y="1723"/>
      <point x="589" y="1758" type="curve" smooth="yes"/>
      <point x="532" y="1791"/>
      <point x="488" y="1808"/>
      <point x="460" y="1808" type="curve" smooth="yes"/>
      <point x="394" y="1808"/>
      <point x="340" y="1764"/>
    </contour>
  </outline>
</glyph>
<glyph name="Ocircumflex" format="1">
  <advance width="1167"/>
  <unicode hex="00D4"/>
  <outline>
    <contour>
      <point x="907" y="687" type="curve"/>
      <point x="908" y="688" type="line"/>
      <point x="908" y="272"/>
      <point x="826" y="93"/>
      <point x="582" y="93" type="curve" smooth="yes"/>
      <point x="374" y="93"/>
      <point x="312" y="215"/>
      <point x="281" y="388" type="curve" smooth="yes"/>
      <point x="265" y="477"/>
      <point x="257" y="586"/>
      <point x="257" y="714" type="curve" smooth="yes"/>
      <point x="257" y="1095"/>
      <point x="341" y="1277"/>
      <point x="594" y="1277" type="curve" smooth="yes"/>
      <point x="890" y="1277"/>
      <point x="907" y="949"/>
    </contour>
    <contour>
      <point x="581" y="-28" type="curve" smooth="yes"/>
      <point x="921" y="-28"/>
      <point x="1032" y="234"/>
      <point x="1032" y="728" type="curve" smooth="yes"/>
      <point x="1032" y="1153"/>
      <point x="898" y="1396"/>
      <point x="583" y="1396" type="curve" smooth="yes"/>
      <point x="226" y="1396"/>
      <point x="131" y="1118"/>
      <point x="131" y="697" type="curve" smooth="yes"/>
      <point x="131" y="296"/>
      <point x="207" y="-28"/>
    </contour>
    <contour>
      <point x="631" y="1836" type="line"/>
      <point x="539" y="1836" type="line"/>
      <point x="330" y="1547" type="line"/>
      <point x="445" y="1547" type="line"/>
      <point x="587" y="1760" type="line"/>
      <point x="727" y="1547" type="line"/>
      <point x="842" y="1547" type="line"/>
    </contour>
  </outline>
</glyph>
<glyph name="Otilde" format="1">
  <advance width="1166"/>
  <unicode hex="00D5"/>
  <outline>
    <contour>
      <point x="907" y="687" type="curve"/>
      <point x="908" y="688" type="line"/>
      <point x="908" y="272"/>
      <point x="826" y="93"/>
      <point x="582" y="93" type="curve" smooth="yes"/>
      <point x="374" y="93"/>
      <point x="312" y="215"/>
      <point x="281" y="388" type="curve" smooth="yes"/>
      <point x="265" y="477"/>
      <point x="257" y="586"/>
      <point x="257" y="714" type="curve" smooth="yes"/>
      <point x="257" y="1095"/>
      <point x="341" y="1277"/>
      <point x="594" y="1277" type="curve" smooth="yes"/>
      <point x="890" y="1277"/>
      <point x="907" y="949"/>
    </contour>
    <contour>
      <point x="581" y="-28" type="curve" smooth="yes"/>
      <point x="921" y="-28"/>
      <point x="1032" y="234"/>
      <point x="1032" y="728" type="curve" smooth="yes"/>
      <point x="1032" y="1153"/>
      <point x="898" y="1396"/>
      <point x="583" y="1396" type="curve" smooth="yes"/>
      <point x="226" y="1396"/>
      <point x="131" y="1118"/>
      <point x="131" y="697" type="curve" smooth="yes"/>
      <point x="131" y="296"/>
      <point x="207" y="-28"/>
    </contour>
    <contour>
      <point x="306" y="1674" type="curve"/>
      <point x="307" y="1678" type="line"/>
      <point x="373" y="1631" type="line"/>
      <point x="415" y="1685"/>
      <point x="443" y="1714"/>
      <point x="472" y="1714" type="curve" smooth="yes"/>
      <point x="483" y="1714"/>
      <point x="498" y="1708"/>
      <point x="515" y="1698" type="curve" smooth="yes"/>
      <point x="574" y="1662" type="line"/>
      <point x="606" y="1642" type="line"/>
      <point x="630" y="1637"/>
      <point x="662" y="1611"/>
      <point x="702" y="1611" type="curve" smooth="yes"/>
      <point x="755" y="1611"/>
      <point x="816" y="1654"/>
      <point x="853" y="1745" type="curve"/>
      <point x="788" y="1790" type="line"/>
      <point x="760" y="1748"/>
      <point x="727" y="1708"/>
      <point x="698" y="1708" type="curve" smooth="yes"/>
      <point x="687" y="1708"/>
      <point x="674" y="1713"/>
      <point x="657" y="1723" type="curve" smooth="yes"/>
      <point x="599" y="1757" type="line" smooth="yes"/>
      <point x="542" y="1790"/>
      <point x="497" y="1807"/>
      <point x="468" y="1807" type="curve" smooth="yes"/>
      <point x="402" y="1807"/>
      <point x="348" y="1763"/>
    </contour>
  </outline>
</glyph>
<glyph name="Odieresis" format="1">
  <advance width="1166"/>
  <unicode hex="00D6"/>
  <outline>
    <contour>
      <point x="907" y="687" type="curve"/>
      <point x="908" y="688" type="line"/>
      <point x="908" y="272"/>
      <point x="826" y="93"/>
      <point x="582" y="93" type="curve" smooth="yes"/>
      <point x="374" y="93"/>
      <point x="312" y="215"/>
      <point x="281" y="388" type="curve" smooth="yes"/>
      <point x="265" y="477"/>
      <point x="257" y="586"/>
      <point x="257" y="714" type="curve" smooth="yes"/>
      <point x="257" y="1095"/>
      <point x="341" y="1277"/>
      <point x="594" y="1277" type="curve" smooth="yes"/>
      <point x="890" y="1277"/>
      <point x="907" y="949"/>
    </contour>
    <contour>
      <point x="581" y="-28" type="curve" smooth="yes"/>
      <point x="921" y="-28"/>
      <point x="1032" y="234"/>
      <point x="1032" y="728" type="curve" smooth="yes"/>
      <point x="1032" y="1153"/>
      <point x="898" y="1396"/>
      <point x="583" y="1396" type="curve" smooth="yes"/>
      <point x="226" y="1396"/>
      <point x="131" y="1118"/>
      <point x="131" y="697" type="curve" smooth="yes"/>
      <point x="131" y="296"/>
      <point x="207" y="-28"/>
    </contour>
    <contour>
      <point x="329" y="1697" type="curve" smooth="yes"/>
      <point x="329" y="1646"/>
      <point x="355" y="1615"/>
      <point x="399" y="1615" type="curve" smooth="yes"/>
      <point x="447" y="1615"/>
      <point x="473" y="1645"/>
      <point x="473" y="1697" type="curve" smooth="yes"/>
      <point x="473" y="1748"/>
      <point x="446" y="1779"/>
      <point x="399" y="1779" type="curve" smooth="yes"/>
      <point x="356" y="1779"/>
      <point x="329" y="1746"/>
    </contour>
    <contour>
      <point x="764" y="1615" type="curve" smooth="yes"/>
      <point x="808" y="1615"/>
      <point x="836" y="1649"/>
      <point x="836" y="1697" type="curve" smooth="yes"/>
      <point x="836" y="1746"/>
      <point x="808" y="1779"/>
      <point x="764" y="1779" type="curve" smooth="yes"/>
      <point x="719" y="1779"/>
      <point x="690" y="1748"/>
      <point x="690" y="1697" type="curve" smooth="yes"/>
      <point x="690" y="1646"/>
      <point x="717" y="1615"/>
    </contour>
  </outline>
</glyph>
<glyph name="Oslash" format="1">
  <advance width="953"/>
  <unicode hex="00D8"/>
  <outline>
    <contour>
      <point x="799" y="1192" type="curve"/>
      <point x="846" y="1279" type="line"/>
      <point x="844" y="1280" type="line"/>
      <point x="838" y="1274"/>
      <point x="833" y="1195"/>
      <point x="826" y="1161" type="curve"/>
      <point x="791" y="1092" type="line"/>
      <point x="733" y="1088"/>
      <point x="613" y="1062"/>
      <point x="514" y="1007" type="curve" smooth="yes"/>
      <point x="363" y="922"/>
      <point x="294" y="752"/>
      <point x="223" y="504" type="curve"/>
      <point x="182" y="389"/>
      <point x="162" y="314"/>
      <point x="162" y="261" type="curve" smooth="yes"/>
      <point x="162" y="234"/>
      <point x="167" y="211"/>
      <point x="175" y="193" type="curve"/>
      <point x="126" y="94" type="line"/>
      <point x="126" y="94"/>
      <point x="129" y="147"/>
      <point x="141" y="219" type="curve"/>
      <point x="179" y="294" type="line"/>
      <point x="187" y="293"/>
      <point x="195" y="293"/>
      <point x="204" y="293" type="curve" smooth="yes"/>
      <point x="264" y="293"/>
      <point x="382" y="320"/>
      <point x="454" y="363" type="curve" smooth="yes"/>
      <point x="627" y="460"/>
      <point x="692" y="668"/>
      <point x="752" y="890" type="curve"/>
      <point x="791" y="993"/>
      <point x="811" y="1071"/>
      <point x="811" y="1126" type="curve" smooth="yes"/>
      <point x="811" y="1151"/>
      <point x="807" y="1174"/>
    </contour>
    <contour>
      <point x="141" y="436" type="curve"/>
      <point x="139" y="437" type="line"/>
      <point x="137" y="423"/>
      <point x="135" y="411"/>
      <point x="135" y="401" type="curve" smooth="yes"/>
      <point x="135" y="377"/>
      <point x="141" y="365"/>
      <point x="148" y="365" type="curve" smooth="yes"/>
      <point x="158" y="365"/>
      <point x="213" y="495"/>
      <point x="305" y="583" type="curve"/>
      <point x="370" y="639"/>
      <point x="426" y="734"/>
      <point x="542" y="887" type="curve" smooth="yes"/>
      <point x="599" y="962"/>
      <point x="642" y="1021"/>
      <point x="677" y="1084" type="curve" smooth="yes"/>
      <point x="712" y="1153" type="line" smooth="yes"/>
      <point x="732" y="1188"/>
      <point x="745" y="1205"/>
      <point x="753" y="1205" type="curve" smooth="yes"/>
      <point x="757" y="1205"/>
      <point x="761" y="1203"/>
      <point x="764" y="1197" type="curve"/>
      <point x="710" y="1151"/>
      <point x="663" y="1136"/>
      <point x="526" y="1062" type="curve" smooth="yes"/>
      <point x="324" y="948"/>
      <point x="188" y="681"/>
    </contour>
    <contour>
      <point x="417" y="8" type="curve"/>
      <point x="581" y="172"/>
      <point x="677" y="487"/>
      <point x="719" y="965" type="curve" smooth="yes"/>
      <point x="728" y="1040"/>
      <point x="732" y="1102"/>
      <point x="732" y="1152" type="curve" smooth="yes"/>
      <point x="732" y="1182"/>
      <point x="730" y="1208"/>
      <point x="727" y="1229" type="curve"/>
      <point x="317" y="80" type="line"/>
      <point x="333" y="32"/>
      <point x="363" y="7"/>
      <point x="407" y="7" type="curve" smooth="yes"/>
      <point x="410" y="7"/>
      <point x="413" y="8"/>
    </contour>
  </outline>
</glyph>
<glyph name="Ugrave" format="1">
  <advance width="1118"/>
  <unicode hex="00D9"/>
  <outline>
    <contour>
      <point x="561" y="88" type="curve"/>
      <point x="559" y="90" type="line"/>
      <point x="375" y="90"/>
      <point x="283" y="178"/>
      <point x="275" y="367" type="curve" smooth="yes"/>
      <point x="268" y="471"/>
      <point x="264" y="573"/>
      <point x="264" y="674" type="curve" smooth="yes"/>
      <point x="264" y="1374" type="line"/>
      <point x="145" y="1374" type="line"/>
      <point x="145" y="666" type="line" smooth="yes"/>
      <point x="145" y="523"/>
      <point x="144" y="469"/>
      <point x="157" y="352" type="curve" smooth="yes"/>
      <point x="185" y="95"/>
      <point x="294" y="-30"/>
      <point x="557" y="-30" type="curve" smooth="yes"/>
      <point x="753" y="-30"/>
      <point x="883" y="50"/>
      <point x="930" y="207" type="curve" smooth="yes"/>
      <point x="959" y="302"/>
      <point x="973" y="455"/>
      <point x="973" y="666" type="curve" smooth="yes"/>
      <point x="973" y="1372" type="line"/>
      <point x="852" y="1372" type="line"/>
      <point x="852" y="469" type="line" smooth="yes"/>
      <point x="852" y="213"/>
      <point x="774" y="88"/>
    </contour>
    <contour>
      <point x="748" y="1630" type="line"/>
      <point x="423" y="1874" type="line"/>
      <point x="349" y="1786" type="line"/>
      <point x="699" y="1563" type="line"/>
    </contour>
  </outline>
</glyph>
<glyph name="Uacute" format="1">
  <advance width="1118"/>
  <unicode hex="00DA"/>
  <outline>
    <contour>
      <point x="561" y="88" type="curve"/>
      <point x="559" y="90" type="line"/>
      <point x="375" y="90"/>
      <point x="283" y="178"/>
      <point x="275" y="367" type="curve" smooth="yes"/>
      <point x="268" y="471"/>
      <point x="264" y="573"/>
      <point x="264" y="674" type="curve" smooth="yes"/>
      <point x="264" y="1374" type="line"/>
      <point x="145" y="1374" type="line"/>
      <point x="145" y="666" type="line" smooth="yes"/>
      <point x="145" y="523"/>
      <point x="144" y="469"/>
      <point x="157" y="352" type="curve" smooth="yes"/>
      <point x="185" y="95"/>
      <point x="294" y="-30"/>
      <point x="557" y="-30" type="curve" smooth="yes"/>
      <point x="753" y="-30"/>
      <point x="883" y="50"/>
      <point x="930" y="207" type="curve" smooth="yes"/>
      <point x="959" y="302"/>
      <point x="973" y="455"/>
      <point x="973" y="666" type="curve" smooth="yes"/>
      <point x="973" y="1372" type="line"/>
      <point x="852" y="1372" type="line"/>
      <point x="852" y="469" type="line" smooth="yes"/>
      <point x="852" y="213"/>
      <point x="774" y="88"/>
    </contour>
    <contour>
      <point x="386" y="1630" type="line"/>
      <point x="434" y="1561" type="line"/>
      <point x="784" y="1784" type="line"/>
      <point x="711" y="1872" type="line"/>
    </contour>
  </outline>
</glyph>
<glyph name="germandbls" format="1">
  <advance width="1047"/>
  <unicode hex="00DF"/>
  <outline>
    <contour>
      <point x="484" y="1286" type="curve" smooth="yes"/>
      <point x="666" y="1286"/>
      <point x="713" y="1214"/>
      <point x="713" y="1018" type="curve"/>
      <point x="667" y="980"/>
      <point x="636" y="962"/>
      <point x="585" y="933" type="curve" smooth="yes"/>
      <point x="568" y="923"/>
      <point x="557" y="917"/>
      <point x="553" y="914" type="curve" smooth="yes"/>
      <point x="525" y="897" type="line" smooth="yes"/>
      <point x="485" y="873"/>
      <point x="438" y="839"/>
      <point x="410" y="768" type="curve"/>
      <point x="410" y="731" type="line"/>
      <point x="435" y="609"/>
      <point x="523" y="587"/>
      <point x="662" y="538" type="curve"/>
      <point x="722" y="519"/>
      <point x="783" y="483"/>
      <point x="789" y="401" type="curve"/>
      <point x="799" y="388"/>
      <point x="804" y="361"/>
      <point x="804" y="322" type="curve" smooth="yes"/>
      <point x="804" y="155"/>
      <point x="754" y="95"/>
      <point x="606" y="95" type="curve" smooth="yes"/>
      <point x="537" y="95"/>
      <point x="473" y="115"/>
      <point x="414" y="156" type="curve"/>
      <point x="376" y="66" type="line"/>
      <point x="457" y="7"/>
      <point x="511" y="-19"/>
      <point x="615" y="-19" type="curve" smooth="yes"/>
      <point x="823" y="-19"/>
      <point x="917" y="89"/>
      <point x="917" y="321" type="curve" smooth="yes"/>
      <point x="917" y="476"/>
      <point x="851" y="544"/>
      <point x="770" y="597" type="curve"/>
      <point x="700" y="640" type="line"/>
      <point x="665" y="661" type="line"/>
      <point x="593" y="707"/>
      <point x="576" y="725"/>
      <point x="569" y="754" type="curve"/>
      <point x="612" y="862"/>
      <point x="690" y="913"/>
      <point x="826" y="963" type="curve"/>
      <point x="826" y="1005"/>
      <point x="825" y="1045"/>
      <point x="823" y="1082" type="curve" smooth="yes"/>
      <point x="810" y="1303"/>
      <point x="707" y="1397"/>
      <point x="488" y="1397" type="curve" smooth="yes"/>
      <point x="257" y="1397"/>
      <point x="147" y="1268"/>
      <point x="147" y="1008" type="curve" smooth="yes"/>
      <point x="147" y="0" type="line"/>
      <point x="256" y="0" type="line"/>
      <point x="256" y="997" type="line" smooth="yes"/>
      <point x="256" y="1193"/>
      <point x="320" y="1286"/>
    </contour>
  </outline>
</glyph>
<glyph name="atilde" format="1">
  <advance width="981"/>
  <unicode hex="00E3"/>
  <outline>
    <contour>
      <point x="468" y="586" type="curve"/>
      <point x="470" y="588" type="line"/>
      <point x="251" y="581"/>
      <point x="134" y="481"/>
      <point x="134" y="278" type="curve" smooth="yes"/>
      <point x="134" y="77"/>
      <point x="239" y="-21"/>
      <point x="432" y="-21" type="curve" smooth="yes"/>
      <point x="545" y="-21"/>
      <point x="653" y="42"/>
      <point x="714" y="109" type="curve"/>
      <point x="719" y="48"/>
      <point x="734" y="5"/>
      <point x="761" y="-20" type="curve"/>
      <point x="808" y="-15"/>
      <point x="836" y="-12"/>
      <point x="845" y="-10" type="curve"/>
      <point x="834" y="131" type="line"/>
      <point x="818" y="147"/>
      <point x="818" y="159"/>
      <point x="818" y="208" type="curve" smooth="yes"/>
      <point x="818" y="581" type="line" smooth="yes"/>
      <point x="818" y="898"/>
      <point x="762" y="998"/>
      <point x="491" y="998" type="curve" smooth="yes"/>
      <point x="327" y="998"/>
      <point x="218" y="957"/>
      <point x="165" y="876" type="curve"/>
      <point x="220" y="790" type="line"/>
      <point x="275" y="872"/>
      <point x="425" y="887"/>
      <point x="495" y="887" type="curve" smooth="yes"/>
      <point x="689" y="887"/>
      <point x="706" y="800"/>
      <point x="706" y="582" type="curve"/>
      <point x="660" y="582"/>
      <point x="519" y="586"/>
    </contour>
    <contour>
      <point x="249" y="285" type="curve"/>
      <point x="248" y="285" type="line"/>
      <point x="248" y="462"/>
      <point x="374" y="484"/>
      <point x="546" y="484" type="curve" smooth="yes"/>
      <point x="583" y="484"/>
      <point x="679" y="481"/>
      <point x="707" y="481" type="curve"/>
      <point x="707" y="246" type="line"/>
      <point x="658" y="142"/>
      <point x="533" y="90"/>
      <point x="443" y="90" type="curve" smooth="yes"/>
      <point x="304" y="90"/>
      <point x="249" y="141"/>
    </contour>
    <contour>
      <point x="760" y="1375" type="curve"/>
      <point x="760" y="1378" type="line"/>
      <point x="697" y="1425" type="line"/>
      <point x="664" y="1377"/>
      <point x="632" y="1343"/>
      <point x="604" y="1343" type="curve" smooth="yes"/>
      <point x="581" y="1343"/>
      <point x="520" y="1384"/>
      <point x="507" y="1392" type="curve" smooth="yes"/>
      <point x="450" y="1425"/>
      <point x="406" y="1442"/>
      <point x="378" y="1442" type="curve" smooth="yes"/>
      <point x="323" y="1442"/>
      <point x="264" y="1403"/>
      <point x="214" y="1309" type="curve"/>
      <point x="283" y="1260" type="line"/>
      <point x="321" y="1314"/>
      <point x="349" y="1346"/>
      <point x="380" y="1346" type="curve"/>
      <point x="391" y="1345"/>
      <point x="405" y="1340"/>
      <point x="424" y="1329" type="curve" smooth="yes"/>
      <point x="495" y="1285" type="line"/>
      <point x="510" y="1275" type="line"/>
      <point x="514" y="1274"/>
      <point x="534" y="1261"/>
      <point x="541" y="1258" type="curve" smooth="yes"/>
      <point x="575" y="1245" type="line" smooth="yes"/>
      <point x="584" y="1242"/>
      <point x="598" y="1240"/>
      <point x="609" y="1240" type="curve" smooth="yes"/>
      <point x="672" y="1240"/>
      <point x="722" y="1285"/>
    </contour>
  </outline>
</glyph>
<glyph name="adieresis" format="1">
  <advance width="980"/>
  <unicode hex="00E4"/>
  <outline>
    <contour>
      <point x="467" y="586" type="curve"/>
      <point x="469" y="588" type="line"/>
      <point x="250" y="581"/>
      <point x="133" y="481"/>
      <point x="133" y="278" type="curve" smooth="yes"/>
      <point x="133" y="77"/>
      <point x="238" y="-21"/>
      <point x="431" y="-21" type="curve" smooth="yes"/>
      <point x="544" y="-21"/>
      <point x="652" y="42"/>
      <point x="713" y="109" type="curve"/>
      <point x="718" y="48"/>
      <point x="733" y="5"/>
      <point x="760" y="-20" type="curve"/>
      <point x="807" y="-15"/>
      <point x="835" y="-12"/>
      <point x="844" y="-10" type="curve"/>
      <point x="833" y="131" type="line"/>
      <point x="817" y="147"/>
      <point x="817" y="159"/>
      <point x="817" y="208" type="curve" smooth="yes"/>
      <point x="817" y="581" type="line" smooth="yes"/>
      <point x="817" y="898"/>
      <point x="761" y="998"/>
      <point x="490" y="998" type="curve" smooth="yes"/>
      <point x="326" y="998"/>
      <point x="217" y="957"/>
      <point x="164" y="876" type="curve"/>
      <point x="219" y="790" type="line"/>
      <point x="274" y="872"/>
      <point x="424" y="887"/>
      <point x="494" y="887" type="curve" smooth="yes"/>
      <point x="688" y="887"/>
      <point x="705" y="800"/>
      <point x="705" y="582" type="curve"/>
      <point x="659" y="582"/>
      <point x="518" y="586"/>
    </contour>
    <contour>
      <point x="248" y="285" type="curve"/>
      <point x="247" y="285" type="line"/>
      <point x="247" y="462"/>
      <point x="373" y="484"/>
      <point x="545" y="484" type="curve" smooth="yes"/>
      <point x="582" y="484"/>
      <point x="678" y="481"/>
      <point x="706" y="481" type="curve"/>
      <point x="706" y="246" type="line"/>
      <point x="657" y="142"/>
      <point x="532" y="90"/>
      <point x="442" y="90" type="curve" smooth="yes"/>
      <point x="303" y="90"/>
      <point x="248" y="141"/>
    </contour>
    <contour>
      <point x="320" y="1245" type="curve" smooth="yes"/>
      <point x="367" y="1245"/>
      <point x="391" y="1277"/>
      <point x="391" y="1329" type="curve" smooth="yes"/>
      <point x="391" y="1384"/>
      <point x="367" y="1411"/>
      <point x="320" y="1411" type="curve" smooth="yes"/>
      <point x="275" y="1411"/>
      <point x="248" y="1380"/>
      <point x="248" y="1329" type="curve" smooth="yes"/>
      <point x="248" y="1278"/>
      <point x="275" y="1245"/>
    </contour>
    <contour>
      <point x="611" y="1329" type="curve" smooth="yes"/>
      <point x="611" y="1277"/>
      <point x="636" y="1245"/>
      <point x="683" y="1245" type="curve" smooth="yes"/>
      <point x="728" y="1245"/>
      <point x="755" y="1278"/>
      <point x="755" y="1329" type="curve" smooth="yes"/>
      <point x="755" y="1378"/>
      <point x="727" y="1411"/>
      <point x="683" y="1411" type="curve" smooth="yes"/>
      <point x="636" y="1411"/>
      <point x="611" y="1380"/>
    </contour>
  </outline>
</glyph>
<glyph name="aring" format="1">
  <advance width="976"/>
  <unicode hex="00E5"/>
  <outline>
    <contour>
      <point x="462" y="588" type="curve" smooth="yes"/>
      <point x="466" y="588" type="line"/>
      <point x="241" y="582"/>
      <point x="131" y="484"/>
      <point x="131" y="280" type="curve" smooth="yes"/>
      <point x="131" y="79"/>
      <point x="236" y="-19"/>
      <point x="429" y="-19" type="curve" smooth="yes"/>
      <point x="542" y="-19"/>
      <point x="650" y="44"/>
      <point x="711" y="111" type="curve"/>
      <point x="716" y="50"/>
      <point x="732" y="7"/>
      <point x="759" y="-18" type="curve"/>
      <point x="806" y="-13"/>
      <point x="833" y="-10"/>
      <point x="842" y="-8" type="curve"/>
      <point x="831" y="133" type="line"/>
      <point x="815" y="149"/>
      <point x="815" y="161"/>
      <point x="815" y="210" type="curve" smooth="yes"/>
      <point x="815" y="583" type="line" smooth="yes"/>
      <point x="815" y="900"/>
      <point x="759" y="1000"/>
      <point x="489" y="1000" type="curve" smooth="yes"/>
      <point x="324" y="1000"/>
      <point x="215" y="959"/>
      <point x="162" y="878" type="curve"/>
      <point x="217" y="792" type="line"/>
      <point x="272" y="875"/>
      <point x="426" y="889"/>
      <point x="492" y="889" type="curve" smooth="yes"/>
      <point x="676" y="889"/>
      <point x="703" y="816"/>
      <point x="703" y="584" type="curve"/>
      <point x="659" y="584"/>
      <point x="515" y="588"/>
    </contour>
    <contour>
      <point x="245" y="286" type="curve"/>
      <point x="244" y="287" type="line"/>
      <point x="244" y="463"/>
      <point x="374" y="485"/>
      <point x="544" y="485" type="curve" smooth="yes"/>
      <point x="562" y="485" type="line" smooth="yes"/>
      <point x="635" y="483" type="line" smooth="yes"/>
      <point x="664" y="482"/>
      <point x="686" y="482"/>
      <point x="703" y="482" type="curve"/>
      <point x="703" y="247" type="line"/>
      <point x="665" y="167"/>
      <point x="547" y="91"/>
      <point x="438" y="91" type="curve" smooth="yes"/>
      <point x="299" y="91"/>
      <point x="245" y="142"/>
    </contour>
    <contour>
      <point x="676" y="1293" type="curve" smooth="yes"/>
      <point x="676" y="1410"/>
      <point x="606" y="1478"/>
      <point x="497" y="1478" type="curve" smooth="yes"/>
      <point x="390" y="1478"/>
      <point x="320" y="1409"/>
      <point x="320" y="1295" type="curve" smooth="yes"/>
      <point x="320" y="1181"/>
      <point x="389" y="1111"/>
      <point x="497" y="1111" type="curve" smooth="yes"/>
      <point x="605" y="1111"/>
      <point x="676" y="1178"/>
    </contour>
    <contour>
      <point x="598" y="1293" type="curve" smooth="yes"/>
      <point x="598" y="1225"/>
      <point x="562" y="1189"/>
      <point x="497" y="1189" type="curve" smooth="yes"/>
      <point x="433" y="1189"/>
      <point x="396" y="1227"/>
      <point x="396" y="1295" type="curve" smooth="yes"/>
      <point x="396" y="1365"/>
      <point x="430" y="1400"/>
      <point x="497" y="1400" type="curve" smooth="yes"/>
      <point x="564" y="1400"/>
      <point x="598" y="1364"/>
    </contour>
  </outline>
</glyph>
<glyph name="ae" format="1">
  <advance width="1289"/>
  <unicode hex="00E6"/>
  <outline>
    <contour>
      <point x="425" y="571" type="curve"/>
      <point x="430" y="571" type="line"/>
      <point x="222" y="565"/>
      <point x="131" y="466"/>
      <point x="131" y="272" type="curve" smooth="yes"/>
      <point x="131" y="76"/>
      <point x="229" y="-23"/>
      <point x="378" y="-23" type="curve" smooth="yes"/>
      <point x="503" y="-23"/>
      <point x="592" y="28"/>
      <point x="645" y="131" type="curve"/>
      <point x="692" y="28"/>
      <point x="774" y="-23"/>
      <point x="890" y="-23" type="curve" smooth="yes"/>
      <point x="961" y="-23"/>
      <point x="1105" y="8"/>
      <point x="1146" y="109" type="curve"/>
      <point x="1092" y="186" type="line"/>
      <point x="1081" y="158"/>
      <point x="1067" y="138"/>
      <point x="1048" y="127" type="curve"/>
      <point x="983" y="101"/>
      <point x="928" y="88"/>
      <point x="882" y="88" type="curve" smooth="yes"/>
      <point x="834" y="88"/>
      <point x="796" y="102"/>
      <point x="776" y="129" type="curve" smooth="yes"/>
      <point x="723" y="202"/>
      <point x="696" y="312"/>
      <point x="690" y="455" type="curve"/>
      <point x="1149" y="455" type="line"/>
      <point x="1153" y="563" type="line" smooth="yes"/>
      <point x="1153" y="871"/>
      <point x="1067" y="1000"/>
      <point x="874" y="1000" type="curve" smooth="yes"/>
      <point x="769" y="1000"/>
      <point x="695" y="955"/>
      <point x="653" y="865" type="curve"/>
      <point x="631" y="951"/>
      <point x="555" y="994"/>
      <point x="426" y="994" type="curve" smooth="yes"/>
      <point x="297" y="994"/>
      <point x="208" y="952"/>
      <point x="158" y="869" type="curve"/>
      <point x="217" y="787" type="line"/>
      <point x="256" y="846"/>
      <point x="332" y="879"/>
      <point x="421" y="879" type="curve" smooth="yes"/>
      <point x="440" y="879"/>
      <point x="477" y="870"/>
      <point x="487" y="868" type="curve"/>
      <point x="577" y="863"/>
      <point x="577" y="807"/>
      <point x="577" y="575" type="curve"/>
      <point x="558" y="572"/>
      <point x="507" y="571"/>
    </contour>
    <contour>
      <point x="390" y="87" type="curve"/>
      <point x="390" y="88" type="line"/>
      <point x="281" y="88"/>
      <point x="243" y="147"/>
      <point x="243" y="279" type="curve" smooth="yes"/>
      <point x="243" y="417"/>
      <point x="311" y="463"/>
      <point x="455" y="463" type="curve" smooth="yes"/>
      <point x="475" y="463"/>
      <point x="493" y="463"/>
      <point x="510" y="463" type="curve" smooth="yes"/>
      <point x="532" y="463"/>
      <point x="553" y="464"/>
      <point x="577" y="468" type="curve"/>
      <point x="577" y="222" type="line"/>
      <point x="549" y="141"/>
      <point x="483" y="87"/>
    </contour>
    <contour>
      <point x="1032" y="560" type="curve"/>
      <point x="979" y="560" type="line"/>
      <point x="689" y="560" type="line"/>
      <point x="692" y="786"/>
      <point x="733" y="887"/>
      <point x="867" y="887" type="curve" smooth="yes"/>
      <point x="989" y="887"/>
      <point x="1028" y="798"/>
    </contour>
  </outline>
</glyph>
<glyph name="ccedilla" format="1">
  <advance width="936"/>
  <unicode hex="00E7"/>
  <outline>
    <contour>
      <point x="241" y="494" type="curve"/>
      <point x="240" y="494" type="line"/>
      <point x="240" y="743"/>
      <point x="299" y="889"/>
      <point x="506" y="889" type="curve" smooth="yes"/>
      <point x="551" y="889"/>
      <point x="606" y="877"/>
      <point x="669" y="854" type="curve"/>
      <point x="677" y="759"/>
      <point x="682" y="699"/>
      <point x="683" y="672" type="curve"/>
      <point x="788" y="682" type="line"/>
      <point x="785" y="743"/>
      <point x="777" y="829"/>
      <point x="764" y="940" type="curve"/>
      <point x="680" y="981"/>
      <point x="595" y="1001"/>
      <point x="510" y="1001" type="curve" smooth="yes"/>
      <point x="232" y="1001"/>
      <point x="125" y="818"/>
      <point x="125" y="496" type="curve" smooth="yes"/>
      <point x="125" y="163"/>
      <point x="239" y="-20"/>
      <point x="510" y="-20" type="curve" smooth="yes"/>
      <point x="582" y="-20"/>
      <point x="751" y="7"/>
      <point x="800" y="115" type="curve"/>
      <point x="747" y="197" type="line"/>
      <point x="695" y="111"/>
      <point x="573" y="90"/>
      <point x="510" y="90" type="curve" smooth="yes"/>
      <point x="299" y="90"/>
      <point x="241" y="247"/>
    </contour>
    <contour>
      <point x="478" y="-117" type="curve"/>
      <point x="480" y="-119" type="line"/>
      <point x="491" y="-80" type="line"/>
      <point x="457" y="-80"/>
      <point x="422" y="-83"/>
      <point x="387" y="-90" type="curve"/>
      <point x="386" y="-186" type="line"/>
      <point x="415" y="-189"/>
      <point x="438" y="-193"/>
      <point x="453" y="-198" type="curve"/>
      <point x="520" y="-198"/>
      <point x="555" y="-221"/>
      <point x="555" y="-284" type="curve" smooth="yes"/>
      <point x="555" y="-341"/>
      <point x="526" y="-372"/>
      <point x="471" y="-372" type="curve" smooth="yes"/>
      <point x="452" y="-372" type="line"/>
      <point x="414" y="-369"/>
      <point x="385" y="-362"/>
      <point x="366" y="-351" type="curve"/>
      <point x="351" y="-431" type="line"/>
      <point x="395" y="-450"/>
      <point x="440" y="-461"/>
      <point x="478" y="-461" type="curve" smooth="yes"/>
      <point x="583" y="-461"/>
      <point x="648" y="-396"/>
      <point x="648" y="-279" type="curve" smooth="yes"/>
      <point x="648" y="-172"/>
      <point x="581" y="-117"/>
    </contour>
  </outline>
</glyph>
<glyph name="eacute" format="1">
  <advance width="971"/>
  <unicode hex="00E9"/>
  <outline>
    <contour>
      <point x="334" y="1159" type="line"/>
      <point x="358" y="1107" type="line"/>
      <point x="743" y="1258" type="line"/>
      <point x="693" y="1372" type="line"/>
    </contour>
    <component base="e"/>
  </outline>
</glyph>
<glyph name="ecircumflex" format="1">
  <advance width="975"/>
  <unicode hex="00EA"/>
  <outline>
    <contour>
      <point x="724" y="551" type="curve"/>
      <point x="666" y="551" type="line"/>
      <point x="244" y="553" type="line"/>
      <point x="253" y="786"/>
      <point x="326" y="891"/>
      <point x="493" y="891" type="curve" smooth="yes"/>
      <point x="668" y="891"/>
      <point x="716" y="766"/>
    </contour>
    <contour>
      <point x="512" y="89" type="curve"/>
      <point x="511" y="90" type="line"/>
      <point x="327" y="90"/>
      <point x="247" y="233"/>
      <point x="244" y="446" type="curve"/>
      <point x="835" y="446" type="line"/>
      <point x="835" y="473"/>
      <point x="837" y="508"/>
      <point x="840" y="553" type="curve"/>
      <point x="840" y="846"/>
      <point x="717" y="1000"/>
      <point x="490" y="1000" type="curve" smooth="yes"/>
      <point x="246" y="1000"/>
      <point x="129" y="817"/>
      <point x="129" y="491" type="curve" smooth="yes"/>
      <point x="129" y="163"/>
      <point x="240" y="-21"/>
      <point x="510" y="-21" type="curve" smooth="yes"/>
      <point x="695" y="-21"/>
      <point x="788" y="46"/>
      <point x="822" y="118" type="curve"/>
      <point x="767" y="198" type="line"/>
      <point x="703" y="125"/>
      <point x="618" y="89"/>
    </contour>
    <contour>
      <point x="533" y="1515" type="line"/>
      <point x="435" y="1515" type="line"/>
      <point x="222" y="1181" type="line"/>
      <point x="337" y="1181" type="line"/>
      <point x="484" y="1439" type="line"/>
      <point x="630" y="1181" type="line"/>
      <point x="744" y="1181" type="line"/>
    </contour>
  </outline>
</glyph>
<glyph name="edieresis" format="1">
  <advance width="977"/>
  <unicode hex="00EB"/>
  <outline>
    <contour>
      <point x="725" y="551" type="curve"/>
      <point x="667" y="551" type="line"/>
      <point x="245" y="553" type="line"/>
      <point x="254" y="786"/>
      <point x="327" y="891"/>
      <point x="494" y="891" type="curve" smooth="yes"/>
      <point x="669" y="891"/>
      <point x="717" y="766"/>
    </contour>
    <contour>
      <point x="513" y="89" type="curve"/>
      <point x="512" y="90" type="line"/>
      <point x="328" y="90"/>
      <point x="248" y="233"/>
      <point x="245" y="446" type="curve"/>
      <point x="836" y="446" type="line"/>
      <point x="836" y="473"/>
      <point x="838" y="508"/>
      <point x="841" y="553" type="curve"/>
      <point x="841" y="846"/>
      <point x="718" y="1000"/>
      <point x="491" y="1000" type="curve" smooth="yes"/>
      <point x="247" y="1000"/>
      <point x="130" y="817"/>
      <point x="130" y="491" type="curve" smooth="yes"/>
      <point x="130" y="163"/>
      <point x="241" y="-21"/>
      <point x="511" y="-21" type="curve" smooth="yes"/>
      <point x="696" y="-21"/>
      <point x="789" y="46"/>
      <point x="823" y="118" type="curve"/>
      <point x="768" y="198" type="line"/>
      <point x="704" y="125"/>
      <point x="619" y="89"/>
    </contour>
    <contour>
      <point x="303" y="1246" type="curve" smooth="yes"/>
      <point x="350" y="1246"/>
      <point x="375" y="1278"/>
      <point x="375" y="1330" type="curve" smooth="yes"/>
      <point x="375" y="1381"/>
      <point x="350" y="1412"/>
      <point x="303" y="1412" type="curve" smooth="yes"/>
      <point x="258" y="1412"/>
      <point x="231" y="1381"/>
      <point x="231" y="1330" type="curve" smooth="yes"/>
      <point x="231" y="1279"/>
      <point x="259" y="1246"/>
    </contour>
    <contour>
      <point x="592" y="1330" type="curve" smooth="yes"/>
      <point x="592" y="1279"/>
      <point x="621" y="1246"/>
      <point x="666" y="1246" type="curve" smooth="yes"/>
      <point x="710" y="1246"/>
      <point x="738" y="1281"/>
      <point x="738" y="1330" type="curve" smooth="yes"/>
      <point x="738" y="1379"/>
      <point x="710" y="1412"/>
      <point x="666" y="1412" type="curve" smooth="yes"/>
      <point x="621" y="1412"/>
      <point x="592" y="1379"/>
    </contour>
  </outline>
</glyph>
<glyph name="iacute" format="1">
  <advance width="677"/>
  <unicode hex="00ED"/>
  <outline>
    <contour>
      <point x="150" y="868" type="line"/>
      <point x="295" y="868" type="line"/>
      <point x="295" y="162" type="line"/>
      <point x="141" y="117" type="line"/>
      <point x="141" y="0" type="line"/>
      <point x="552" y="0" type="line"/>
      <point x="552" y="117" type="line"/>
      <point x="406" y="162" type="line"/>
      <point x="406" y="985" type="line"/>
      <point x="150" y="985" type="line"/>
    </contour>
    <contour>
      <point x="144" y="1247" type="line"/>
      <point x="144" y="1182" type="line"/>
      <point x="519" y="1415" type="line"/>
      <point x="441" y="1507" type="line"/>
    </contour>
  </outline>
</glyph>
<glyph name="icircumflex" format="1">
  <advance width="763"/>
  <unicode hex="00EE"/>
  <outline>
    <contour>
      <point x="198" y="868" type="line"/>
      <point x="343" y="868" type="line"/>
      <point x="343" y="162" type="line"/>
      <point x="189" y="117" type="line"/>
      <point x="189" y="0" type="line"/>
      <point x="600" y="0" type="line"/>
      <point x="600" y="117" type="line"/>
      <point x="454" y="162" type="line"/>
      <point x="454" y="985" type="line"/>
      <point x="198" y="985" type="line"/>
    </contour>
    <contour>
      <point x="430" y="1516" type="line"/>
      <point x="331" y="1516" type="line"/>
      <point x="118" y="1182" type="line"/>
      <point x="233" y="1182" type="line"/>
      <point x="380" y="1440" type="line"/>
      <point x="528" y="1182" type="line"/>
      <point x="642" y="1182" type="line"/>
    </contour>
  </outline>
</glyph>
<glyph name="ntilde" format="1">
  <advance width="975"/>
  <unicode hex="00F1"/>
  <outline>
    <contour>
      <point x="555" y="1002" type="curve"/>
      <point x="553" y="1001" type="line"/>
      <point x="473" y="1001"/>
      <point x="384" y="967"/>
      <point x="339" y="941" type="curve" smooth="yes"/>
      <point x="316" y="928"/>
      <point x="287" y="908"/>
      <point x="250" y="883" type="curve"/>
      <point x="245" y="985" type="line"/>
      <point x="146" y="985" type="line"/>
      <point x="146" y="0" type="line"/>
      <point x="256" y="0" type="line"/>
      <point x="256" y="510" type="line" smooth="yes"/>
      <point x="256" y="613"/>
      <point x="260" y="710"/>
      <point x="269" y="799" type="curve"/>
      <point x="364" y="858"/>
      <point x="433" y="886"/>
      <point x="548" y="886" type="curve" smooth="yes"/>
      <point x="670" y="886"/>
      <point x="720" y="793"/>
      <point x="720" y="640" type="curve" smooth="yes"/>
      <point x="720" y="1" type="line"/>
      <point x="832" y="1" type="line"/>
      <point x="832" y="556" type="line" smooth="yes"/>
      <point x="832" y="591"/>
      <point x="834" y="607"/>
      <point x="821" y="675" type="curve" smooth="yes"/>
      <point x="816" y="700"/>
      <point x="815" y="719"/>
      <point x="815" y="732" type="curve" smooth="yes"/>
      <point x="810" y="903"/>
      <point x="715" y="1002"/>
    </contour>
    <contour>
      <point x="210" y="1310" type="curve"/>
      <point x="210" y="1314" type="line"/>
      <point x="279" y="1265" type="line"/>
      <point x="318" y="1323"/>
      <point x="350" y="1351"/>
      <point x="378" y="1351" type="curve" smooth="yes"/>
      <point x="388" y="1351"/>
      <point x="402" y="1345"/>
      <point x="421" y="1334" type="curve" smooth="yes"/>
      <point x="480" y="1298" type="line" smooth="yes"/>
      <point x="536" y="1264"/>
      <point x="576" y="1245"/>
      <point x="606" y="1245" type="curve" smooth="yes"/>
      <point x="660" y="1245"/>
      <point x="716" y="1284"/>
      <point x="758" y="1379" type="curve"/>
      <point x="695" y="1426" type="line"/>
      <point x="657" y="1370"/>
      <point x="629" y="1344"/>
      <point x="603" y="1344" type="curve" smooth="yes"/>
      <point x="582" y="1344"/>
      <point x="537" y="1373"/>
      <point x="503" y="1393" type="curve" smooth="yes"/>
      <point x="446" y="1426"/>
      <point x="403" y="1443"/>
      <point x="372" y="1443" type="curve" smooth="yes"/>
      <point x="319" y="1443"/>
      <point x="258" y="1405"/>
    </contour>
  </outline>
</glyph>
<glyph name="ograve" format="1">
  <advance width="1004"/>
  <unicode hex="00F2"/>
  <outline>
    <contour>
      <point x="504" y="92" type="curve" smooth="yes"/>
      <point x="289" y="92"/>
      <point x="244" y="255"/>
      <point x="244" y="489" type="curve" smooth="yes"/>
      <point x="244" y="725"/>
      <point x="289" y="889"/>
      <point x="502" y="889" type="curve" smooth="yes"/>
      <point x="708" y="889"/>
      <point x="760" y="735"/>
      <point x="760" y="489" type="curve" smooth="yes"/>
      <point x="760" y="241"/>
      <point x="706" y="92"/>
    </contour>
    <contour>
      <point x="127" y="492" type="curve"/>
      <point x="128" y="492" type="line"/>
      <point x="128" y="176"/>
      <point x="225" y="-20"/>
      <point x="502" y="-20" type="curve" smooth="yes"/>
      <point x="786" y="-20"/>
      <point x="875" y="177"/>
      <point x="875" y="492" type="curve" smooth="yes"/>
      <point x="875" y="806"/>
      <point x="778" y="1001"/>
      <point x="501" y="1001" type="curve" smooth="yes"/>
      <point x="234" y="1001"/>
      <point x="127" y="819"/>
    </contour>
    <contour>
      <point x="689" y="1247" type="line"/>
      <point x="393" y="1507" type="line"/>
      <point x="313" y="1415" type="line"/>
      <point x="636" y="1182" type="line"/>
    </contour>
  </outline>
</glyph>
<glyph name="oacute" format="1">
  <advance width="1003"/>
  <unicode hex="00F3"/>
  <outline>
    <contour>
      <point x="503" y="92" type="curve" smooth="yes"/>
      <point x="288" y="92"/>
      <point x="243" y="255"/>
      <point x="243" y="489" type="curve" smooth="yes"/>
      <point x="243" y="725"/>
      <point x="288" y="889"/>
      <point x="501" y="889" type="curve" smooth="yes"/>
      <point x="707" y="889"/>
      <point x="759" y="735"/>
      <point x="759" y="489" type="curve" smooth="yes"/>
      <point x="759" y="241"/>
      <point x="705" y="92"/>
    </contour>
    <contour>
      <point x="126" y="492" type="curve"/>
      <point x="127" y="492" type="line"/>
      <point x="127" y="176"/>
      <point x="224" y="-20"/>
      <point x="501" y="-20" type="curve" smooth="yes"/>
      <point x="785" y="-20"/>
      <point x="874" y="177"/>
      <point x="874" y="492" type="curve" smooth="yes"/>
      <point x="874" y="806"/>
      <point x="777" y="1001"/>
      <point x="500" y="1001" type="curve" smooth="yes"/>
      <point x="233" y="1001"/>
      <point x="126" y="819"/>
    </contour>
    <contour>
      <point x="318" y="1247" type="line"/>
      <point x="371" y="1182" type="line"/>
      <point x="691" y="1415" type="line"/>
      <point x="612" y="1507" type="line"/>
    </contour>
  </outline>
</glyph>
<glyph name="ocircumflex" format="1">
  <advance width="1006"/>
  <unicode hex="00F4"/>
  <outline>
    <contour>
      <point x="505" y="92" type="curve" smooth="yes"/>
      <point x="290" y="92"/>
      <point x="245" y="255"/>
      <point x="245" y="489" type="curve" smooth="yes"/>
      <point x="245" y="725"/>
      <point x="290" y="889"/>
      <point x="503" y="889" type="curve" smooth="yes"/>
      <point x="709" y="889"/>
      <point x="761" y="735"/>
      <point x="761" y="489" type="curve" smooth="yes"/>
      <point x="761" y="241"/>
      <point x="707" y="92"/>
    </contour>
    <contour>
      <point x="128" y="492" type="curve"/>
      <point x="129" y="492" type="line"/>
      <point x="129" y="176"/>
      <point x="226" y="-20"/>
      <point x="503" y="-20" type="curve" smooth="yes"/>
      <point x="787" y="-20"/>
      <point x="876" y="177"/>
      <point x="876" y="492" type="curve" smooth="yes"/>
      <point x="876" y="806"/>
      <point x="779" y="1001"/>
      <point x="502" y="1001" type="curve" smooth="yes"/>
      <point x="235" y="1001"/>
      <point x="128" y="819"/>
    </contour>
    <contour>
      <point x="552" y="1516" type="line"/>
      <point x="452" y="1516" type="line"/>
      <point x="241" y="1182" type="line"/>
      <point x="355" y="1182" type="line"/>
      <point x="502" y="1440" type="line"/>
      <point x="649" y="1182" type="line"/>
      <point x="764" y="1182" type="line"/>
    </contour>
  </outline>
</glyph>
<glyph name="odieresis" format="1">
  <advance width="1008"/>
  <unicode hex="00F6"/>
  <outline>
    <contour>
      <point x="506" y="92" type="curve" smooth="yes"/>
      <point x="291" y="92"/>
      <point x="246" y="255"/>
      <point x="246" y="489" type="curve" smooth="yes"/>
      <point x="246" y="725"/>
      <point x="291" y="889"/>
      <point x="504" y="889" type="curve" smooth="yes"/>
      <point x="710" y="889"/>
      <point x="762" y="735"/>
      <point x="762" y="489" type="curve" smooth="yes"/>
      <point x="762" y="241"/>
      <point x="708" y="92"/>
    </contour>
    <contour>
      <point x="129" y="492" type="curve"/>
      <point x="130" y="492" type="line"/>
      <point x="130" y="176"/>
      <point x="227" y="-20"/>
      <point x="504" y="-20" type="curve" smooth="yes"/>
      <point x="788" y="-20"/>
      <point x="877" y="177"/>
      <point x="877" y="492" type="curve" smooth="yes"/>
      <point x="877" y="806"/>
      <point x="780" y="1001"/>
      <point x="503" y="1001" type="curve" smooth="yes"/>
      <point x="236" y="1001"/>
      <point x="129" y="819"/>
    </contour>
    <contour>
      <point x="249" y="1331" type="curve" smooth="yes"/>
      <point x="249" y="1280"/>
      <point x="277" y="1247"/>
      <point x="321" y="1247" type="curve" smooth="yes"/>
      <point x="368" y="1247"/>
      <point x="395" y="1279"/>
      <point x="395" y="1331" type="curve" smooth="yes"/>
      <point x="395" y="1382"/>
      <point x="368" y="1413"/>
      <point x="321" y="1413" type="curve" smooth="yes"/>
      <point x="277" y="1413"/>
      <point x="249" y="1379"/>
    </contour>
    <contour>
      <point x="612" y="1331" type="curve" smooth="yes"/>
      <point x="612" y="1278"/>
      <point x="643" y="1247"/>
      <point x="684" y="1247" type="curve" smooth="yes"/>
      <point x="726" y="1247"/>
      <point x="757" y="1280"/>
      <point x="757" y="1331" type="curve" smooth="yes"/>
      <point x="757" y="1380"/>
      <point x="729" y="1413"/>
      <point x="684" y="1413" type="curve" smooth="yes"/>
      <point x="640" y="1413"/>
      <point x="612" y="1380"/>
    </contour>
  </outline>
</glyph>
<glyph name="oslash" format="1">
  <advance width="1004"/>
  <unicode hex="00F8"/>
  <outline>
    <contour>
      <point x="126" y="492" type="curve" smooth="yes"/>
      <point x="126" y="283"/>
      <point x="165" y="114"/>
      <point x="283" y="59" type="curve"/>
      <point x="230" y="-66" type="line"/>
      <point x="316" y="-109" type="line"/>
      <point x="364" y="10" type="line"/>
      <point x="402" y="-10"/>
      <point x="447" y="-20"/>
      <point x="500" y="-20" type="curve" smooth="yes"/>
      <point x="770" y="-20"/>
      <point x="874" y="162"/>
      <point x="874" y="492" type="curve" smooth="yes"/>
      <point x="874" y="689"/>
      <point x="837" y="861"/>
      <point x="725" y="915" type="curve"/>
      <point x="780" y="1051" type="line"/>
      <point x="691" y="1092" type="line"/>
      <point x="642" y="967" type="line"/>
      <point x="601" y="990"/>
      <point x="553" y="1001"/>
      <point x="500" y="1001" type="curve" smooth="yes"/>
      <point x="233" y="1001"/>
      <point x="126" y="819"/>
    </contour>
    <contour>
      <point x="600" y="862" type="curve"/>
      <point x="599" y="862" type="line"/>
      <point x="327" y="174" type="line"/>
      <point x="258" y="221"/>
      <point x="242" y="320"/>
      <point x="242" y="489" type="curve" smooth="yes"/>
      <point x="242" y="725"/>
      <point x="287" y="889"/>
      <point x="500" y="889" type="curve" smooth="yes"/>
      <point x="537" y="889"/>
      <point x="571" y="880"/>
    </contour>
    <contour>
      <point x="502" y="92" type="curve"/>
      <point x="503" y="92" type="line"/>
      <point x="462" y="92"/>
      <point x="429" y="100"/>
      <point x="406" y="117" type="curve"/>
      <point x="629" y="707" type="line"/>
      <point x="662" y="736"/>
      <point x="687" y="763"/>
      <point x="705" y="786" type="curve"/>
      <point x="740" y="723"/>
      <point x="758" y="624"/>
      <point x="758" y="489" type="curve" smooth="yes"/>
      <point x="758" y="241"/>
      <point x="704" y="92"/>
    </contour>
  </outline>
</glyph>
<glyph name="ugrave" format="1">
  <advance width="968"/>
  <unicode hex="00F9"/>
  <outline>
    <contour>
      <point x="715" y="104" type="curve"/>
      <point x="715" y="0" type="line"/>
      <point x="822" y="0" type="line"/>
      <point x="822" y="985" type="line"/>
      <point x="711" y="985" type="line"/>
      <point x="711" y="397" type="line" smooth="yes"/>
      <point x="711" y="336"/>
      <point x="706" y="265"/>
      <point x="695" y="184" type="curve"/>
      <point x="617" y="138" type="line" smooth="yes"/>
      <point x="581" y="119"/>
      <point x="503" y="92"/>
      <point x="436" y="92" type="curve" smooth="yes"/>
      <point x="257" y="92"/>
      <point x="248" y="230"/>
      <point x="248" y="410" type="curve" smooth="yes"/>
      <point x="248" y="985" type="line"/>
      <point x="139" y="985" type="line"/>
      <point x="139" y="336" type="line" smooth="yes"/>
      <point x="139" y="105"/>
      <point x="221" y="-20"/>
      <point x="413" y="-20" type="curve" smooth="yes"/>
      <point x="529" y="-20"/>
      <point x="618" y="34"/>
    </contour>
    <contour>
      <point x="669" y="1247" type="line"/>
      <point x="373" y="1507" type="line"/>
      <point x="293" y="1415" type="line"/>
      <point x="616" y="1182" type="line"/>
    </contour>
  </outline>
</glyph>
<glyph name="ucircumflex" format="1">
  <advance width="968"/>
  <unicode hex="00FB"/>
  <outline>
    <contour>
      <point x="715" y="104" type="curve"/>
      <point x="715" y="0" type="line"/>
      <point x="822" y="0" type="line"/>
      <point x="822" y="985" type="line"/>
      <point x="711" y="985" type="line"/>
      <point x="711" y="397" type="line" smooth="yes"/>
      <point x="711" y="336"/>
      <point x="706" y="265"/>
      <point x="695" y="184" type="curve"/>
      <point x="617" y="138" type="line" smooth="yes"/>
      <point x="581" y="119"/>
      <point x="503" y="92"/>
      <point x="436" y="92" type="curve" smooth="yes"/>
      <point x="257" y="92"/>
      <point x="248" y="230"/>
      <point x="248" y="410" type="curve" smooth="yes"/>
      <point x="248" y="985" type="line"/>
      <point x="139" y="985" type="line"/>
      <point x="139" y="336" type="line" smooth="yes"/>
      <point x="139" y="105"/>
      <point x="221" y="-20"/>
      <point x="413" y="-20" type="curve" smooth="yes"/>
      <point x="529" y="-20"/>
      <point x="618" y="34"/>
    </contour>
    <contour>
      <point x="531" y="1516" type="line"/>
      <point x="431" y="1516" type="line"/>
      <point x="220" y="1182" type="line"/>
      <point x="334" y="1182" type="line"/>
      <point x="481" y="1440" type="line"/>
      <point x="628" y="1182" type="line"/>
      <point x="742" y="1182" type="line"/>
    </contour>
  </outline>
</glyph>
<glyph name="udieresis" format="1">
  <advance width="969"/>
  <unicode hex="00FC"/>
  <outline>
    <contour>
      <point x="716" y="104" type="curve"/>
      <point x="716" y="0" type="line"/>
      <point x="823" y="0" type="line"/>
      <point x="823" y="985" type="line"/>
      <point x="712" y="985" type="line"/>
      <point x="712" y="397" type="line" smooth="yes"/>
      <point x="712" y="336"/>
      <point x="707" y="265"/>
      <point x="696" y="184" type="curve"/>
      <point x="618" y="138" type="line" smooth="yes"/>
      <point x="582" y="119"/>
      <point x="504" y="92"/>
      <point x="437" y="92" type="curve" smooth="yes"/>
      <point x="258" y="92"/>
      <point x="249" y="230"/>
      <point x="249" y="410" type="curve" smooth="yes"/>
      <point x="249" y="985" type="line"/>
      <point x="140" y="985" type="line"/>
      <point x="140" y="336" type="line" smooth="yes"/>
      <point x="140" y="105"/>
      <point x="222" y="-20"/>
      <point x="414" y="-20" type="curve" smooth="yes"/>
      <point x="530" y="-20"/>
      <point x="619" y="34"/>
    </contour>
    <contour>
      <point x="228" y="1331" type="curve" smooth="yes"/>
      <point x="228" y="1280"/>
      <point x="256" y="1247"/>
      <point x="300" y="1247" type="curve" smooth="yes"/>
      <point x="347" y="1247"/>
      <point x="372" y="1279"/>
      <point x="372" y="1331" type="curve" smooth="yes"/>
      <point x="372" y="1382"/>
      <point x="347" y="1413"/>
      <point x="300" y="1413" type="curve" smooth="yes"/>
      <point x="256" y="1413"/>
      <point x="228" y="1379"/>
    </contour>
    <contour>
      <point x="590" y="1331" type="curve" smooth="yes"/>
      <point x="590" y="1280"/>
      <point x="618" y="1247"/>
      <point x="662" y="1247" type="curve" smooth="yes"/>
      <point x="707" y="1247"/>
      <point x="734" y="1280"/>
      <point x="734" y="1331" type="curve" smooth="yes"/>
      <point x="734" y="1380"/>
      <point x="706" y="1413"/>
      <point x="662" y="1413" type="curve" smooth="yes"/>
      <point x="617" y="1413"/>
      <point x="590" y="1380"/>
    </contour>
  </outline>
</glyph>
<glyph name="ydieresis" format="1">
  <advance width="984"/>
  <unicode hex="00FF"/>
  <outline>
    <contour>
      <point x="254" y="-391" type="curve"/>
      <point x="343" y="-391"/>
      <point x="406" y="-384"/>
      <point x="443" y="-371" type="curve" smooth="yes"/>
      <point x="582" y="-315"/>
      <point x="691" y="24"/>
      <point x="715" y="197" type="curve" smooth="yes"/>
      <point x="859" y="985" type="line"/>
      <point x="740" y="985" type="line"/>
      <point x="648" y="467" type="line" smooth="yes"/>
      <point x="637" y="396"/>
      <point x="620" y="322"/>
      <point x="590" y="248" type="curve" smooth="yes"/>
      <point x="574" y="209" type="line" smooth="yes"/>
      <point x="559" y="173"/>
      <point x="537" y="131"/>
      <point x="485" y="131" type="curve"/>
      <point x="406" y="194"/>
      <point x="348" y="376"/>
      <point x="326" y="510" type="curve" smooth="yes"/>
      <point x="314" y="573"/>
      <point x="297" y="661"/>
      <point x="276" y="775" type="curve" smooth="yes"/>
      <point x="238" y="985" type="line"/>
      <point x="119" y="985" type="line"/>
      <point x="230" y="402" type="line" smooth="yes"/>
      <point x="271" y="226"/>
      <point x="325" y="102"/>
      <point x="425" y="30" type="curve"/>
      <point x="441" y="27"/>
      <point x="457" y="23"/>
      <point x="474" y="23" type="curve" smooth="yes"/>
      <point x="494" y="23"/>
      <point x="528" y="30"/>
      <point x="539" y="30" type="curve"/>
      <point x="509" y="-89" type="line"/>
      <point x="509" y="-193"/>
      <point x="460" y="-237"/>
      <point x="406" y="-251" type="curve"/>
      <point x="378" y="-265"/>
      <point x="336" y="-277"/>
      <point x="281" y="-286" type="curve"/>
      <point x="278" y="-287"/>
      <point x="275" y="-287"/>
      <point x="271" y="-287" type="curve" smooth="yes"/>
      <point x="254" y="-287"/>
      <point x="228" y="-279"/>
      <point x="198" y="-249" type="curve"/>
      <point x="173" y="-335" type="line"/>
      <point x="190" y="-362"/>
      <point x="217" y="-381"/>
    </contour>
    <contour>
      <point x="245" y="1331" type="curve" smooth="yes"/>
      <point x="245" y="1280"/>
      <point x="273" y="1247"/>
      <point x="317" y="1247" type="curve" smooth="yes"/>
      <point x="364" y="1247"/>
      <point x="389" y="1279"/>
      <point x="389" y="1331" type="curve" smooth="yes"/>
      <point x="389" y="1382"/>
      <point x="364" y="1413"/>
      <point x="317" y="1413" type="curve" smooth="yes"/>
      <point x="273" y="1413"/>
      <point x="245" y="1380"/>
    </contour>
    <contour>
      <point x="607" y="1331" type="curve" smooth="yes"/>
      <point x="607" y="1280"/>
      <point x="634" y="1247"/>
      <point x="678" y="1247" type="curve" smooth="yes"/>
      <point x="725" y="1247"/>
      <point x="752" y="1280"/>
      <point x="752" y="1331" type="curve" smooth="yes"/>
      <point x="752" y="1380"/>
      <point x="725" y="1413"/>
      <point x="678" y="1413" type="curve" smooth="yes"/>
      <point x="634" y="1413"/>
      <point x="607" y="1380"/>
    </contour>
  </outline>
</glyph>
<glyph name="dotlessi" format="1">
  <advance width="703"/>
  <unicode hex="0131"/>
  <outline>
    <contour>
      <point x="103" y="889" type="line"/>
      <point x="295" y="889" type="line"/>
      <point x="295" y="96" type="line"/>
      <point x="103" y="96" type="line"/>
      <point x="103" y="0" type="line"/>
      <point x="615" y="0" type="line"/>
      <point x="615" y="96" type="line"/>
      <point x="423" y="96" type="line"/>
      <point x="423" y="985" type="line"/>
      <point x="103" y="985" type="line"/>
    </contour>
  </outline>
</glyph>
<glyph name="OE" format="1">
  <advance width="2131"/>
  <unicode hex="0152"/>
  <outline>
    <contour>
      <point x="347" y="96"/>
      <point x="277" y="264"/>
      <point x="277" y="645" type="curve" smooth="yes"/>
      <point x="277" y="1030"/>
      <point x="350" y="1196"/>
      <point x="597" y="1196" type="curve" smooth="yes"/>
      <point x="844" y="1196"/>
      <point x="917" y="1030"/>
      <point x="917" y="645" type="curve" smooth="yes"/>
      <point x="917" y="264"/>
      <point x="847" y="96"/>
      <point x="597" y="96" type="curve" smooth="yes"/>
    </contour>
    <contour>
      <point x="752" y="-16"/>
      <point x="852" y="30"/>
      <point x="917" y="114" type="curve"/>
      <point x="917" y="0" type="line"/>
      <point x="1606" y="0" type="line"/>
      <point x="1590" y="104" type="line"/>
      <point x="1045" y="104" type="line"/>
      <point x="1045" y="649" type="line"/>
      <point x="1546" y="649" type="line"/>
      <point x="1546" y="745" type="line"/>
      <point x="1045" y="745" type="line"/>
      <point x="1045" y="1180" type="line"/>
      <point x="1580" y="1180" type="line"/>
      <point x="1602" y="1284" type="line"/>
      <point x="917" y="1284" type="line"/>
      <point x="917" y="1173" type="line"/>
      <point x="852" y="1261"/>
      <point x="750" y="1308"/>
      <point x="597" y="1308" type="curve" smooth="yes"/>
      <point x="248" y="1308"/>
      <point x="149" y="1065"/>
      <point x="149" y="648" type="curve" smooth="yes"/>
      <point x="149" y="232"/>
      <point x="236" y="-16"/>
      <point x="597" y="-16" type="curve" smooth="yes"/>
    </contour>
    <contour>
      <point x="1066" y="1284" type="move" name="top"/>
    </contour>
  </outline>
</glyph>
<glyph name="oe" format="1">
  <advance width="2012"/>
  <unicode hex="0153"/>
  <outline>
    <component base="e"/>
    <component base="o" xOffset="996"/>
    <contour>
      <point x="1006" y="985" type="move" name="top"/>
    </contour>
  </outline>
</glyph>
<glyph name="Ydieresis" format="1">
  <advance width="1049"/>
  <unicode hex="0178"/>
  <outline>
    <contour>
      <point x="968" y="1375" type="curve"/>
      <point x="969" y="1374" type="line"/>
      <point x="835" y="1374" type="line"/>
      <point x="795" y="1285"/>
      <point x="629" y="934"/>
      <point x="589" y="840" type="curve" smooth="yes"/>
      <point x="530" y="711" type="line"/>
      <point x="526" y="711" type="line"/>
      <point x="469" y="840" type="line" smooth="yes"/>
      <point x="425" y="938"/>
      <point x="260" y="1291"/>
      <point x="224" y="1374" type="curve"/>
      <point x="84" y="1374" type="line"/>
      <point x="158" y="1215"/>
      <point x="416" y="693"/>
      <point x="467" y="586" type="curve"/>
      <point x="467" y="0" type="line"/>
      <point x="587" y="0" type="line"/>
      <point x="587" y="588" type="line"/>
      <point x="658" y="744"/>
      <point x="913" y="1256"/>
    </contour>
    <contour>
      <point x="271" y="1699" type="curve" smooth="yes"/>
      <point x="271" y="1648"/>
      <point x="298" y="1617"/>
      <point x="343" y="1617" type="curve" smooth="yes"/>
      <point x="390" y="1617"/>
      <point x="417" y="1648"/>
      <point x="417" y="1699" type="curve" smooth="yes"/>
      <point x="417" y="1750"/>
      <point x="390" y="1781"/>
      <point x="343" y="1781" type="curve" smooth="yes"/>
      <point x="299" y="1781"/>
      <point x="271" y="1748"/>
    </contour>
    <contour>
      <point x="652" y="1759" type="curve" smooth="yes"/>
      <point x="640" y="1744"/>
      <point x="634" y="1724"/>
      <point x="634" y="1699" type="curve" smooth="yes"/>
      <point x="634" y="1650"/>
      <point x="660" y="1617"/>
      <point x="706" y="1617" type="curve" smooth="yes"/>
      <point x="752" y="1617"/>
      <point x="780" y="1650"/>
      <point x="780" y="1699" type="curve" smooth="yes"/>
      <point x="780" y="1747"/>
      <point x="751" y="1781"/>
      <point x="706" y="1781" type="curve" smooth="yes"/>
      <point x="683" y="1781"/>
      <point x="665" y="1774"/>
    </contour>
  </outline>
</glyph>
<glyph name="circumflex" format="1">
  <advance width="869"/>
  <unicode hex="02C6"/>
  <outline>
    <contour>
      <point x="435" y="1260" type="line"/>
      <point x="222" y="1022" type="line"/>
      <point x="136" y="1102" type="line"/>
      <point x="218.829" y="1195.08"/>
      <point x="281.785" y="1266.88"/>
      <point x="382" y="1363" type="curve"/>
      <point x="487" y="1363" type="line"/>
      <point x="586.927" y="1267.15"/>
      <point x="650.337" y="1194.89"/>
      <point x="733" y="1102" type="curve"/>
      <point x="647" y="1022" type="line"/>
    </contour>
    <contour>
      <point x="434.5" y="985" type="move" name="_top"/>
    </contour>
  </outline>
</glyph>
<glyph name="caron" format="1">
  <advance width="410"/>
  <unicode hex="02C7"/>
  <outline>
    <contour>
      <point x="164" y="1106" type="line"/>
      <point x="355.609" y="1363" type="line"/>
      <point x="443.609" y="1303" type="line"/>
      <point x="371.609" y="1205"/>
      <point x="294.609" y="1113"/>
      <point x="215.609" y="1022" type="curve" smooth="yes"/>
      <point x="199.343" y="1002.86"/>
      <point x="181.815" y="993.341"/>
      <point x="164.311" y="993.341" type="curve" smooth="yes"/>
      <point x="146.75" y="993.341"/>
      <point x="129.213" y="1002.93"/>
      <point x="113" y="1022" type="curve" smooth="yes"/>
      <point x="34" y="1113"/>
      <point x="-43" y="1205"/>
      <point x="-115" y="1303" type="curve"/>
      <point x="-27" y="1363" type="line"/>
    </contour>
  </outline>
</glyph>
<glyph name="emdash" format="1">
  <advance width="1124"/>
  <unicode hex="2014"/>
  <outline>
    <contour>
      <point x="116" y="547" type="line"/>
      <point x="116" y="643" type="line"/>
      <point x="1006" y="643" type="line"/>
      <point x="1006" y="547" type="line"/>
    </contour>
  </outline>
</glyph>
<glyph name="quoteleft" format="1">
  <advance width="419"/>
  <unicode hex="2018"/>
  <outline>
    <contour>
      <point x="283" y="1282" type="curve"/>
      <point x="298" y="1325" type="line"/>
      <point x="312" y="1364" type="line"/>
      <point x="245" y="1397" type="line"/>
      <point x="200" y="1299"/>
      <point x="178" y="1275"/>
      <point x="145" y="1128" type="curve" smooth="yes"/>
      <point x="113" y="987" type="line"/>
      <point x="245" y="963" type="line"/>
      <point x="273" y="1147" type="line"/>
      <point x="263" y="1194" type="line"/>
      <point x="268" y="1226"/>
      <point x="278" y="1263"/>
    </contour>
  </outline>
</glyph>
<glyph name="quoteright" format="1">
  <advance width="410"/>
  <unicode hex="2019"/>
  <outline>
    <contour>
      <point x="126" y="1041" type="curve"/>
      <point x="114" y="1006" type="line"/>
      <point x="115" y="1006" type="line"/>
      <point x="182" y="973" type="line"/>
      <point x="232" y="1073"/>
      <point x="264" y="1160"/>
      <point x="278" y="1233" type="curve"/>
      <point x="313" y="1382" type="line"/>
      <point x="183" y="1407" type="line"/>
      <point x="156" y="1239" type="line"/>
      <point x="158" y="1159" type="line"/>
      <point x="150" y="1105"/>
      <point x="143" y="1082"/>
    </contour>
  </outline>
</glyph>
<glyph name="quotedblleft" format="1">
  <advance width="687"/>
  <unicode hex="201C"/>
  <outline>
    <contour>
      <point x="295" y="1334" type="curve" smooth="yes"/>
      <point x="312" y="1382" type="line"/>
      <point x="313" y="1382" type="line"/>
      <point x="244" y="1415" type="line"/>
      <point x="192" y="1302"/>
      <point x="159" y="1212"/>
      <point x="144" y="1145" type="curve" smooth="yes"/>
      <point x="113" y="1006" type="line"/>
      <point x="244" y="981" type="line"/>
      <point x="274" y="1159" type="line"/>
      <point x="264" y="1217" type="line"/>
      <point x="269" y="1259"/>
      <point x="277" y="1285"/>
    </contour>
    <contour>
      <point x="534" y="1204" type="curve"/>
      <point x="539" y="1238"/>
      <point x="554" y="1289"/>
      <point x="579" y="1358" type="curve"/>
      <point x="513" y="1391" type="line"/>
      <point x="458" y="1277"/>
      <point x="422" y="1183"/>
      <point x="405" y="1108" type="curve"/>
      <point x="379" y="981" type="line"/>
      <point x="511" y="956" type="line"/>
      <point x="536" y="1122" type="line"/>
      <point x="536" y="1141"/>
      <point x="534" y="1185"/>
    </contour>
  </outline>
</glyph>
<glyph name="quotedblright" format="1">
  <advance width="680"/>
  <unicode hex="201D"/>
  <outline>
    <contour>
      <point x="425" y="1227" type="curve"/>
      <point x="450" y="1384" type="line"/>
      <point x="580" y="1362" type="line"/>
      <point x="551" y="1229" type="line" smooth="yes"/>
      <point x="535" y="1154"/>
      <point x="503" y="1062"/>
      <point x="450" y="952" type="curve"/>
      <point x="381" y="985" type="line"/>
      <point x="394" y="1028"/>
      <point x="415" y="1064"/>
      <point x="424" y="1130" type="curve"/>
      <point x="424" y="1178" type="line"/>
      <point x="425" y="1200"/>
      <point x="425" y="1216"/>
    </contour>
    <contour>
      <point x="158" y="1251" type="curve"/>
      <point x="182" y="1411" type="line"/>
      <point x="313" y="1386" type="line"/>
      <point x="283" y="1253" type="line"/>
      <point x="270" y="1186"/>
      <point x="236" y="1094"/>
      <point x="181" y="977" type="curve"/>
      <point x="114" y="1010" type="line"/>
      <point x="128" y="1051" type="line" smooth="yes"/>
      <point x="144" y="1097"/>
      <point x="150" y="1118"/>
      <point x="156" y="1155" type="curve"/>
      <point x="156" y="1173"/>
      <point x="158" y="1232"/>
    </contour>
  </outline>
</glyph>
<glyph name="dagger" format="1">
  <advance width="951"/>
  <unicode hex="2020"/>
  <outline>
    <contour>
      <point x="417" y="1081" type="line"/>
      <point x="417" y="1511" type="line"/>
      <point x="531" y="1511" type="line"/>
      <point x="531" y="1081" type="line"/>
      <point x="837" y="1081" type="line"/>
      <point x="837" y="977" type="line"/>
      <point x="531" y="977" type="line"/>
      <point x="531" y="-238" type="line"/>
      <point x="419" y="-238" type="line"/>
      <point x="419" y="975" type="line"/>
      <point x="109" y="975" type="line"/>
      <point x="109" y="1081" type="line"/>
    </contour>
  </outline>
</glyph>
<glyph name="daggerdbl" format="1">
  <advance width="1000"/>
  <unicode hex="2021"/>
  <outline>
    <contour>
      <point x="553" y="217" type="line"/>
      <point x="553" y="-238" type="line"/>
      <point x="443" y="-238" type="line"/>
      <point x="443" y="217" type="line"/>
      <point x="135" y="217" type="line"/>
      <point x="135" y="322" type="line"/>
      <point x="443" y="322" type="line"/>
      <point x="443" y="981" type="line"/>
      <point x="135" y="981" type="line"/>
      <point x="135" y="1087" type="line"/>
      <point x="443" y="1087" type="line"/>
      <point x="443" y="1513" type="line"/>
      <point x="553" y="1513" type="line"/>
      <point x="553" y="1087" type="line"/>
      <point x="863" y="1087" type="line"/>
      <point x="863" y="981" type="line"/>
      <point x="553" y="981" type="line"/>
      <point x="553" y="322" type="line"/>
      <point x="863" y="322" type="line"/>
      <point x="863" y="217" type="line"/>
    </contour>
  </outline>
</glyph>
<glyph name="bullet" format="1">
  <advance width="481"/>
  <unicode hex="2022"/>
  <outline>
    <contour>
      <point x="368" y="655" type="curve"/>
      <point x="368" y="571"/>
      <point x="330" y="501"/>
      <point x="277" y="469" type="curve"/>
      <point x="201" y="469"/>
      <point x="135" y="509"/>
      <point x="110" y="569" type="curve"/>
      <point x="110" y="654"/>
      <point x="147" y="725"/>
      <point x="202" y="756" type="curve"/>
      <point x="278" y="756"/>
      <point x="345" y="715"/>
    </contour>
  </outline>
</glyph>
